<svg data-name="Layer 1" xmlns="http://www.w3.org/2000/svg" viewBox="0 0 30 30"><title>bin</title><path d="M26.94 4.91h-5.43C21.19 2.17 18.38 0 15 0S8.81 2.17 8.49 4.91H3.06a.79.79 0 0 0-.83.7v4.72a.78.78 0 0 0 .83.7h.83a.29.29 0 0 1 .26.19L5.3 29.3a.78.78 0 0 0 .83.7h17.68a.78.78 0 0 0 .83-.7l1.21-18.06c0-.13.13-.19.26-.19h.83a.78.78 0 0 0 .83-.7V5.62a.79.79 0 0 0-.83-.71zM15 2.55a3.27 3.27 0 0 1 3.38 2.36h-6.76A3.27 3.27 0 0 1 15 2.55zm-2.43 24.39H9.51V11.81h3.06zm7.92 0h-3.06V11.81h3.06z"/></svg>