<svg id="Layer_1" data-name="Layer 1" xmlns="http://www.w3.org/2000/svg" viewBox="0 0 288 110.7"><defs><style>.cls-1{fill:none}.cls-2{fill:#7bc144}.cls-3{fill:#c1c1c1}</style></defs><title>Artboard 1</title><path class="cls-1" d="M267.6 57.9c-7.3 0-8.8 3-8.8 12.9s1.5 12.6 8.8 12.6c8.4 0 10.7-2 10.7-12.6s-2.3-12.9-10.7-12.9zM128.4 58.2c-8.4 0-10.8 2.3-10.8 12.9S120 84 128.4 84c7.3 0 8.8-3 8.8-12.9s-1.5-12.9-8.8-12.9z"/><path class="cls-2" d="M227.5 49.2c-6 0-9.8 1.9-12.2 4.1V50h-8.5v42.2h9.8V72.5c0-7.4-.8-14.6 9.8-14.6 8.5 0 7.7 3.9 7.7 12v22.3h9.8V69.1c0-9.2.7-19.9-16.4-19.9zM130.6 49.2c-4.6 0-9.6.5-12.8 3.8V36.3H108v55.9h8.8v-3.4c2.6 2.3 6.6 4.1 12.2 4.1 16.9 0 18-11.4 18-21.8.1-12.8-1.9-21.9-16.4-21.9zM128.4 84c-8.4 0-10.8-2.3-10.8-12.9s2.4-12.9 10.8-12.9c7.3 0 8.8 3 8.8 12.9S135.7 84 128.4 84zM172.2 49.2c-4.9 0-8.8 1.6-11.6 4.5v-3.8h-8.5v42.2h9.8V73.8c0-3.3-.2-8 1-11 1-2.9 3.6-5 7.6-5s5.7.9 5.7 4.8h9.7c0-9.3-4.6-13.4-13.7-13.4zM279.2 49.9v3.3c-3.3-2.9-8.7-4.1-13.2-4.1-14.6 0-16.9 8.8-16.9 21.6 0 10.1 1 21.4 17 21.4 4.1 0 9.1-1 12.1-3.7a61 61 0 0 1-.2 7.4c-.5 4-4.6 5.7-10.2 5.7s-7.2-1.5-7.2-4.6H250c0 10.7 9.6 12.9 18.1 12.9 7.8 0 18-2.1 19.6-12.1a96.68 96.68 0 0 0 .3-10.1V49.9zm-11.6 33.4c-7.3 0-8.8-2.7-8.8-12.6s1.5-12.9 8.8-12.9c8.4 0 10.7 2.3 10.7 12.9s-2.3 12.6-10.7 12.6zM190.6 49.9h9.8v42.2h-9.8zM190.6 36.3h9.8v9.8h-9.8z"/><path class="cls-3" d="M27.8 72A24 24 0 0 1 3.9 49.9H0a48 48 0 0 0 96 0H51.7A24 24 0 0 1 27.8 72z"/><path class="cls-2" d="M48 0A48 48 0 0 0 0 46.1h3.9a24 24 0 0 1 47.8 0h44.2A48 48 0 0 0 48 0z"/></svg>