<svg data-name="Layer 1" xmlns="http://www.w3.org/2000/svg" viewBox="0 0 30 30"><title>camera</title><path d="M14.73.15h.1zM29.07 7.51H26a.63.63 0 0 1-.49-.33L22 .48a.58.58 0 0 0-.49-.33h-6.78a.67.67 0 0 0-.38.3l-3.53 6.7a.53.53 0 0 1-.49.33H5A5.58 5.58 0 0 0-.59 13v16.34a.33.33 0 0 0 .34.33h29.32a.33.33 0 0 0 .34-.33V7.84a.31.31 0 0 0-.34-.33zm-24 7.4a1.85 1.85 0 1 1 0-3.7 1.85 1.85 0 1 1 0 3.7zM18.25 26a7.4 7.4 0 1 1 7.51-7.4 7.48 7.48 0 0 1-7.51 7.4z"/><path d="M18.25 14.91a3.7 3.7 0 1 0 3.75 3.7 3.74 3.74 0 0 0-3.75-3.7z"/></svg>