<svg data-name="Layer 1" xmlns="http://www.w3.org/2000/svg" viewBox="0 0 30 30"><title>globe</title><path d="M15 0a15 15 0 1 0 15 15A15 15 0 0 0 15 0zm9.23 21.6A11.28 11.28 0 0 1 15 26.29a10.75 10.75 0 0 1-4-.82c.82-1.65-1.05-4.91-2.81-6-.86-.86-2.7-.52-3.75-.94a11 11 0 0 1-.71-3.15.66.66 0 0 1 .6-.34c.67.04 1.67 1.46 2.2 1.31.67-.15-2.78-4.91-1.16-5.85.75-.45 2.25 1.46 1.76-.6C6.68 8 8.48 8.85 9.6 8.36c1-.41 1.69-1.54.49-2.21a4 4 0 0 1-.83-.71A11.13 11.13 0 0 1 15 3.79a11.13 11.13 0 0 1 3.52.71c-.79.75-1.69 1.43-1.54 2.1s2.59.49 2.59 1.87c0 1-1.58 1.31-.49 2.48 1.31 1.31-2.4 3.67-2.48 5.4-.1 3.08 3.16 3.65 5.75 3.65 1.58 0 1.99.7 1.88 1.6zm1.09-11c-.15.26-.41.41-.82.82-1.05 1-1.2-.79-1.65-1.16s-2.25.07-2.47-.49 1.88-1.57 3.3-2a12.41 12.41 0 0 1 1.65 2.7z"/></svg>