<svg xmlns="http://www.w3.org/2000/svg" viewBox="18 20 135 60"><title>Page 1</title><g fill="#FFF"><path d="M107.2 45.8h4.6v-4.5h-4.6v4.5zm0 21.3h4.6V47.6h-4.6v19.5zm36-4.1c-3.4 0-4.1-1.2-4.1-5.8s.7-6 4.1-6c3.9 0 5 1.1 5 6s-1.1 5.8-5 5.8zm5.4-15.4v1.5c-1.5-1.4-4.1-1.9-6.2-1.9-6.8 0-7.9 4-7.9 10 0 4.7.4 9.9 7.9 9.9 1.9 0 4.3-.4 5.7-1.7 0 1 0 2.4-.1 3.4-.2 1.8-2.1 2.6-4.8 2.6-2.6 0-3.4-.7-3.4-2.1h-5c0 5 4.5 6 8.5 6 3.7 0 8.4-1 9.2-5.6.2-1.1.2-2.8.2-4.7V47.6h-4.1zm-24.2-.4c-2.8 0-4.6.9-5.7 1.9v-1.5h-4v19.5h4.6V58c0-3.4-.4-6.8 4.6-6.8 4 0 3.6 1.8 3.6 5.6v10.3h4.6V56.4c0-4.2.3-9.2-7.7-9.2zm-25.8 0c-2.3 0-4.1.7-5.4 2.1v-1.7h-4v19.5h4.6v-8.5c0-1.5-.1-3.7.4-5.1.5-1.3 1.7-2.3 3.6-2.3 1.9 0 2.7.4 2.7 2.2h4.6c-.1-4.3-2.3-6.2-6.5-6.2zM78.1 63.3c-3.9 0-5.1-1.1-5.1-6s1.1-6 5.1-6c3.4 0 4.1 1.4 4.1 6s-.7 6-4.1 6zm1-16.1c-2.1 0-4.5.2-6 1.8v-7.7h-4.6v25.8h4.1v-1.6c1.2 1.1 3.1 1.9 5.7 1.9 7.9 0 8.4-5.3 8.4-10 .1-6-.8-10.2-7.6-10.2zM31 57.8c-5.9 0-10.7-4.5-11.2-10.2H18c.5 11.8 10.3 21.3 22.4 21.3 7.9 0 14.9-4.1 18.9-10.2 2.1-3.2 3.4-7 3.5-11.1H42.2c-.5 5.7-5.3 10.2-11.2 10.2zM19.8 45.8c.5-5.7 5.3-10.2 11.2-10.2 5.9 0 10.7 4.5 11.2 10.2h20.7C62.4 34 52.5 24.5 40.4 24.5S18.4 34 18 45.8h1.8"/></g></svg>