<svg id="Layer_1" xmlns="http://www.w3.org/2000/svg" viewBox="0 0 288 109.9"><style>.st0{fill:#fff}.st1{fill:#c1c1c1}</style><title>logo-bring-white</title><path class="st0" d="M190.6 50h9.8v42.2h-9.8zM227.5 49.3c-6 0-9.8 1.9-12.2 4.1v-3.3h-8.5v42.2h9.8V72.6c0-7.4-.8-14.6 9.8-14.6 8.5 0 7.7 3.9 7.7 12v22.3h9.8V69.2c0-9.2.7-19.9-16.4-19.9zM279.2 50v3.3c-3.3-2.9-8.7-4.1-13.2-4.1-14.6 0-16.9 8.8-16.9 21.6 0 10.1 1 21.4 17 21.4 4.1 0 9.1-1 12.1-3.7.1 2.5 0 4.9-.2 7.4-.5 4-4.6 5.7-10.2 5.7s-7.2-1.5-7.2-4.6H250c0 10.7 9.6 12.9 18.1 12.9 7.8 0 18-2.1 19.6-12.1.3-3.4.4-6.7.3-10.1V50h-8.8zm-11.6 33.4c-7.3 0-8.8-2.7-8.8-12.6s1.5-12.9 8.8-12.9c8.4 0 10.7 2.3 10.7 12.9s-2.3 12.6-10.7 12.6zM130.6 49.3c-4.6 0-9.6.5-12.8 3.8V36.4H108v55.9h8.8v-3.4c2.6 2.3 6.6 4.1 12.2 4.1 16.9 0 18-11.4 18-21.8.1-12.8-1.9-21.9-16.4-21.9zm-2.2 34.8c-8.4 0-10.8-2.3-10.8-12.9s2.4-12.9 10.8-12.9c7.3 0 8.8 3 8.8 12.9s-1.5 12.9-8.8 12.9zM172.2 49.3c-4.9 0-8.8 1.6-11.6 4.5V50h-8.5v42.2h9.8V73.9c0-3.3-.2-8 1-11 1-2.9 3.6-5 7.6-5s5.7.9 5.7 4.8h9.7c0-9.3-4.6-13.4-13.7-13.4zM190.6 36.4h9.8v9.8h-9.8z"/><path class="st1" d="M27.8 72.1C15.3 72.1 4.9 62.5 3.9 50H0c0 26.5 21.5 48 48 48s48-21.5 48-48H51.7c-1 12.5-11.4 22.1-23.9 22.1z"/><path class="st0" d="M48 .1C22.2.1 1 20.4 0 46.2h3.9C5.1 33 16.8 23.3 30 24.5c11.5 1.1 20.7 10.2 21.7 21.7h44.2C94.9 20.5 73.7.1 48 .1z"/></svg>