<svg xmlns="http://www.w3.org/2000/svg" viewBox="0 0 135 51"><title>Page 1</title><g fill="none" fill-rule="evenodd"><path class="logo-part-1" d="M89.174 21.286h4.581v-4.524h-4.58v4.524zm0 21.286h4.581V23.06h-4.58v19.512zm36.02-4.083c-3.405 0-4.095-1.242-4.095-5.805 0-4.564.69-5.965 4.095-5.965 3.933 0 4.988 1.082 4.988 5.965s-1.055 5.805-4.988 5.805zm5.392-15.43v1.539c-1.539-1.36-4.053-1.882-6.162-1.882-6.811 0-7.905 4.044-7.905 9.968 0 4.684.446 9.888 7.946 9.888 1.905 0 4.256-.441 5.676-1.723 0 1.002.04 2.41-.08 3.411-.245 1.841-2.15 2.642-4.785 2.642-2.555 0-3.362-.712-3.362-2.113h-4.99c0 4.965 4.5 5.956 8.472 5.956 3.651 0 8.435-.96 9.164-5.604.162-1.082.162-2.85.162-4.651V23.06h-4.136zm-24.169-.343c-2.797 0-4.58.881-5.716 1.882v-1.539h-3.973v19.513h4.58v-9.088c0-3.402-.363-6.765 4.582-6.765 3.975 0 3.609 1.802 3.609 5.565v10.288h4.582V31.923c0-4.242.325-9.207-7.664-9.207zm-25.845 0c-2.312 0-4.136.721-5.434 2.083v-1.74h-3.972v19.513h4.58v-8.487c0-1.52-.08-3.682.448-5.084.485-1.32 1.662-2.321 3.567-2.321 1.906 0 2.662.4 2.662 2.202h4.554c0-4.284-2.148-6.166-6.405-6.166zM60.076 38.81c-3.934 0-5.07-1.08-5.07-5.964 0-4.886 1.136-5.965 5.07-5.965 3.405 0 4.134 1.4 4.134 5.965 0 4.563-.729 5.964-4.134 5.964zm1.012-16.093c-2.148 0-4.5.241-6 1.763v-7.73h-4.581v25.823h4.134V41.01c1.217 1.08 3.083 1.88 5.718 1.88 7.905 0 8.432-5.282 8.432-10.045 0-5.925-.932-10.129-7.703-10.129z" fill="#7bc144"/><path class="logo-part-2" d="M13.003 33.259c-5.899 0-10.732-4.492-11.19-10.2H0c.472 11.835 10.333 21.287 22.435 21.287 7.95 0 14.933-4.08 18.922-10.234A21.867 21.867 0 0 0 44.87 23.06H24.192c-.458 5.707-5.29 10.199-11.19 10.199z" fill="#C1C1C1"/><path class="logo-part-3" d="M1.813 21.285c.458-5.707 5.291-10.199 11.19-10.199 5.898 0 10.731 4.492 11.19 10.2H44.87C44.397 9.45 34.536 0 22.435 0 10.333 0 .473 9.451 0 21.285h1.813" fill="#7bc144"/></g></svg>