<svg width="515" height="158" viewBox="0 0 515 158" xmlns="http://www.w3.org/2000/svg"><title>Posten_priRGBneg</title><g fill="none" fill-rule="evenodd"><path d="M311.119 99.127c-6.267-.381-10.365-.381-10.113-7.424.129-4.098 1.183-7.04 13.603-6.657 8.449.258 11.094 2.048 11.094 8.066h13.316c0-14.851-9.048-19.461-24.54-19.715-16.639-.255-27.681 3.201-27.936 18.692-.387 19.204 13.95 18.689 27.904 19.456 7.172.383 11.522.512 11.266 7.936-.128 4.483-1.593 7.297-14.013 6.916-10.236-.257-12.115-2.82-12.115-8.193h-13.321c0 15.361 9.819 19.458 25.565 19.713 16.772.257 27.965-3.708 28.223-19.074.386-19.97-14.596-18.818-28.933-19.716zm61.146 27.013c-7.043-.131-7.892-3.692-7.892-8.449V87.024h28.445v-12.49h-28.445V54.347h-14.467v20.187h-8.421v12.49h8.421v30.667c0 13.954 8.319 20.226 22.787 20.226 12.416 0 20.298-4.734 20.298-19.713h-13.137c-.151 3.984-1.057 8.062-7.589 7.936zm117.748-52.743c-8.833 0-14.463 2.816-18.048 6.017v-4.88h-12.547v62.361h14.467v-29.062c0-10.88-1.156-21.634 14.469-21.634 12.539 0 11.388 5.761 11.388 17.793v32.903h14.471v-34.054c0-13.569 1.023-29.444-24.2-29.444zm-79.08 25.988c0-8.322 1.278-14.081 13.952-14.081 13.443 0 14.206 5.121 14.206 14.081h-28.158zm13.952-25.988c-25.094 0-28.677 14.337-28.677 33.026 0 18.179 3.971 31.494 29.061 31.494 11.773 0 27.396-2.944 27.396-19.713h-14c-.123 7.043-7.64 7.807-12.886 7.807-12.42 0-15.106-4.222-15.106-14.85h42.758c0-21.759-1.277-37.764-28.546-37.764zm-172.338 51.72c-13.956 0-15.234-5.377-15.234-19.462 0-14.081 1.278-19.456 15.234-19.456 13.953 0 15.238 5.375 15.238 19.456 0 14.085-1.285 19.462-15.238 19.462zm0-51.72c-10.113 0-17.666 1.794-23.042 7.042-5.503 5.245-6.658 13.311-6.658 25.216 0 11.909 1.155 19.973 6.658 25.219 5.376 5.252 12.929 7.043 23.042 7.043 9.986 0 17.669-1.791 23.046-7.043 5.503-5.246 6.651-13.31 6.651-25.219 0-11.905-1.148-19.971-6.651-25.216-5.377-5.248-13.06-7.042-23.046-7.042zm-62.454 51.72c-12.417 0-15.873-3.714-15.873-19.329 0-15.623 3.456-19.589 15.873-19.589 10.755 0 13.057 4.989 13.057 19.589 0 14.59-2.302 19.329-13.057 19.329zm2.305-51.72c-6.658-.127-14.209 1.407-19.46 6.017v-4.88h-13.056v82.563h14.464V132.41c4.225 4.485 9.602 5.507 16.386 5.507 24.189 0 26.873-17.027 26.873-32.129 0-19.846-2.941-32.137-25.207-32.391zM136.372 74.535c-1.445 18.243-16.695 32.598-35.309 32.598-18.615 0-33.865-14.355-35.31-32.598H.505c1.49 37.823 32.607 68.032 70.794 68.032 38.188 0 69.305-30.209 70.795-68.032h-5.722" fill="#FFFFFE"/><path d="M65.753 68.866c1.445-18.243 16.695-32.599 35.31-32.599 18.614 0 33.865 14.356 35.309 32.599h5.722C140.604 31.043 109.487.834 71.299.834 33.112.834 1.995 31.043.505 68.866h65.248" fill="#B8BAB9"/></g></svg>