<svg data-name="Layer 1" xmlns="http://www.w3.org/2000/svg" viewBox="0 0 30 30"><title>questionmark-circle</title><path d="M15 0a15 15 0 1 0 15 15A15 15 0 0 0 15 0zm0 25.06A1.79 1.79 0 0 1 13 23a1.77 1.77 0 0 1 2-2 1.77 1.77 0 0 1 2 2 1.79 1.79 0 0 1-2 2.06zM19.19 15L17 16.2a2.86 2.86 0 0 0-.43 1.91v1.22h-3.3v-1.69a4.89 4.89 0 0 1 1.39-3.91l2.61-1.42a2.26 2.26 0 0 0 1.07-2.11 3.15 3.15 0 0 0-.57-2.2 3.32 3.32 0 0 0-2.29-.61 3.17 3.17 0 0 0-2.48.75 3.33 3.33 0 0 0-.49 2h-3.2q0-3.36 1.91-4.69a7.21 7.21 0 0 1 4.2-1q3.33 0 4.78 1.39a5.85 5.85 0 0 1 1.42 4.34A5.15 5.15 0 0 1 19.19 15z"/></svg>