<svg data-name="Layer 1" xmlns="http://www.w3.org/2000/svg" viewBox="0 0 120 120"><title>SoMe</title><path d="M37.74 113.08c45.28 0 70-37.51 70-70 0-1.07 0-2.13-.07-3.18A50.25 50.25 0 0 0 120 27.12 49.24 49.24 0 0 1 105.85 31a24.68 24.68 0 0 0 10.82-13.62 49.35 49.35 0 0 1-15.63 6A24.64 24.64 0 0 0 59.09 45.8 69.87 69.87 0 0 1 8.36 20.08 24.63 24.63 0 0 0 16 52.94a24.43 24.43 0 0 1-11.19-3.08v.31A24.62 24.62 0 0 0 24.56 74.3a24.58 24.58 0 0 1-11.12.42 24.66 24.66 0 0 0 23 17.1 49.4 49.4 0 0 1-30.57 10.56A52.22 52.22 0 0 1 0 102a69.72 69.72 0 0 0 37.73 11"/></svg>