<svg data-name="Layer 1" xmlns="http://www.w3.org/2000/svg" viewBox="0 0 120 120"><title>SoMe</title><path d="M103.8 96.82a1.07 1.07 0 0 0-1.43-.52l-.18.11s-13.1 14.54-46 8.86c-24.06-4.12-39-24.72-36.75-51.95A42.56 42.56 0 0 1 59.8 13.65c27.68 0 37.86 21.42 37.45 34.23S94.12 67.24 88.31 73a26 26 0 0 1-22.49 6.92 21 21 0 0 1-18.95-16.8.46.46 0 0 1 .45-.7l36.13.21a2.4 2.4 0 0 0 2.35-2.06v-.86a42.4 42.4 0 0 0-6.55-25.26 22.61 22.61 0 0 0-17.18-8.93 27.57 27.57 0 0 0-18.5 6.88A34.84 34.84 0 0 0 32.53 56c-.9 24 15.53 35.09 32.05 37.4a39.56 39.56 0 0 0 34.32-11 46.56 46.56 0 0 0 12-35.13A48 48 0 0 0 64 .76C36.53-.19 8.52 16.66 5.39 51.88c-3.26 35.92 16.47 59.23 46.46 65.91 37.65 8.24 56.73-9.19 56.73-9.19a1.32 1.32 0 0 0 .57-.74 1.41 1.41 0 0 0 0-1zM48.68 47.88a18.65 18.65 0 0 1 3.75-5.8 12.06 12.06 0 0 1 8.44-3.55 11.8 11.8 0 0 1 9.44 3.79 13.17 13.17 0 0 1 2.35 6 .7.7 0 0 1 0 .53.71.71 0 0 1-.5.25h-23a.57.57 0 0 1-.53-.33.9.9 0 0 1 .05-.89z"/></svg>