<svg id="Layer_1" data-name="Layer 1" xmlns="http://www.w3.org/2000/svg" viewBox="0 0 528 336"><title>layout-grid</title><g style="opacity:0.07"><rect x="16" y="55" width="267" height="269"/></g><rect x="36.33" y="55.27" width="226" height="200.73" style="fill:#fbb03b"/><text transform="translate(317 57)" style="font-size:12px;fill:#f7931e;font-family:Roboto-Regular, Roboto">.hw-container</text><rect x="16" y="28" width="267" height="27" style="fill:#bdccd4"/><line x1="262" y1="64" x2="308" y2="64" style="stroke:#f7931e;stroke-miterlimit:10;stroke-width:0.5px"/><text transform="translate(306 93.5)" style="font-size:12px;fill:#0071bc;font-family:Roboto-Regular, Roboto">.hw-grid</text><line x1="251" y1="90.5" x2="297" y2="90.5" style="fill:#f7931e;stroke:#0071bc;stroke-miterlimit:10;stroke-width:0.5px"/><text transform="translate(307 122.5)" style="font-size:12px;fill:#ed1c24;font-family:Roboto-Regular, Roboto">.hw-grid__item <tspan x="0" y="14.4">.hw-medium--one-half</tspan></text><rect x="16" y="256" width="267" height="68" style="fill:#bdccd4"/><text transform="translate(317 73)" style="font-size:12px;fill:#f7931e;font-family:Roboto-Light, Roboto">&gt; Centers and limits width of contents</text><text transform="translate(309 156)" style="font-size:12px;fill:#ed1c24;font-family:Roboto-Light, Roboto">&gt; C<tspan x="16.93" y="0" style="letter-spacing:-0.00927734375em">r</tspan><tspan x="20.85" y="0">eates grid items</tspan><tspan x="0" y="14.4">&gt; 100% width up until medium b</tspan><tspan x="167.12" y="14.4" style="letter-spacing:-0.00927734375em">r</tspan><tspan x="171.04" y="14.4">eakp.</tspan><tspan x="0" y="28.8">&gt; then 50% width f</tspan><tspan x="96.11" y="28.8" style="letter-spacing:-0.009765625em">r</tspan><tspan x="100.03" y="28.8">om the</tspan><tspan x="136.94" y="28.8" style="letter-spacing:-0.00927734375em">r</tspan><tspan x="140.87" y="28.8">e and up</tspan></text><text transform="translate(16 18.5)" style="font-size:12px;fill:#4d4d4d;font-family:Roboto-Bold, Roboto;font-weight:700"><tspan style="letter-spacing:-0.00537109375em">P</tspan><tspan x="7.68" y="0">age with grid l</tspan><tspan x="83.53" y="0" style="letter-spacing:-0.00732421875em">ay</tspan><tspan x="95.81" y="0">out</tspan></text><rect x="36.17" y="77.19" width="226" height="178.95" style="fill:#29abe2"/><g style="opacity:0.35000000000000003"><rect x="25.33" y="100.27" width="118.67" height="155.73" style="fill:#d4145a"/></g><rect x="36.33" y="100.27" width="107.67" height="155.73" style="fill:#d4145a"/><g style="opacity:0.35000000000000003"><rect x="143.33" y="100.27" width="118.67" height="155.73" style="fill:#d4145a"/></g><rect x="154.33" y="100.27" width="107.67" height="155.73" style="fill:#d4145a"/><line x1="261.5" y1="126.5" x2="296.5" y2="126.5" style="fill:#0071bc;stroke:#ed1c24;stroke-miterlimit:10;stroke-width:0.5px"/><line x1="143.5" y1="119.5" x2="296.5" y2="119.5" style="fill:#0071bc;stroke:#ed1c24;stroke-miterlimit:10;stroke-width:0.5px"/></svg>