<svg id="Layer_1" data-name="Layer 1" xmlns="http://www.w3.org/2000/svg" viewBox="0 0 528 336"><title>layout-page</title><g style="opacity:0.07"><rect x="17" y="56" width="267" height="269"/></g><rect x="37.33" y="56.27" width="226" height="200.73" style="fill:#fbb03b"/><text transform="translate(318 68)" style="font-size:12px;fill:#f7931e;font-family:Roboto-Regular, Roboto">.hw-container</text><rect x="17" y="29" width="267" height="27" style="fill:#bdccd4"/><rect x="48.33" y="82.27" width="203.67" height="82.73" style="fill:#29abe2"/><line x1="263" y1="65" x2="309" y2="65" style="stroke:#f7931e;stroke-miterlimit:10;stroke-width:0.5px"/><text transform="translate(307 111.5)" style="font-size:12px;fill:#0071bc;font-family:Roboto-Regular, Roboto">.hw-block .hw-block--mt</text><line x1="252" y1="108.5" x2="298" y2="108.5" style="fill:#f7931e;stroke:#0071bc;stroke-miterlimit:10;stroke-width:0.5px"/><g style="opacity:0.35000000000000003"><rect x="37.33" y="73.27" width="225.67" height="91.73" style="fill:#29abe2"/></g><rect x="48.33" y="174.27" width="203.67" height="82.73" style="fill:#d4145a"/><text transform="translate(307 203.5)" style="font-size:12px;fill:#ed1c24;font-family:Roboto-Regular, Roboto">.hw-block .hw-block--mt</text><line x1="252" y1="200.5" x2="298" y2="200.5" style="fill:#0071bc;stroke:#ed1c24;stroke-miterlimit:10;stroke-width:0.5px"/><g style="opacity:0.35000000000000003"><rect x="37.33" y="165.27" width="225.67" height="91.73" style="fill:#d4145a"/></g><rect x="17" y="257" width="267" height="68" style="fill:#bdccd4"/><text transform="translate(318 84)" style="font-size:12px;fill:#f7931e;font-family:Roboto-Light, Roboto">&gt; Centers and limits width of contents</text><text transform="translate(307 128)" style="font-size:12px;fill:#0071bc;font-family:Roboto-Light, Roboto">&gt; Block adds side paddings<tspan x="0" y="14.4">&gt; Modifier adds </tspan><tspan x="84.17" y="14.4" style="letter-spacing:-0.009765625em">t</tspan><tspan x="87.91" y="14.4">op ma</tspan><tspan x="121.26" y="14.4" style="letter-spacing:-0.00927734375em">r</tspan><tspan x="125.19" y="14.4">gin</tspan></text><text transform="translate(309 221)" style="font-size:12px;fill:#ed1c24;font-family:Roboto-Light, Roboto">&gt; Block adds side paddings<tspan x="0" y="14.4">&gt; Modifier adds </tspan><tspan x="84.17" y="14.4" style="letter-spacing:-0.009765625em">t</tspan><tspan x="87.91" y="14.4">op ma</tspan><tspan x="121.26" y="14.4" style="letter-spacing:-0.00927734375em">r</tspan><tspan x="125.19" y="14.4">gin</tspan></text><text transform="translate(17 19.5)" style="font-size:12px;fill:#4d4d4d;font-family:Roboto-Bold, Roboto;font-weight:700">A<tspan x="8.07" y="0" style="letter-spacing:0.0244140625em">r</tspan><tspan x="12.74" y="0">ticle page</tspan></text></svg>