<svg id="Layer_1" data-name="Layer 1" xmlns="http://www.w3.org/2000/svg" viewBox="0 0 528 307"><title>layout-component</title><g style="opacity:0.07"><rect x="14" y="32" width="267" height="261"/></g><g style="opacity:0.35000000000000003"><rect x="14.58" y="166.93" width="267" height="42.82" style="fill:#29abe2"/></g><rect x="14.33" y="32.27" width="266.67" height="133.73" style="fill:#ff7bac"/><line x1="14.5" y1="32.5" x2="280.5" y2="165.5" style="fill:#0071bc;stroke:#ff1d25;stroke-miterlimit:10;stroke-width:0.5px"/><line x1="281.5" y1="32.5" x2="14.5" y2="165.5" style="fill:#0071bc;stroke:#ff1d25;stroke-miterlimit:10;stroke-width:0.5px"/><text transform="translate(336 52.5)" style="font-size:12px;fill:#ff7bac;font-family:Roboto-Regular, Roboto">.hw-ca<tspan x="34.9" y="0" style="letter-spacing:-0.00927734375em">r</tspan><tspan x="38.85" y="0">d__image</tspan></text><line x1="281" y1="49.5" x2="327" y2="49.5" style="fill:#0071bc;stroke:#ff7bac;stroke-miterlimit:10;stroke-width:0.5px"/><text transform="translate(14 22.5)" style="font-size:12px;fill:#4d4d4d;font-family:Roboto-Bold, Roboto;font-weight:700">.hw-ca<tspan x="36.36" y="0" style="letter-spacing:-0.00927734375em">r</tspan><tspan x="40.63" y="0">d</tspan></text><rect x="25.33" y="177.06" width="244.67" height="32.69" style="fill:#29abe2"/><text transform="translate(314 192.5)" style="font-size:12px;fill:#0071bc;font-family:Roboto-Regular, Roboto">.hw-block .hw-block--mt</text><line x1="269" y1="189.5" x2="303.5" y2="189.5" style="fill:#f7931e;stroke:#0071bc;stroke-miterlimit:10;stroke-width:0.5px"/><text transform="translate(41 196.5)" style="font-size:12px;fill:#fff;font-family:Roboto-Light, Roboto">.hw-ca<tspan x="34.54" y="0" style="letter-spacing:-0.00927734375em">r</tspan><tspan x="38.47" y="0">d__title (w</tspan><tspan x="90.57" y="0" style="letter-spacing:-0.01953125em">r</tspan><tspan x="94.38" y="0">apped in block)</tspan></text><g style="opacity:0.35000000000000003"><rect x="14.58" y="210" width="267" height="83" style="fill:#29abe2"/></g><rect x="25.33" y="220.31" width="244.67" height="50.69" style="fill:#29abe2"/><text transform="translate(314 236.5)" style="font-size:12px;fill:#0071bc;font-family:Roboto-Regular, Roboto">.hw-block<tspan x="0" y="14.4">.hw-block--mt</tspan><tspan x="0" y="28.8">.hw-block--mb--la</tspan><tspan x="90.88" y="28.8" style="letter-spacing:-0.00927734375em">r</tspan><tspan x="94.83" y="28.8">ge</tspan></text><line x1="269" y1="233.5" x2="303.5" y2="233.5" style="fill:#f7931e;stroke:#0071bc;stroke-miterlimit:10;stroke-width:0.5px"/><text transform="translate(41 240.07) scale(1.14 1)" style="font-size:10.483519554138184px;fill:#fff;font-family:Roboto-Light, Roboto">.hw-ca<tspan x="30.18" y="0" style="letter-spacing:-0.009277374308369368em">r</tspan><tspan x="33.61" y="0">d__contents (w</tspan><tspan x="102.53" y="0" style="letter-spacing:-0.01953131433340919em">r</tspan><tspan x="105.85" y="0">apped in block)</tspan></text></svg>