<svg id="Layer_1" data-name="Layer 1" xmlns="http://www.w3.org/2000/svg" viewBox="0 0 528 387"><title>layout-mixed</title><g style="opacity:0.07"><rect x="16" y="58" width="267" height="317"/></g><rect x="36.33" y="58.27" width="226" height="108.73" style="fill:#fbb03b"/><text transform="translate(317 70)" style="font-size:12px;fill:#f7931e;font-family:Roboto-Regular, Roboto">.hw-container</text><rect x="16" y="31" width="267" height="27" style="fill:#bdccd4"/><rect x="47.33" y="84.27" width="203.67" height="82.73" style="fill:#29abe2"/><line x1="262" y1="67" x2="308" y2="67" style="stroke:#f7931e;stroke-miterlimit:10;stroke-width:0.5px"/><text transform="translate(306 113.5)" style="font-size:12px;fill:#0071bc;font-family:Roboto-Regular, Roboto">.hw-block .hw-block--mt</text><line x1="251" y1="110.5" x2="297" y2="110.5" style="fill:#f7931e;stroke:#0071bc;stroke-miterlimit:10;stroke-width:0.5px"/><g style="opacity:0.35000000000000003"><rect x="36.33" y="75.27" width="225.67" height="91.73" style="fill:#29abe2"/></g><text transform="translate(305 226.5)" style="font-size:12px;fill:#ed1c24;font-family:Roboto-Regular, Roboto">.hw-block .hw-block--mt</text><text transform="translate(317 86)" style="font-size:12px;fill:#f7931e;font-family:Roboto-Light, Roboto">&gt; Centers and limits width of contents</text><text transform="translate(306 130)" style="font-size:12px;fill:#0071bc;font-family:Roboto-Light, Roboto">&gt; Block adds side paddings<tspan x="0" y="14.4">&gt; Modifier adds </tspan><tspan x="84.17" y="14.4" style="letter-spacing:-0.009765625em">t</tspan><tspan x="87.91" y="14.4">op ma</tspan><tspan x="121.26" y="14.4" style="letter-spacing:-0.00927734375em">r</tspan><tspan x="125.19" y="14.4">gin</tspan></text><text transform="translate(307 244)" style="font-size:12px;fill:#ed1c24;font-family:Roboto-Light, Roboto">&gt; Block adds side paddings<tspan x="0" y="14.4">&gt; Modifier adds </tspan><tspan x="84.17" y="14.4" style="letter-spacing:-0.009765625em">t</tspan><tspan x="87.91" y="14.4">op ma</tspan><tspan x="121.26" y="14.4" style="letter-spacing:-0.00927734375em">r</tspan><tspan x="125.19" y="14.4">gin</tspan></text><text transform="translate(16 21.5)" style="font-size:12px;fill:#4d4d4d;font-family:Roboto-Bold, Roboto;font-weight:700">Mi<tspan x="13.69" y="0" style="letter-spacing:-0.009765625em">x</tspan><tspan x="19.68" y="0">ed content page</tspan></text><rect x="97" y="167.27" width="101" height="98.73" style="fill:#fbb03b"/><text transform="translate(308 176.5)" style="font-size:12px;fill:#f7931e;font-family:Roboto-Regular, Roboto">.hw-container .hw-container--nar<tspan x="171.28" y="0" style="letter-spacing:-0.009765625em">r</tspan><tspan x="175.22" y="0">ow</tspan></text><line x1="198" y1="173.5" x2="296.5" y2="173.5" style="stroke:#f7931e;stroke-miterlimit:10;stroke-width:0.5px"/><text transform="translate(308 192.5)" style="font-size:12px;fill:#f7931e;font-family:Roboto-Light, Roboto">&gt; Centers and limits width of contents</text><g style="opacity:0.35000000000000003"><rect x="97.33" y="180.27" width="100.67" height="85.73" style="fill:#d4145a"/></g><rect x="108.33" y="190.27" width="78.67" height="75.73" style="fill:#d4145a"/><line x1="187" y1="223.5" x2="296.5" y2="223.5" style="fill:#0071bc;stroke:#ed1c24;stroke-miterlimit:10;stroke-width:0.5px"/><rect x="36.33" y="266.27" width="226" height="108.73" style="fill:#fbb03b"/><text transform="translate(317 278)" style="font-size:12px;fill:#f7931e;font-family:Roboto-Regular, Roboto">.hw-container</text><rect x="47.33" y="292.27" width="203.67" height="82.73" style="fill:#29abe2"/><line x1="262" y1="275" x2="308" y2="275" style="stroke:#f7931e;stroke-miterlimit:10;stroke-width:0.5px"/><text transform="translate(306 321.5)" style="font-size:12px;fill:#0071bc;font-family:Roboto-Regular, Roboto">.hw-block .hw-block--mt</text><line x1="251" y1="318.5" x2="297" y2="318.5" style="fill:#f7931e;stroke:#0071bc;stroke-miterlimit:10;stroke-width:0.5px"/><g style="opacity:0.35000000000000003"><rect x="36.33" y="283.27" width="225.67" height="91.73" style="fill:#29abe2"/></g><text transform="translate(317 294)" style="font-size:12px;fill:#f7931e;font-family:Roboto-Light, Roboto">&gt; Centers and limits width of contents</text><text transform="translate(306 338)" style="font-size:12px;fill:#0071bc;font-family:Roboto-Light, Roboto">&gt; Block adds side paddings<tspan x="0" y="14.4">&gt; Modifier adds </tspan><tspan x="84.17" y="14.4" style="letter-spacing:-0.009765625em">t</tspan><tspan x="87.91" y="14.4">op ma</tspan><tspan x="121.26" y="14.4" style="letter-spacing:-0.00927734375em">r</tspan><tspan x="125.19" y="14.4">gin</tspan></text></svg>