<?xml version="1.0" encoding="UTF-8" standalone="no"?>
<svg width="173px" height="118px" viewBox="0 0 173 118" version="1.1" xmlns="http://www.w3.org/2000/svg" xmlns:xlink="http://www.w3.org/1999/xlink">
    <!-- Generator: Sketch 43.1 (39012) - http://www.bohemiancoding.com/sketch -->
    <title>Artboard</title>
    <desc>Created with Sketch.</desc>
    <defs>
        <polygon id="path-1" points="78.2914835 75.5880635 104.425504 75.5880635 104.425504 101.661362 66.6882215 113.237664"></polygon>
    </defs>
    <g id="Page-1" stroke="none" stroke-width="1" fill="none" fill-rule="evenodd">
        <g id="Artboard">
            <g id="Group" transform="translate(0.000000, 11.000000)">
                <path d="M156.804124,142.534031 L156.804124,71.2670157 C156.804124,31.9073298 124.822485,-7.10542736e-14 85.371134,-7.10542736e-14 C45.9197832,-7.10542736e-14 13.9381443,31.9073298 13.9381443,71.2670157 C13.9381443,92.5405669 13.9381443,142.534031 13.9381443,142.534031 C37.8693755,142.534031 61.8006067,159.91623 85.731838,159.91623 C109.4226,159.91623 133.113362,142.534031 156.804124,142.534031 Z" id="Oval" stroke="#C1C1C1" stroke-width="10" fill="#FFFFFF"></path>
                <ellipse id="Oval-2" stroke="#C1C1C1" stroke-width="10" fill="#FFFFFF" cx="38.3298969" cy="68.6596859" rx="24.3917526" ry="24.3350785"></ellipse>
                <ellipse id="Oval-2" stroke="#C1C1C1" stroke-width="10" fill="#FFFFFF" cx="132.412371" cy="68.6596859" rx="24.3917526" ry="24.3350785"></ellipse>
                <path d="M0.495329859,44.3246073 L37.0312612,44.3246073" id="Line" stroke="#C1C1C1" stroke-width="10" stroke-linecap="square"></path>
                <path d="M132.847938,44.3246073 L169,44.3246073" id="Line" stroke="#C1C1C1" stroke-width="10" stroke-linecap="square"></path>
                <ellipse id="Oval-3" stroke="#C1C1C1" fill="#C1C1C1" cx="38.3298969" cy="68.6596859" rx="9.58247423" ry="9.56020942"></ellipse>
                <ellipse id="Oval-3" stroke="#C1C1C1" fill="#C1C1C1" cx="132.412371" cy="68.6596859" rx="9.58247423" ry="9.56020942"></ellipse>
                <g id="Rectangle" transform="translate(85.556863, 94.412864) rotate(-45.000000) translate(-85.556863, -94.412864) ">
                    <use fill="#FFFFFF" fill-rule="evenodd" xlink:href="#path-1"></use>
                    <path stroke="#C1C1C1" stroke-width="10" d="M81.9825977,80.5880635 L99.4255041,80.5880635 L99.4255041,97.9651973 L74.2467018,105.689055 L81.9825977,80.5880635 Z"></path>
                </g>
            </g>
        </g>
    </g>
</svg>