<svg width="0" height="0" position="absolute"><symbol id="add" viewBox="0 0 42 42"><path d="M42 20H22V0h-2v20H0v2h20v20h2V22h20z"></path></symbol><symbol id="alert" data-name="Layer 1" viewBox="0 0 30 30"><path d="M15 .09A15 15 0 0 0-.13 15 15 15 0 0 0 15 29.91 15 15 0 0 0 30.13 15 15 15 0 0 0 15 .09zm1.82 22.66h-3.64v-3.58h3.63zm0-7.15h-3.64V8.44h3.63z"></path></symbol><symbol id="arrow-down" data-name="Layer 1" viewBox="0 0 30 30"><path d="M29.94 1.99L.06 1.87 14.89 28.7 29.94 1.99z"></path></symbol><symbol id="arrow-left" viewBox="0 0 100 100"><defs><path id="a" d="M58 18.7l9.4 9.1L44.9 50l22.5 22.2-9.4 9.1L26.2 50z"></path></defs><clipPath id="b"><use xlink:href="#a" overflow="visible"></use></clipPath><g clip-path="url(#b)"><defs><path id="c" d="M-1223.3-227.4h3107.6v2591.8h-3107.6z"></path></defs><clipPath id="d"><use xlink:href="#c" overflow="visible"></use></clipPath><path clip-path="url(#d)" fill="#444" d="M15.4 7.9h62.8v84.3H15.4V7.9z"></path></g></symbol><symbol id="arrow-right" data-name="Layer 1" viewBox="0 0 30 30"><path d="M1.62.06v29.88L28.38 15 1.62.06z"></path></symbol><symbol id="arrow-up" data-name="Layer 1" viewBox="0 0 30 30"><path d="M.06 28.41h29.88L15 1.65.06 28.41z"></path></symbol><symbol id="Artboard 44" viewBox="0 0 30 30"></symbol><symbol id="Artboard 45" viewBox="0 0 30 30"></symbol><symbol id="Artboard 46" viewBox="0 0 30 30"></symbol><symbol id="Artboard 47" viewBox="0 0 30 30"></symbol><symbol id="Artboard 48" viewBox="0 0 30 30"></symbol><symbol id="Artboard 49" viewBox="0 0 30 30"></symbol><symbol id="Artboard 50" viewBox="0 0 30 30"></symbol><symbol id="Artboard 66" viewBox="0 0 30 30"></symbol><symbol id="Artboard 67" viewBox="0 0 30 30"></symbol><symbol id="Artboard 71" id="Layer_1" data-name="Layer 1" viewBox="0 0 288.02 110.06"><defs><style><![CDATA[.cls-1{fill:none}.cls-2{fill:#7bc144}.cls-3{fill:#c1c1c1}]]></style></defs><path class="cls-1" d="M267.6 58.16c-7.3 0-8.8 3-8.8 12.9s1.5 12.6 8.8 12.6c8.4 0 10.7-2 10.7-12.6s-2.3-12.9-10.7-12.9zM128.4 58.46c-8.4 0-10.8 2.3-10.8 12.9s2.4 12.9 10.8 12.9c7.3 0 8.8-3 8.8-12.9s-1.5-12.9-8.8-12.9z"></path><path class="cls-2" d="M227.5 49.46c-6 0-9.8 1.9-12.2 4.1v-3.3h-8.5v42.2h9.8v-19.7c0-7.4-.8-14.6 9.8-14.6 8.5 0 7.7 3.9 7.7 12v22.3h9.8v-23.1c0-9.2.7-19.9-16.4-19.9zM130.6 49.46c-4.6 0-9.6.5-12.8 3.8v-16.7H108v55.9h8.8v-3.4c2.6 2.3 6.6 4.1 12.2 4.1 16.9 0 18-11.4 18-21.8.1-12.8-1.9-21.9-16.4-21.9zm-2.2 34.8c-8.4 0-10.8-2.3-10.8-12.9s2.4-12.9 10.8-12.9c7.3 0 8.8 3 8.8 12.9s-1.5 12.9-8.8 12.9zM172.2 49.46c-4.9 0-8.8 1.6-11.6 4.5v-3.8h-8.5v42.2h9.8v-18.3c0-3.3-.2-8 1-11 1-2.9 3.6-5 7.6-5s5.7.9 5.7 4.8h9.7c0-9.3-4.6-13.4-13.7-13.4zM279.2 50.16v3.3c-3.3-2.9-8.7-4.1-13.2-4.1-14.6 0-16.9 8.8-16.9 21.6 0 10.1 1 21.4 17 21.4 4.1 0 9.1-1 12.1-3.7a61 61 0 0 1-.2 7.4c-.5 4-4.6 5.7-10.2 5.7s-7.2-1.5-7.2-4.6H250c0 10.7 9.6 12.9 18.1 12.9 7.8 0 18-2.1 19.6-12.1a96.69 96.69 0 0 0 .3-10.1v-37.7zm-11.6 33.4c-7.3 0-8.8-2.7-8.8-12.6s1.5-12.9 8.8-12.9c8.4 0 10.7 2.3 10.7 12.9s-2.3 12.6-10.7 12.6zM190.6 50.16h9.8v42.2h-9.8zM190.6 36.56h9.8v9.8h-9.8z"></path><path class="cls-3" d="M27.8 72.26a24 24 0 0 1-23.9-22.1H0a48 48 0 0 0 96 0H51.7a24 24 0 0 1-23.9 22.1z"></path><path class="cls-2" d="M48 .26a48 48 0 0 0-48 46.1h3.9a24 24 0 0 1 47.8 0h44.2A48 48 0 0 0 48 .26z"></path></symbol><symbol id="at" data-name="Layer 1" viewBox="0 0 30 30"><path d="M26.13 23.83a.26.26 0 0 0-.39-.1s-3.18 3.53-11.17 2.15c-5.84-1-9.48-6-8.92-12.61a10.33 10.33 0 0 1 9.8-9.63c6.72 0 9.19 5.2 9.09 8.31s-.76 4.7-2.17 6.1a6.3 6.3 0 0 1-5.46 1.68 5.11 5.11 0 0 1-4.6-4.08.16.16 0 0 1 0-.12.14.14 0 0 1 .11-.05l8.77.05a.58.58 0 0 0 .57-.5v-.21a10.27 10.27 0 0 0-1.59-6.13A5.49 5.49 0 0 0 16 6.52a6.7 6.7 0 0 0-4.49 1.67 8.45 8.45 0 0 0-2.68 5.74c-.22 5.81 3.77 8.51 7.78 9.07a9.6 9.6 0 0 0 8.33-2.67 11.31 11.31 0 0 0 2.91-8.53A11.64 11.64 0 0 0 16.46.51C9.8.28 3 4.37 2.24 12.92c-.79 8.72 4 14.38 11.28 16 9.14 2 13.77-2.23 13.77-2.23a.32.32 0 0 0 .14-.18.34.34 0 0 0 0-.24zM12.75 11.95a4.56 4.56 0 0 1 .91-1.41 2.93 2.93 0 0 1 2.05-.86 2.86 2.86 0 0 1 2.29.92 3.19 3.19 0 0 1 .57 1.46.17.17 0 0 1 0 .13.16.16 0 0 1-.12.06h-5.59a.14.14 0 0 1-.13-.08.22.22 0 0 1 .02-.22z"></path></symbol><symbol id="attachment" data-name="Layer 1" viewBox="0 0 30 30"><path d="M19.51 20.15a.85.85 0 0 1-.72-.46 2.2 2.2 0 0 1 0-1.83.85.85 0 0 1 .74-.48h3.57a4.2 4.2 0 0 0 4.2-4.21v-.08a4.24 4.24 0 0 0-2.7-4 1.37 1.37 0 0 1-.87-1.15 3.91 3.91 0 0 0-3.89-3.45 4.51 4.51 0 0 0-1.51.24 1.31 1.31 0 0 1-1.42-.32 4.82 4.82 0 0 0-3.6-1.59 5.08 5.08 0 0 0-2.31.5 5.33 5.33 0 0 0-2.87 4.24A1.38 1.38 0 0 1 6.8 8.8a4.19 4.19 0 0 0-4.08 4.29 4.19 4.19 0 0 0 4.06 4.3h4.94a.83.83 0 0 1 .74.48 2.2 2.2 0 0 1 0 1.83.72.72 0 0 1-.75.46H6.78a7 7 0 0 1-6.85-7.07 7 7 0 0 1 5.76-7A7.89 7.89 0 0 1 13.3 0a7.31 7.31 0 0 1 4.9 1.88l.41-.08a6.67 6.67 0 0 1 1.21-.11 6.6 6.6 0 0 1 6.38 5.14 7.07 7.07 0 0 1 3.74 6.27 7 7 0 0 1-6.86 7.06h-3.57z"></path><path d="M14.53 11.85v11.34h-4.35L15.69 30l5.4-6.81h-4.37V11.85h-2.19z"></path></symbol><symbol id="avatar" data-name="Layer 1" viewBox="0 0 30 30"><path d="M23.62 23.73a11.49 11.49 0 0 0-6.18-2.34 1.81 1.81 0 0 1-.34-1.07 1.84 1.84 0 0 1 .08-.53 7.57 7.57 0 0 0 2.35-4.37h.06a.29.29 0 0 0 .29-.28.47.47 0 0 1 .14-.34 2.44 2.44 0 0 0 .11-1.64c-.07-.29-.15-.34-.24-.27a7.3 7.3 0 0 0-.21-2.82c.12-.4.65-1 .46-1.62a3.54 3.54 0 0 0-2.23-1.7c-3.67-.83-5.15.24-5.33.43 0 0-2.09 1.15-2.12 5.78-.1-.14-.21-.17-.3.2a2.44 2.44 0 0 0 .11 1.64.46.46 0 0 1 .14.34.29.29 0 0 0 .29.28h.09a7.59 7.59 0 0 0 2.33 4.35 1.9 1.9 0 0 1 .08.54 1.81 1.81 0 0 1-.35 1.08 11.12 11.12 0 0 0-6.31 2.49 12.28 12.28 0 1 1 17.07-.15M15 0a15 15 0 1 0 15 15A15 15 0 0 0 15 0"></path></symbol><symbol id="barcode" data-name="Layer 1" viewBox="0 0 30 30"><path d="M0 4.14h3.86v21.72H0zM12.48 4.14h3.86v21.72h-3.86zM26.14 4.14H30v21.72h-3.86zM5.35 4.14h1.78v21.72H5.35zM18.42 4.14h1.78v21.72h-1.78zM22.28 4.14h1.78v21.72h-1.78z"></path></symbol><symbol id="bin" data-name="Layer 1" viewBox="0 0 30 30"><path d="M26.94 4.91h-5.43C21.19 2.17 18.38 0 15 0S8.81 2.17 8.49 4.91H3.06a.79.79 0 0 0-.83.7v4.72a.78.78 0 0 0 .83.7h.83a.29.29 0 0 1 .26.19L5.3 29.3a.78.78 0 0 0 .83.7h17.68a.78.78 0 0 0 .83-.7l1.21-18.06c0-.13.13-.19.26-.19h.83a.78.78 0 0 0 .83-.7V5.62a.79.79 0 0 0-.83-.71zM15 2.55a3.27 3.27 0 0 1 3.38 2.36h-6.76A3.27 3.27 0 0 1 15 2.55zm-2.43 24.39H9.51V11.81h3.06zm7.92 0h-3.06V11.81h3.06z"></path></symbol><symbol id="binders" data-name="Layer 1" viewBox="0 0 30 30"><path d="M12.72 17.72l3.47-3.53-2.63-2.59-3.7 3.64a4.61 4.61 0 0 0 0 6.57 4.77 4.77 0 0 0 6.68 0l9.55-9.16a7.34 7.34 0 0 0 0-10.55A7.61 7.61 0 0 0 20.7-.11a7.84 7.84 0 0 0-5.38 2.21L4.74 12.27a10.18 10.18 0 0 0 0 14.56 10.61 10.61 0 0 0 14.82 0l4.77-4.69-2.63-2.58-4.43 4.24-.34.49a6.84 6.84 0 0 1-9.55 0 6.56 6.56 0 0 1 0-9.27L18 4.69a4 4 0 0 1 5.5 0 3.76 3.76 0 0 1 0 5.29l-9.55 9.27a1.08 1.08 0 0 1-1.45 0 1 1 0 0 1 0-1.43z"></path></symbol><symbol id="box" data-name="Layer 1" viewBox="0 0 30 30"><path d="M20.86 3.02L15.02 0 .98 7.36l5.94 3.03 13.94-7.37zM22.94 4.13L9.03 11.52l5.98 3.11L28.98 7.3l-6.04-3.17zM.49 22.71l13.02 6.81V16.35l-13-6.71-.02 13.07zM15.55 16.72V30l13.96-7.31V9.31l-13.96 7.41z"></path></symbol><symbol id="bring-logo-white" id="Layer_1" data-name="Layer 1" viewBox="0 0 288 110.7"><defs><style><![CDATA[.cls-1{fill:none}.cls-2{fill:#fff}.cls-3{fill:#c1c1c1}]]></style></defs><path class="cls-1" d="M267.6 57.9c-7.3 0-8.8 3-8.8 12.9s1.5 12.6 8.8 12.6c8.4 0 10.7-2 10.7-12.6s-2.3-12.9-10.7-12.9zM128.4 58.2c-8.4 0-10.8 2.3-10.8 12.9S120 84 128.4 84c7.3 0 8.8-3 8.8-12.9s-1.5-12.9-8.8-12.9z"></path><path class="cls-2" d="M190.6 49.9h9.8v42.2h-9.8zM227.5 49.2c-6 0-9.8 1.9-12.2 4.1V50h-8.5v42.2h9.8V72.5c0-7.4-.8-14.6 9.8-14.6 8.5 0 7.7 3.9 7.7 12v22.3h9.8V69.1c0-9.2.7-19.9-16.4-19.9zM279.2 49.9v3.3c-3.3-2.9-8.7-4.1-13.2-4.1-14.6 0-16.9 8.8-16.9 21.6 0 10.1 1 21.4 17 21.4 4.1 0 9.1-1 12.1-3.7a61 61 0 0 1-.2 7.4c-.5 4-4.6 5.7-10.2 5.7s-7.2-1.5-7.2-4.6H250c0 10.7 9.6 12.9 18.1 12.9 7.8 0 18-2.1 19.6-12.1a96.68 96.68 0 0 0 .3-10.1V49.9zm-11.6 33.4c-7.3 0-8.8-2.7-8.8-12.6s1.5-12.9 8.8-12.9c8.4 0 10.7 2.3 10.7 12.9s-2.3 12.6-10.7 12.6zM130.6 49.2c-4.6 0-9.6.5-12.8 3.8V36.3H108v55.9h8.8v-3.4c2.6 2.3 6.6 4.1 12.2 4.1 16.9 0 18-11.4 18-21.8.1-12.8-1.9-21.9-16.4-21.9zM128.4 84c-8.4 0-10.8-2.3-10.8-12.9s2.4-12.9 10.8-12.9c7.3 0 8.8 3 8.8 12.9S135.7 84 128.4 84zM172.2 49.2c-4.9 0-8.8 1.6-11.6 4.5v-3.8h-8.5v42.2h9.8V73.8c0-3.3-.2-8 1-11 1-2.9 3.6-5 7.6-5s5.7.9 5.7 4.8h9.7c0-9.3-4.6-13.4-13.7-13.4zM190.6 36.3h9.8v9.8h-9.8z"></path><path class="cls-3" d="M27.8 72A24 24 0 0 1 3.9 49.9H0a48 48 0 0 0 96 0H51.7A24 24 0 0 1 27.8 72z"></path><path class="cls-2" d="M48 0A48 48 0 0 0 0 46.1h3.9a24 24 0 0 1 47.8 0h44.2A48 48 0 0 0 48 0z"></path></symbol><symbol id="bring-logo" id="Layer_1" data-name="Layer 1" viewBox="0 0 288 110.7"><defs><style><![CDATA[.cls-1{fill:none}.cls-2{fill:#7bc144}.cls-3{fill:#c1c1c1}]]></style></defs><path class="cls-1" d="M267.6 57.9c-7.3 0-8.8 3-8.8 12.9s1.5 12.6 8.8 12.6c8.4 0 10.7-2 10.7-12.6s-2.3-12.9-10.7-12.9zM128.4 58.2c-8.4 0-10.8 2.3-10.8 12.9S120 84 128.4 84c7.3 0 8.8-3 8.8-12.9s-1.5-12.9-8.8-12.9z"></path><path class="cls-2" d="M227.5 49.2c-6 0-9.8 1.9-12.2 4.1V50h-8.5v42.2h9.8V72.5c0-7.4-.8-14.6 9.8-14.6 8.5 0 7.7 3.9 7.7 12v22.3h9.8V69.1c0-9.2.7-19.9-16.4-19.9zM130.6 49.2c-4.6 0-9.6.5-12.8 3.8V36.3H108v55.9h8.8v-3.4c2.6 2.3 6.6 4.1 12.2 4.1 16.9 0 18-11.4 18-21.8.1-12.8-1.9-21.9-16.4-21.9zM128.4 84c-8.4 0-10.8-2.3-10.8-12.9s2.4-12.9 10.8-12.9c7.3 0 8.8 3 8.8 12.9S135.7 84 128.4 84zM172.2 49.2c-4.9 0-8.8 1.6-11.6 4.5v-3.8h-8.5v42.2h9.8V73.8c0-3.3-.2-8 1-11 1-2.9 3.6-5 7.6-5s5.7.9 5.7 4.8h9.7c0-9.3-4.6-13.4-13.7-13.4zM279.2 49.9v3.3c-3.3-2.9-8.7-4.1-13.2-4.1-14.6 0-16.9 8.8-16.9 21.6 0 10.1 1 21.4 17 21.4 4.1 0 9.1-1 12.1-3.7a61 61 0 0 1-.2 7.4c-.5 4-4.6 5.7-10.2 5.7s-7.2-1.5-7.2-4.6H250c0 10.7 9.6 12.9 18.1 12.9 7.8 0 18-2.1 19.6-12.1a96.68 96.68 0 0 0 .3-10.1V49.9zm-11.6 33.4c-7.3 0-8.8-2.7-8.8-12.6s1.5-12.9 8.8-12.9c8.4 0 10.7 2.3 10.7 12.9s-2.3 12.6-10.7 12.6zM190.6 49.9h9.8v42.2h-9.8zM190.6 36.3h9.8v9.8h-9.8z"></path><path class="cls-3" d="M27.8 72A24 24 0 0 1 3.9 49.9H0a48 48 0 0 0 96 0H51.7A24 24 0 0 1 27.8 72z"></path><path class="cls-2" d="M48 0A48 48 0 0 0 0 46.1h3.9a24 24 0 0 1 47.8 0h44.2A48 48 0 0 0 48 0z"></path></symbol><symbol id="burger" data-name="Layer 1" viewBox="0 0 30 30"><path d="M0 0v5.3h30V0zm0 12.22v5.3h30v-5.3zm0 12.39v5.3h30v-5.3z"></path></symbol><symbol id="calculator" data-name="Layer 1" viewBox="0 0 30 30"><path d="M23.47 0H6.53a3.19 3.19 0 0 0-3.24 3.15v23.7A3.19 3.19 0 0 0 6.53 30h16.94a3.19 3.19 0 0 0 3.24-3.15V3.15A3.19 3.19 0 0 0 23.47 0zm-11 25.35H8.66v-3.77h3.77zm0-6.68H8.66V14.9h3.77zm8.9 6.68h-3.81v-3.77h3.77zm0-6.68h-3.81V14.9h3.77zM8 8.81V5h13.92v3.81z"></path></symbol><symbol id="calendar" data-name="Layer 1" viewBox="0 0 30 30"><path d="M1.7 0h26.6v7.5H1.7zM1.7 29.66A.34.34 0 0 0 2 30h25.92a.34.34 0 0 0 .34-.34V11.25H1.7zM20.7 15h3.8v3.75h-3.8zm-7.6 0h3.8v3.75h-3.8zm0 7.5h3.8v3.75h-3.8zM5.5 15h3.8v3.75H5.5zm0 7.5h3.8v3.75H5.5z"></path></symbol><symbol id="camera" data-name="Layer 1" viewBox="0 0 30 30"><path d="M14.73.15h.1zM29.07 7.51H26a.63.63 0 0 1-.49-.33L22 .48a.58.58 0 0 0-.49-.33h-6.78a.67.67 0 0 0-.38.3l-3.53 6.7a.53.53 0 0 1-.49.33H5A5.58 5.58 0 0 0-.59 13v16.34a.33.33 0 0 0 .34.33h29.32a.33.33 0 0 0 .34-.33V7.84a.31.31 0 0 0-.34-.33zm-24 7.4a1.85 1.85 0 1 1 0-3.7 1.85 1.85 0 1 1 0 3.7zM18.25 26a7.4 7.4 0 1 1 7.51-7.4 7.48 7.48 0 0 1-7.51 7.4z"></path><path d="M18.25 14.91a3.7 3.7 0 1 0 3.75 3.7 3.74 3.74 0 0 0-3.75-3.7z"></path></symbol><symbol id="card" data-name="Layer 1" viewBox="0 0 30 30"><path d="M0 25.16a.92.92 0 0 0 .94.92h28.12a.92.92 0 0 0 .94-.92V11.31H0zm11.25-6.47H15v3.69h-3.75zm-7.5 0H7.5v3.69H3.75zM29.06 3.92H.94a.92.92 0 0 0-.94.92v2.77h30V4.84a.92.92 0 0 0-.94-.92z"></path></symbol><symbol id="caret-down" data-name="Layer 1" viewBox="0 0 30 30"><path d="M30 9.63l-4.37-4.48L15 15.9 4.38 5.15 0 9.63l15 15.22L30 9.63z"></path></symbol><symbol id="caret-left" data-name="Layer 1" viewBox="0 0 30 30"><path d="M20.37 30l4.48-4.37L14.1 15 24.85 4.38 20.37 0 5.15 15l15.22 15z"></path></symbol><symbol id="caret-right" data-name="Layer 1" viewBox="0 0 30 30"><path d="M9.63 0L5.15 4.38 15.9 15 5.15 25.63 9.63 30l15.22-15L9.63 0z"></path></symbol><symbol id="caret-up" data-name="Layer 1" viewBox="0 0 30 30"><path d="M0 20.37l4.38 4.48L15 14.1l10.63 10.75L30 20.37 15 5.15 0 20.37z"></path></symbol><symbol id="cart" data-name="Layer 1" viewBox="0 0 30 30"><path d="M21 7.26V0H9v7.26H3.1L3.94 30h22.12l.84-22.74zm-2.57 0h-6.82V2.57h6.78z"></path></symbol><symbol id="chart" data-name="Layer 1" viewBox="0 0 30 30"><path d="M11.25 15L15 18.7 30 3.92 26.36.22 15 11.3l-3.75-3.69L0 18.81l3.75 3.69 7.5-7.5zM0 26.08h30v3.69H0z"></path></symbol><symbol id="chat" data-name="Layer 1" viewBox="0 0 30 30"><path d="M0 2.07h18.75v3.69H7.5v11.09H3.75L0 20.54zm11.25 7.39H30v18.47l-3.75-3.69h-15zm12.24 5.45v3.18h3.18v-3.18zm-4.24 0v3.18h3.18v-3.18zm-4.24 0v3.18h3.18v-3.18z"></path></symbol><symbol id="check-circle" data-name="Layer 1" viewBox="0 0 30 30"><path d="M30.27 15a15 15 0 1 1-15-15 15 15 0 0 1 15 15zm-16.7 7.9l11.1-11.11a1 1 0 0 0 0-1.37l-1.36-1.36a1 1 0 0 0-1.37 0l-9.06 9.06-4.23-4.23a1 1 0 0 0-1.36 0l-1.37 1.36a1 1 0 0 0 0 1.37l6.28 6.28a1 1 0 0 0 1.37 0z"></path></symbol><symbol id="check" data-name="Layer 1" viewBox="0 0 30 30"><path d="M25.75 3.92l-2.64 2.65-11.87 11.48-4.35-4.11-2.75-2.65L0 15.25l2.75 2.65 5.73 5.53 2.64 2.65 2.75-2.65 13.38-12.9L30 7.88"></path></symbol><symbol id="checkmark" data-name="Layer 1" viewBox="0 0 30 30"><path d="M25.75 3.92l-2.64 2.65-11.87 11.48-4.35-4.11-2.75-2.65L0 15.25l2.75 2.65 5.73 5.53 2.64 2.65 2.75-2.65 13.38-12.9L30 7.88"></path></symbol><symbol id="clock" data-name="Layer 1" viewBox="0 0 30 30"><path d="M15-.07a15 15 0 1 0 15 15 15 15 0 0 0-15-15zM1.23 16v-2H4.3v2zM14 1.27h2v3.06h-2zm2 27.5h-2V25.7h2zm6.37-6.43l-.73.73a1.25 1.25 0 0 1-1.73 0l-6.1-6.13a1.79 1.79 0 0 1-.63-1.27V7.83A1.25 1.25 0 0 1 14.4 6.6h1a1.25 1.25 0 0 1 1.23 1.23v7.07l5.7 5.7a1.25 1.25 0 0 1 .04 1.73zM25.7 16v-2h3.07v2z"></path></symbol><symbol id="close" viewBox="0 0 100 100"><defs><path id="a" d="M25 18.7l-5.2 5.4 24.1 23.2-23.3 24.1 5.4 5.2 23.2-24.1 24.1 23.2 5.1-5.3-24-23.3 23.2-24-5.3-5.2L49 42z"></path></defs><clipPath id="b"><use xlink:href="#a" overflow="visible"></use></clipPath><g clip-path="url(#b)"><defs><path id="c" transform="rotate(-.992 11.63 -468.25) scale(1.00005)" d="M-708.3-1068.7H731.6V132.2H-708.3z"></path></defs><clipPath id="d"><use xlink:href="#c" overflow="visible"></use></clipPath><path clip-path="url(#d)" fill="#444" d="M83.6 80.6l-67.8 1.2L14.7 14l67.8-1.2 1.1 67.8z"></path></g></symbol><symbol id="computer" data-name="Layer 1" viewBox="0 0 30 30"><path d="M28.13.23H1.28A1.85 1.85 0 0 0 0 2.08v18.46a1.86 1.86 0 0 0 1.87 1.85h9.37v3.69H7.5a3.73 3.73 0 0 0-3.75 3.69h22.5a3.73 3.73 0 0 0-3.75-3.69h-3.75v-3.69h9.37A1.86 1.86 0 0 0 30 20.54V2.08A1.86 1.86 0 0 0 28.13.23zM26.25 18.7H3.75V3.92h22.5z"></path></symbol><symbol id="cross-thin" viewBox="0 0 30 30"><path d="M2.8.2L.1 2.9l12.2 12.2L.1 27.3 2.8 30 15 17.8 27.2 30l2.7-2.7-12.2-12.2L29.9 2.9 27.2.2 15 12.4z"></path></symbol><symbol id="cross" data-name="Layer 1" viewBox="0 0 30 30"><path d="M20.33 15.06l6.92-6.92L30 5.39 24.5 0l-2.64 2.75-6.8 6.8-6.92-6.8L5.39 0 0 5.39l2.75 2.75 6.8 6.92-6.8 6.8L0 24.5 5.39 30l2.75-2.75 6.92-6.92 6.8 6.92L24.5 30l5.5-5.5-2.75-2.64-6.92-6.8z"></path></symbol><symbol id="document" data-name="Layer 1" viewBox="0 0 30 30"><path d="M17.16 0l-.19 11.25h10.89L17.16 0z"></path><path d="M13.53 0H2.63l-.5 30h25.42l.25-15H13.28zM6.14 7.5h3.63l-.06 3.75H6.08zM6 15h3.65l-.06 3.75H6zm14.4 7.5l-.06 3.75H5.83l.06-3.75z"></path></symbol><symbol id="download" data-name="Layer 1" viewBox="0 0 30 30"><path d="M26.25 11.3h-7.5V.22h-7.5V11.3h-7.5L15 22.39 26.25 11.3zM0 26.08h30v3.69H0z"></path></symbol><symbol id="envelope-open" data-name="Layer 1" viewBox="0 0 30 30"><path d="M15 0L-.22 7.5V30h30.44V7.5zm11.42 16.91L15 22.54 3.58 16.91v-7L15 4.24l11.42 5.62z"></path><path d="M7.39 15.04L15 18.79l7.61-3.75v-3.75H7.39v3.75z"></path></symbol><symbol id="envelope" data-name="Layer 1" viewBox="0 0 30 30"><path d="M0 11.34v14.78h30V11.34l-15 7.39-15-7.39z"></path><path d="M0 3.95v3.7l15 7.39 15-7.39v-3.7H0z"></path></symbol><symbol id="exclamation" data-name="Layer 1" viewBox="0 0 30 30"><path d="M15 .09A15 15 0 0 0-.13 15 15 15 0 0 0 15 29.91 15 15 0 0 0 30.13 15 15 15 0 0 0 15 .09zm1.82 22.66h-3.64v-3.58h3.63zm0-7.15h-3.64V8.44h3.63z"></path></symbol><symbol id="eye" data-name="Layer 1" viewBox="0 0 30 30"><path d="M15.11 3.92C5.63 3.92 0 15 0 15s5.63 11.08 15.11 11.08C24.38 26.08 30 15 30 15S24.38 3.92 15.11 3.92zM15 22.39A7.39 7.39 0 1 1 22.5 15a7.44 7.44 0 0 1-7.5 7.39z"></path><path d="M16.88 15A1.84 1.84 0 0 1 15 13.15a1.82 1.82 0 0 1 1.05-1.63 3.32 3.32 0 0 0-1.05-.21A3.7 3.7 0 1 0 18.75 15a4.62 4.62 0 0 0-.22-1 1.85 1.85 0 0 1-1.65 1z"></path></symbol><symbol id="flag" data-name="Layer 1" viewBox="0 0 30 30"><path d="M30.55 4.03H19.3V.33H8.05v14.78h7.5v3.69h15l-7.5-7.27 7.5-7.5zM.55.33H4.3v29.56H.55z"></path></symbol><symbol id="folder" data-name="Layer 1" viewBox="0 0 30 30"><path d="M0 27.93a1.84 1.84 0 0 0 1.88 1.85h26.24A1.84 1.84 0 0 0 30 27.93V11.31H0zM11.25 3.92V.22H0v7.39h30V3.92H11.25z"></path></symbol><symbol id="globe" data-name="Layer 1" viewBox="0 0 30 30"><path d="M15 0a15 15 0 1 0 15 15A15 15 0 0 0 15 0zm9.23 21.6A11.28 11.28 0 0 1 15 26.29a10.75 10.75 0 0 1-4-.82c.82-1.65-1.05-4.91-2.81-6-.86-.86-2.7-.52-3.75-.94a11 11 0 0 1-.71-3.15.66.66 0 0 1 .6-.34c.67.04 1.67 1.46 2.2 1.31.67-.15-2.78-4.91-1.16-5.85.75-.45 2.25 1.46 1.76-.6C6.68 8 8.48 8.85 9.6 8.36c1-.41 1.69-1.54.49-2.21a4 4 0 0 1-.83-.71A11.13 11.13 0 0 1 15 3.79a11.13 11.13 0 0 1 3.52.71c-.79.75-1.69 1.43-1.54 2.1s2.59.49 2.59 1.87c0 1-1.58 1.31-.49 2.48 1.31 1.31-2.4 3.67-2.48 5.4-.1 3.08 3.16 3.65 5.75 3.65 1.58 0 1.99.7 1.88 1.6zm1.09-11c-.15.26-.41.41-.82.82-1.05 1-1.2-.79-1.65-1.16s-2.25.07-2.47-.49 1.88-1.57 3.3-2a12.41 12.41 0 0 1 1.65 2.7z"></path></symbol><symbol id="home" data-name="Layer 1" viewBox="0 0 30 30"><path d="M15.38 0L.88 8.45v19.43A2.3 2.3 0 0 0 3.17 30h8.17V16.41h7.32V30h8.75c1.14 0 1.71-1 1.71-2.14V8.45z"></path></symbol><symbol id="info" data-name="Layer 1" viewBox="0 0 30 30"><path d="M16.9 26.25a1.87 1.87 0 0 1-1.9-1.88c0-1.35 3.81-6.9 3.81-9.37a5.71 5.71 0 0 0-11.42 0h3.81a1.9 1.9 0 0 1 3.8 0c0 1-3.81 6.15-3.81 9.37A5.59 5.59 0 0 0 16.9 30a5.66 5.66 0 0 0 5.71-5.63h-3.8a1.87 1.87 0 0 1-1.91 1.88zM18.81 7.5a3.79 3.79 0 0 0 3.81-3.75 3.81 3.81 0 0 0-7.61 0 3.79 3.79 0 0 0 3.8 3.75z"></path></symbol><symbol id="key" data-name="Layer 1" viewBox="0 0 30 30"><path d="M20.63.22a9.31 9.31 0 0 0-9.38 9.24 8.83 8.83 0 0 0 .11 1.74L0 22.39v7.39h11.25v-7.39h7.5v-3.7l.11-.11a9.22 9.22 0 0 0 1.76.11A9.31 9.31 0 0 0 30 9.46 9.31 9.31 0 0 0 20.63.22zm1.87 11.09a3.73 3.73 0 0 1-3.75-3.69 3.75 3.75 0 0 1 7.5 0 3.73 3.73 0 0 1-3.75 3.69z"></path></symbol><symbol id="lock-open" data-name="Layer 1" viewBox="0 0 30 30"><path d="M22.61 15V7.5a7.61 7.61 0 0 0-15.22 0h3.81a3.81 3.81 0 0 1 7.61 0V15H3.58v15h22.84V15z"></path></symbol><symbol id="lock" data-name="Layer 1" viewBox="0 0 30 30"><path d="M15 0a8.66 8.66 0 0 0-8.7 8.57v4.29H2V30h26V12.86h-4.3V8.57A8.66 8.66 0 0 0 15 0zm0 4.29a4.28 4.28 0 0 1 4.35 4.29v4.29h-8.7v-4.3A4.28 4.28 0 0 1 15 4.29z"></path></symbol><symbol id="logo-bring_BAK" viewBox="0 0 135 51"><g fill="none" fill-rule="evenodd"><path class="logo-part-1" d="M89.174 21.286h4.581v-4.524h-4.58v4.524zm0 21.286h4.581V23.06h-4.58v19.512zm36.02-4.083c-3.405 0-4.095-1.242-4.095-5.805 0-4.564.69-5.965 4.095-5.965 3.933 0 4.988 1.082 4.988 5.965s-1.055 5.805-4.988 5.805zm5.392-15.43v1.539c-1.539-1.36-4.053-1.882-6.162-1.882-6.811 0-7.905 4.044-7.905 9.968 0 4.684.446 9.888 7.946 9.888 1.905 0 4.256-.441 5.676-1.723 0 1.002.04 2.41-.08 3.411-.245 1.841-2.15 2.642-4.785 2.642-2.555 0-3.362-.712-3.362-2.113h-4.99c0 4.965 4.5 5.956 8.472 5.956 3.651 0 8.435-.96 9.164-5.604.162-1.082.162-2.85.162-4.651V23.06h-4.136zm-24.169-.343c-2.797 0-4.58.881-5.716 1.882v-1.539h-3.973v19.513h4.58v-9.088c0-3.402-.363-6.765 4.582-6.765 3.975 0 3.609 1.802 3.609 5.565v10.288h4.582V31.923c0-4.242.325-9.207-7.664-9.207zm-25.845 0c-2.312 0-4.136.721-5.434 2.083v-1.74h-3.972v19.513h4.58v-8.487c0-1.52-.08-3.682.448-5.084.485-1.32 1.662-2.321 3.567-2.321 1.906 0 2.662.4 2.662 2.202h4.554c0-4.284-2.148-6.166-6.405-6.166zM60.076 38.81c-3.934 0-5.07-1.08-5.07-5.964 0-4.886 1.136-5.965 5.07-5.965 3.405 0 4.134 1.4 4.134 5.965 0 4.563-.729 5.964-4.134 5.964zm1.012-16.093c-2.148 0-4.5.241-6 1.763v-7.73h-4.581v25.823h4.134V41.01c1.217 1.08 3.083 1.88 5.718 1.88 7.905 0 8.432-5.282 8.432-10.045 0-5.925-.932-10.129-7.703-10.129z" fill="#7bc144"></path><path class="logo-part-2" d="M13.003 33.259c-5.899 0-10.732-4.492-11.19-10.2H0c.472 11.835 10.333 21.287 22.435 21.287 7.95 0 14.933-4.08 18.922-10.234A21.867 21.867 0 0 0 44.87 23.06H24.192c-.458 5.707-5.29 10.199-11.19 10.199z" fill="#C1C1C1"></path><path class="logo-part-3" d="M1.813 21.285c.458-5.707 5.291-10.199 11.19-10.199 5.898 0 10.731 4.492 11.19 10.2H44.87C44.397 9.45 34.536 0 22.435 0 10.333 0 .473 9.451 0 21.285h1.813" fill="#7bc144"></path></g></symbol><symbol id="logo-bring-white_BAK" viewBox="18 20 135 60"><g fill="#FFF"><path d="M107.2 45.8h4.6v-4.5h-4.6v4.5zm0 21.3h4.6V47.6h-4.6v19.5zm36-4.1c-3.4 0-4.1-1.2-4.1-5.8s.7-6 4.1-6c3.9 0 5 1.1 5 6s-1.1 5.8-5 5.8zm5.4-15.4v1.5c-1.5-1.4-4.1-1.9-6.2-1.9-6.8 0-7.9 4-7.9 10 0 4.7.4 9.9 7.9 9.9 1.9 0 4.3-.4 5.7-1.7 0 1 0 2.4-.1 3.4-.2 1.8-2.1 2.6-4.8 2.6-2.6 0-3.4-.7-3.4-2.1h-5c0 5 4.5 6 8.5 6 3.7 0 8.4-1 9.2-5.6.2-1.1.2-2.8.2-4.7V47.6h-4.1zm-24.2-.4c-2.8 0-4.6.9-5.7 1.9v-1.5h-4v19.5h4.6V58c0-3.4-.4-6.8 4.6-6.8 4 0 3.6 1.8 3.6 5.6v10.3h4.6V56.4c0-4.2.3-9.2-7.7-9.2zm-25.8 0c-2.3 0-4.1.7-5.4 2.1v-1.7h-4v19.5h4.6v-8.5c0-1.5-.1-3.7.4-5.1.5-1.3 1.7-2.3 3.6-2.3 1.9 0 2.7.4 2.7 2.2h4.6c-.1-4.3-2.3-6.2-6.5-6.2zM78.1 63.3c-3.9 0-5.1-1.1-5.1-6s1.1-6 5.1-6c3.4 0 4.1 1.4 4.1 6s-.7 6-4.1 6zm1-16.1c-2.1 0-4.5.2-6 1.8v-7.7h-4.6v25.8h4.1v-1.6c1.2 1.1 3.1 1.9 5.7 1.9 7.9 0 8.4-5.3 8.4-10 .1-6-.8-10.2-7.6-10.2zM31 57.8c-5.9 0-10.7-4.5-11.2-10.2H18c.5 11.8 10.3 21.3 22.4 21.3 7.9 0 14.9-4.1 18.9-10.2 2.1-3.2 3.4-7 3.5-11.1H42.2c-.5 5.7-5.3 10.2-11.2 10.2zM19.8 45.8c.5-5.7 5.3-10.2 11.2-10.2 5.9 0 10.7 4.5 11.2 10.2h20.7C62.4 34 52.5 24.5 40.4 24.5S18.4 34 18 45.8h1.8"></path></g></symbol><symbol id="logo-bring-white" id="Layer_1" viewBox="0 0 288 109.9"><style><![CDATA[.st0{fill:#fff}.st1{fill:#c1c1c1}]]></style><path class="st0" d="M190.6 50h9.8v42.2h-9.8zM227.5 49.3c-6 0-9.8 1.9-12.2 4.1v-3.3h-8.5v42.2h9.8V72.6c0-7.4-.8-14.6 9.8-14.6 8.5 0 7.7 3.9 7.7 12v22.3h9.8V69.2c0-9.2.7-19.9-16.4-19.9zM279.2 50v3.3c-3.3-2.9-8.7-4.1-13.2-4.1-14.6 0-16.9 8.8-16.9 21.6 0 10.1 1 21.4 17 21.4 4.1 0 9.1-1 12.1-3.7.1 2.5 0 4.9-.2 7.4-.5 4-4.6 5.7-10.2 5.7s-7.2-1.5-7.2-4.6H250c0 10.7 9.6 12.9 18.1 12.9 7.8 0 18-2.1 19.6-12.1.3-3.4.4-6.7.3-10.1V50h-8.8zm-11.6 33.4c-7.3 0-8.8-2.7-8.8-12.6s1.5-12.9 8.8-12.9c8.4 0 10.7 2.3 10.7 12.9s-2.3 12.6-10.7 12.6zM130.6 49.3c-4.6 0-9.6.5-12.8 3.8V36.4H108v55.9h8.8v-3.4c2.6 2.3 6.6 4.1 12.2 4.1 16.9 0 18-11.4 18-21.8.1-12.8-1.9-21.9-16.4-21.9zm-2.2 34.8c-8.4 0-10.8-2.3-10.8-12.9s2.4-12.9 10.8-12.9c7.3 0 8.8 3 8.8 12.9s-1.5 12.9-8.8 12.9zM172.2 49.3c-4.9 0-8.8 1.6-11.6 4.5V50h-8.5v42.2h9.8V73.9c0-3.3-.2-8 1-11 1-2.9 3.6-5 7.6-5s5.7.9 5.7 4.8h9.7c0-9.3-4.6-13.4-13.7-13.4zM190.6 36.4h9.8v9.8h-9.8z"></path><path class="st1" d="M27.8 72.1C15.3 72.1 4.9 62.5 3.9 50H0c0 26.5 21.5 48 48 48s48-21.5 48-48H51.7c-1 12.5-11.4 22.1-23.9 22.1z"></path><path class="st0" d="M48 .1C22.2.1 1 20.4 0 46.2h3.9C5.1 33 16.8 23.3 30 24.5c11.5 1.1 20.7 10.2 21.7 21.7h44.2C94.9 20.5 73.7.1 48 .1z"></path></symbol><symbol id="logo-bring" viewBox="0 0 135 51"><g fill="none" fill-rule="evenodd"><path class="logo-part-1" d="M89.174 21.286h4.581v-4.524h-4.58v4.524zm0 21.286h4.581V23.06h-4.58v19.512zm36.02-4.083c-3.405 0-4.095-1.242-4.095-5.805 0-4.564.69-5.965 4.095-5.965 3.933 0 4.988 1.082 4.988 5.965s-1.055 5.805-4.988 5.805zm5.392-15.43v1.539c-1.539-1.36-4.053-1.882-6.162-1.882-6.811 0-7.905 4.044-7.905 9.968 0 4.684.446 9.888 7.946 9.888 1.905 0 4.256-.441 5.676-1.723 0 1.002.04 2.41-.08 3.411-.245 1.841-2.15 2.642-4.785 2.642-2.555 0-3.362-.712-3.362-2.113h-4.99c0 4.965 4.5 5.956 8.472 5.956 3.651 0 8.435-.96 9.164-5.604.162-1.082.162-2.85.162-4.651V23.06h-4.136zm-24.169-.343c-2.797 0-4.58.881-5.716 1.882v-1.539h-3.973v19.513h4.58v-9.088c0-3.402-.363-6.765 4.582-6.765 3.975 0 3.609 1.802 3.609 5.565v10.288h4.582V31.923c0-4.242.325-9.207-7.664-9.207zm-25.845 0c-2.312 0-4.136.721-5.434 2.083v-1.74h-3.972v19.513h4.58v-8.487c0-1.52-.08-3.682.448-5.084.485-1.32 1.662-2.321 3.567-2.321 1.906 0 2.662.4 2.662 2.202h4.554c0-4.284-2.148-6.166-6.405-6.166zM60.076 38.81c-3.934 0-5.07-1.08-5.07-5.964 0-4.886 1.136-5.965 5.07-5.965 3.405 0 4.134 1.4 4.134 5.965 0 4.563-.729 5.964-4.134 5.964zm1.012-16.093c-2.148 0-4.5.241-6 1.763v-7.73h-4.581v25.823h4.134V41.01c1.217 1.08 3.083 1.88 5.718 1.88 7.905 0 8.432-5.282 8.432-10.045 0-5.925-.932-10.129-7.703-10.129z" fill="#7bc144"></path><path class="logo-part-2" d="M13.003 33.259c-5.899 0-10.732-4.492-11.19-10.2H0c.472 11.835 10.333 21.287 22.435 21.287 7.95 0 14.933-4.08 18.922-10.234A21.867 21.867 0 0 0 44.87 23.06H24.192c-.458 5.707-5.29 10.199-11.19 10.199z" fill="#C1C1C1"></path><path class="logo-part-3" d="M1.813 21.285c.458-5.707 5.291-10.199 11.19-10.199 5.898 0 10.731 4.492 11.19 10.2H44.87C44.397 9.45 34.536 0 22.435 0 10.333 0 .473 9.451 0 21.285h1.813" fill="#7bc144"></path></g></symbol><symbol id="logo-posten-white" width="515" height="158" viewBox="0 0 515 158"><g fill="none" fill-rule="evenodd"><path d="M311.119 99.127c-6.267-.381-10.365-.381-10.113-7.424.129-4.098 1.183-7.04 13.603-6.657 8.449.258 11.094 2.048 11.094 8.066h13.316c0-14.851-9.048-19.461-24.54-19.715-16.639-.255-27.681 3.201-27.936 18.692-.387 19.204 13.95 18.689 27.904 19.456 7.172.383 11.522.512 11.266 7.936-.128 4.483-1.593 7.297-14.013 6.916-10.236-.257-12.115-2.82-12.115-8.193h-13.321c0 15.361 9.819 19.458 25.565 19.713 16.772.257 27.965-3.708 28.223-19.074.386-19.97-14.596-18.818-28.933-19.716zm61.146 27.013c-7.043-.131-7.892-3.692-7.892-8.449V87.024h28.445v-12.49h-28.445V54.347h-14.467v20.187h-8.421v12.49h8.421v30.667c0 13.954 8.319 20.226 22.787 20.226 12.416 0 20.298-4.734 20.298-19.713h-13.137c-.151 3.984-1.057 8.062-7.589 7.936zm117.748-52.743c-8.833 0-14.463 2.816-18.048 6.017v-4.88h-12.547v62.361h14.467v-29.062c0-10.88-1.156-21.634 14.469-21.634 12.539 0 11.388 5.761 11.388 17.793v32.903h14.471v-34.054c0-13.569 1.023-29.444-24.2-29.444zm-79.08 25.988c0-8.322 1.278-14.081 13.952-14.081 13.443 0 14.206 5.121 14.206 14.081h-28.158zm13.952-25.988c-25.094 0-28.677 14.337-28.677 33.026 0 18.179 3.971 31.494 29.061 31.494 11.773 0 27.396-2.944 27.396-19.713h-14c-.123 7.043-7.64 7.807-12.886 7.807-12.42 0-15.106-4.222-15.106-14.85h42.758c0-21.759-1.277-37.764-28.546-37.764zm-172.338 51.72c-13.956 0-15.234-5.377-15.234-19.462 0-14.081 1.278-19.456 15.234-19.456 13.953 0 15.238 5.375 15.238 19.456 0 14.085-1.285 19.462-15.238 19.462zm0-51.72c-10.113 0-17.666 1.794-23.042 7.042-5.503 5.245-6.658 13.311-6.658 25.216 0 11.909 1.155 19.973 6.658 25.219 5.376 5.252 12.929 7.043 23.042 7.043 9.986 0 17.669-1.791 23.046-7.043 5.503-5.246 6.651-13.31 6.651-25.219 0-11.905-1.148-19.971-6.651-25.216-5.377-5.248-13.06-7.042-23.046-7.042zm-62.454 51.72c-12.417 0-15.873-3.714-15.873-19.329 0-15.623 3.456-19.589 15.873-19.589 10.755 0 13.057 4.989 13.057 19.589 0 14.59-2.302 19.329-13.057 19.329zm2.305-51.72c-6.658-.127-14.209 1.407-19.46 6.017v-4.88h-13.056v82.563h14.464V132.41c4.225 4.485 9.602 5.507 16.386 5.507 24.189 0 26.873-17.027 26.873-32.129 0-19.846-2.941-32.137-25.207-32.391zM136.372 74.535c-1.445 18.243-16.695 32.598-35.309 32.598-18.615 0-33.865-14.355-35.31-32.598H.505c1.49 37.823 32.607 68.032 70.794 68.032 38.188 0 69.305-30.209 70.795-68.032h-5.722" fill="#FFFFFE"></path><path d="M65.753 68.866c1.445-18.243 16.695-32.599 35.31-32.599 18.614 0 33.865 14.356 35.309 32.599h5.722C140.604 31.043 109.487.834 71.299.834 33.112.834 1.995 31.043.505 68.866h65.248" fill="#B8BAB9"></path></g></symbol><symbol id="logo-posten" width="515" height="158" viewBox="0 0 515 158"><g fill="none" fill-rule="evenodd"><path d="M311.119 99.127c-6.267-.381-10.365-.381-10.113-7.424.129-4.098 1.183-7.04 13.603-6.657 8.449.258 11.094 2.048 11.094 8.066h13.316c0-14.851-9.048-19.461-24.54-19.715-16.639-.255-27.681 3.201-27.936 18.692-.387 19.204 13.95 18.689 27.904 19.456 7.172.383 11.522.512 11.266 7.936-.128 4.483-1.593 7.297-14.013 6.916-10.236-.257-12.115-2.82-12.115-8.193h-13.321c0 15.361 9.819 19.458 25.565 19.713 16.772.257 27.965-3.708 28.223-19.074.386-19.97-14.596-18.818-28.933-19.716zm61.146 27.013c-7.043-.131-7.892-3.692-7.892-8.449V87.024h28.445v-12.49h-28.445V54.347h-14.467v20.187h-8.421v12.49h8.421v30.667c0 13.954 8.319 20.226 22.787 20.226 12.416 0 20.298-4.734 20.298-19.713h-13.137c-.151 3.984-1.057 8.062-7.589 7.936zm117.748-52.743c-8.833 0-14.463 2.816-18.048 6.017v-4.88h-12.547v62.361h14.467v-29.062c0-10.88-1.156-21.634 14.469-21.634 12.539 0 11.388 5.761 11.388 17.793v32.903h14.471v-34.054c0-13.569 1.023-29.444-24.2-29.444zm-79.08 25.988c0-8.322 1.278-14.081 13.952-14.081 13.443 0 14.206 5.121 14.206 14.081h-28.158zm13.952-25.988c-25.094 0-28.677 14.337-28.677 33.026 0 18.179 3.971 31.494 29.061 31.494 11.773 0 27.396-2.944 27.396-19.713h-14c-.123 7.043-7.64 7.807-12.886 7.807-12.42 0-15.106-4.222-15.106-14.85h42.758c0-21.759-1.277-37.764-28.546-37.764zm-172.338 51.72c-13.956 0-15.234-5.377-15.234-19.462 0-14.081 1.278-19.456 15.234-19.456 13.953 0 15.238 5.375 15.238 19.456 0 14.085-1.285 19.462-15.238 19.462zm0-51.72c-10.113 0-17.666 1.794-23.042 7.042-5.503 5.245-6.658 13.311-6.658 25.216 0 11.909 1.155 19.973 6.658 25.219 5.376 5.252 12.929 7.043 23.042 7.043 9.986 0 17.669-1.791 23.046-7.043 5.503-5.246 6.651-13.31 6.651-25.219 0-11.905-1.148-19.971-6.651-25.216-5.377-5.248-13.06-7.042-23.046-7.042zm-62.454 51.72c-12.417 0-15.873-3.714-15.873-19.329 0-15.623 3.456-19.589 15.873-19.589 10.755 0 13.057 4.989 13.057 19.589 0 14.59-2.302 19.329-13.057 19.329zm2.305-51.72c-6.658-.127-14.209 1.407-19.46 6.017v-4.88h-13.056v82.563h14.464V132.41c4.225 4.485 9.602 5.507 16.386 5.507 24.189 0 26.873-17.027 26.873-32.129 0-19.846-2.941-32.137-25.207-32.391zM136.372 74.535c-1.445 18.243-16.695 32.598-35.309 32.598-18.615 0-33.865-14.355-35.31-32.598H.505c1.49 37.823 32.607 68.032 70.794 68.032 38.188 0 69.305-30.209 70.795-68.032h-5.722" fill="#D02F2B"></path><path d="M65.753 68.866c1.445-18.243 16.695-32.599 35.31-32.599 18.614 0 33.865 14.356 35.309 32.599h5.722C140.604 31.043 109.487.834 71.299.834 33.112.834 1.995 31.043.505 68.866h65.248" fill="#B8BAB9"></path></g></symbol><symbol id="logo-white" viewBox="18 20 135 60"><g fill="#FFF"><path d="M107.2 45.8h4.6v-4.5h-4.6v4.5zm0 21.3h4.6V47.6h-4.6v19.5zm36-4.1c-3.4 0-4.1-1.2-4.1-5.8s.7-6 4.1-6c3.9 0 5 1.1 5 6s-1.1 5.8-5 5.8zm5.4-15.4v1.5c-1.5-1.4-4.1-1.9-6.2-1.9-6.8 0-7.9 4-7.9 10 0 4.7.4 9.9 7.9 9.9 1.9 0 4.3-.4 5.7-1.7 0 1 0 2.4-.1 3.4-.2 1.8-2.1 2.6-4.8 2.6-2.6 0-3.4-.7-3.4-2.1h-5c0 5 4.5 6 8.5 6 3.7 0 8.4-1 9.2-5.6.2-1.1.2-2.8.2-4.7V47.6h-4.1zm-24.2-.4c-2.8 0-4.6.9-5.7 1.9v-1.5h-4v19.5h4.6V58c0-3.4-.4-6.8 4.6-6.8 4 0 3.6 1.8 3.6 5.6v10.3h4.6V56.4c0-4.2.3-9.2-7.7-9.2zm-25.8 0c-2.3 0-4.1.7-5.4 2.1v-1.7h-4v19.5h4.6v-8.5c0-1.5-.1-3.7.4-5.1.5-1.3 1.7-2.3 3.6-2.3 1.9 0 2.7.4 2.7 2.2h4.6c-.1-4.3-2.3-6.2-6.5-6.2zM78.1 63.3c-3.9 0-5.1-1.1-5.1-6s1.1-6 5.1-6c3.4 0 4.1 1.4 4.1 6s-.7 6-4.1 6zm1-16.1c-2.1 0-4.5.2-6 1.8v-7.7h-4.6v25.8h4.1v-1.6c1.2 1.1 3.1 1.9 5.7 1.9 7.9 0 8.4-5.3 8.4-10 .1-6-.8-10.2-7.6-10.2zM31 57.8c-5.9 0-10.7-4.5-11.2-10.2H18c.5 11.8 10.3 21.3 22.4 21.3 7.9 0 14.9-4.1 18.9-10.2 2.1-3.2 3.4-7 3.5-11.1H42.2c-.5 5.7-5.3 10.2-11.2 10.2zM19.8 45.8c.5-5.7 5.3-10.2 11.2-10.2 5.9 0 10.7 4.5 11.2 10.2h20.7C62.4 34 52.5 24.5 40.4 24.5S18.4 34 18 45.8h1.8"></path></g></symbol><symbol id="logo" viewBox="0 0 135 51"><g fill="none" fill-rule="evenodd"><path class="logo-part-1" d="M89.174 21.286h4.581v-4.524h-4.58v4.524zm0 21.286h4.581V23.06h-4.58v19.512zm36.02-4.083c-3.405 0-4.095-1.242-4.095-5.805 0-4.564.69-5.965 4.095-5.965 3.933 0 4.988 1.082 4.988 5.965s-1.055 5.805-4.988 5.805zm5.392-15.43v1.539c-1.539-1.36-4.053-1.882-6.162-1.882-6.811 0-7.905 4.044-7.905 9.968 0 4.684.446 9.888 7.946 9.888 1.905 0 4.256-.441 5.676-1.723 0 1.002.04 2.41-.08 3.411-.245 1.841-2.15 2.642-4.785 2.642-2.555 0-3.362-.712-3.362-2.113h-4.99c0 4.965 4.5 5.956 8.472 5.956 3.651 0 8.435-.96 9.164-5.604.162-1.082.162-2.85.162-4.651V23.06h-4.136zm-24.169-.343c-2.797 0-4.58.881-5.716 1.882v-1.539h-3.973v19.513h4.58v-9.088c0-3.402-.363-6.765 4.582-6.765 3.975 0 3.609 1.802 3.609 5.565v10.288h4.582V31.923c0-4.242.325-9.207-7.664-9.207zm-25.845 0c-2.312 0-4.136.721-5.434 2.083v-1.74h-3.972v19.513h4.58v-8.487c0-1.52-.08-3.682.448-5.084.485-1.32 1.662-2.321 3.567-2.321 1.906 0 2.662.4 2.662 2.202h4.554c0-4.284-2.148-6.166-6.405-6.166zM60.076 38.81c-3.934 0-5.07-1.08-5.07-5.964 0-4.886 1.136-5.965 5.07-5.965 3.405 0 4.134 1.4 4.134 5.965 0 4.563-.729 5.964-4.134 5.964zm1.012-16.093c-2.148 0-4.5.241-6 1.763v-7.73h-4.581v25.823h4.134V41.01c1.217 1.08 3.083 1.88 5.718 1.88 7.905 0 8.432-5.282 8.432-10.045 0-5.925-.932-10.129-7.703-10.129z" fill="#7bc144"></path><path class="logo-part-2" d="M13.003 33.259c-5.899 0-10.732-4.492-11.19-10.2H0c.472 11.835 10.333 21.287 22.435 21.287 7.95 0 14.933-4.08 18.922-10.234A21.867 21.867 0 0 0 44.87 23.06H24.192c-.458 5.707-5.29 10.199-11.19 10.199z" fill="#C1C1C1"></path><path class="logo-part-3" d="M1.813 21.285c.458-5.707 5.291-10.199 11.19-10.199 5.898 0 10.731 4.492 11.19 10.2H44.87C44.397 9.45 34.536 0 22.435 0 10.333 0 .473 9.451 0 21.285h1.813" fill="#7bc144"></path></g></symbol><symbol id="marker" data-name="Layer 1" viewBox="0 0 30 30"><path d="M15 0A11.32 11.32 0 0 0 3.58 11.25C3.58 18.75 15 30 15 30s11.42-11.25 11.42-18.75A11.32 11.32 0 0 0 15 0zm0 3.75a7.5 7.5 0 1 1-7.61 7.5A7.55 7.55 0 0 1 15 3.75z"></path></symbol><symbol id="minus" data-name="Layer 1" viewBox="0 0 30 30"><path d="M0 11.42h30v7.16H0z"></path></symbol><symbol id="mobile" data-name="Layer 1" viewBox="0 0 30 30"><path d="M23.79 0H6.21a.69.69 0 0 0-.72.71v28.58a.69.69 0 0 0 .72.71h17.58a.69.69 0 0 0 .72-.71V.71a.69.69 0 0 0-.72-.71zM15 28.09a1.87 1.87 0 1 1 1.9-1.87 1.87 1.87 0 0 1-1.9 1.87zm5.7-5.62H9.28V3.75h11.4z"></path></symbol><symbol id="paperclip" data-name="Layer 1" viewBox="0 0 30 30"><path d="M12.72 17.72l3.47-3.53-2.63-2.59-3.7 3.64a4.61 4.61 0 0 0 0 6.57 4.77 4.77 0 0 0 6.68 0l9.55-9.16a7.34 7.34 0 0 0 0-10.55A7.61 7.61 0 0 0 20.7-.11a7.84 7.84 0 0 0-5.38 2.21L4.74 12.27a10.18 10.18 0 0 0 0 14.56 10.61 10.61 0 0 0 14.82 0l4.77-4.69-2.63-2.58-4.43 4.24-.34.49a6.84 6.84 0 0 1-9.55 0 6.56 6.56 0 0 1 0-9.27L18 4.69a4 4 0 0 1 5.5 0 3.76 3.76 0 0 1 0 5.29l-9.55 9.27a1.08 1.08 0 0 1-1.45 0 1 1 0 0 1 0-1.43z"></path></symbol><symbol id="parcel" viewBox="0 0 100 100"><defs><path id="a" d="M37.7 41.4v6.8L51.5 55l13.8-6.8v-6.8H37.7zm13.8-12.8l20.6 10.2v12.7L51.5 61.7 30.8 51.6V38.8l20.7-10.2zm0-7.6L24 34.5v40.7h55V34.5L51.5 21z"></path></defs><clipPath id="b"><use xlink:href="#a" overflow="visible"></use></clipPath><g clip-path="url(#b)"><defs><path id="c" d="M-2174.5-411.1H554.4v2276h-2728.9z"></path></defs><clipPath id="d"><use xlink:href="#c" overflow="visible"></use></clipPath><path clip-path="url(#d)" fill="#444" d="M14.5 11.5h74v73.2h-74z"></path></g></symbol><symbol id="pencil" data-name="Layer 1" viewBox="0 0 30 30"><path d="M-.18 22.01l-.19 7.38 7.5.19L22.5 15.19l-7.31-7.58-15.37 14.4zM22.87.42l-3.84 3.59 7.31 7.58 3.84-3.6L22.87.42z"></path></symbol><symbol id="phone" data-name="Layer 1" viewBox="0 0 30 30"><path d="M29.25 22.77l-7.43-4.62a1.39 1.39 0 0 0-1.62.19L17 21.55a1 1 0 0 1-1.47 0l-7.25-7.23a1 1 0 0 1 0-1.47l3-3a1.29 1.29 0 0 0 .14-1.58L5.94.42a1 1 0 0 0-1.41-.2S.23 3.63.23 6.77A23.23 23.23 0 0 0 23.46 30c3.14 0 6.19-5.76 6.19-5.76a1.13 1.13 0 0 0-.4-1.47z"></path></symbol><symbol id="plus" data-name="Layer 1" viewBox="0 0 30 30"><path d="M18.75 11.25V0h-7.5v11.25H0v7.5h11.25V30h7.5V18.75H30v-7.5H18.75z"></path></symbol><symbol id="questionmark-circle" data-name="Layer 1" viewBox="0 0 30 30"><path d="M15 0a15 15 0 1 0 15 15A15 15 0 0 0 15 0zm0 25.06A1.79 1.79 0 0 1 13 23a1.77 1.77 0 0 1 2-2 1.77 1.77 0 0 1 2 2 1.79 1.79 0 0 1-2 2.06zM19.19 15L17 16.2a2.86 2.86 0 0 0-.43 1.91v1.22h-3.3v-1.69a4.89 4.89 0 0 1 1.39-3.91l2.61-1.42a2.26 2.26 0 0 0 1.07-2.11 3.15 3.15 0 0 0-.57-2.2 3.32 3.32 0 0 0-2.29-.61 3.17 3.17 0 0 0-2.48.75 3.33 3.33 0 0 0-.49 2h-3.2q0-3.36 1.91-4.69a7.21 7.21 0 0 1 4.2-1q3.33 0 4.78 1.39a5.85 5.85 0 0 1 1.42 4.34A5.15 5.15 0 0 1 19.19 15z"></path></symbol><symbol id="refresh" data-name="Layer 1" viewBox="0 0 30 30"><path d="M15 7.61V3.92A11.2 11.2 0 0 0 3.75 15H0l5.62 7.39L11.25 15H7.5A7.42 7.42 0 0 1 15 7.61zM24.38 7.61L18.75 15h3.75a7.42 7.42 0 0 1-7.5 7.39v3.69A11.2 11.2 0 0 0 26.25 15H30z"></path></symbol><symbol id="remove" data-name="Remove" viewBox="0 0 30 30"><path d="M15 0a15 15 0 1 0 15 15A15 15 0 0 0 15 0zm7.34 18.9a.71.71 0 0 1 0 1l-2.39 2.39a.74.74 0 0 1-1 0l-3.92-4-3.93 4a.74.74 0 0 1-1 0l-2.47-2.37a.74.74 0 0 1 0-1l4-3.92-4-4a.74.74 0 0 1 0-1L10 7.62a.74.74 0 0 1 1 0l3.92 4 3.93-4a.72.72 0 0 1 1 0L22.32 10a.72.72 0 0 1 0 1l-4 3.93z"></path></symbol><symbol id="reply" data-name="Layer 1" viewBox="0 0 30 30"><path d="M30 12.17L18.75 0v8.57C3.75 8.57 0 17.36 0 30c1.95-8.49 7.5-12.86 15-12.86h3.75v8.57z"></path></symbol><symbol id="search" data-name="Layer 1" viewBox="0 0 30 30"><path d="M25 19.66a3.72 3.72 0 0 0-.59-.48A12.83 12.83 0 0 0 26.05 13a13 13 0 1 0-13 13 12.86 12.86 0 0 0 6.17-1.52 3.72 3.72 0 0 0 .48.48L25 30l5-5zm-5.17-.22l-.11.11a3.72 3.72 0 0 0-.48.48A9.3 9.3 0 0 1 13 22.37a9.29 9.29 0 0 1 0-18.58A9.2 9.2 0 0 1 22.3 13a9.32 9.32 0 0 1-2.45 6.44z"></path></symbol><symbol id="some-email" data-name="Layer 1" viewBox="0 0 120 120"><path d="M103.8 96.82a1.07 1.07 0 0 0-1.43-.52l-.18.11s-13.1 14.54-46 8.86c-24.06-4.12-39-24.72-36.75-51.95A42.56 42.56 0 0 1 59.8 13.65c27.68 0 37.86 21.42 37.45 34.23S94.12 67.24 88.31 73a26 26 0 0 1-22.49 6.92 21 21 0 0 1-18.95-16.8.46.46 0 0 1 .45-.7l36.13.21a2.4 2.4 0 0 0 2.35-2.06v-.86a42.4 42.4 0 0 0-6.55-25.26 22.61 22.61 0 0 0-17.18-8.93 27.57 27.57 0 0 0-18.5 6.88A34.84 34.84 0 0 0 32.53 56c-.9 24 15.53 35.09 32.05 37.4a39.56 39.56 0 0 0 34.32-11 46.56 46.56 0 0 0 12-35.13A48 48 0 0 0 64 .76C36.53-.19 8.52 16.66 5.39 51.88c-3.26 35.92 16.47 59.23 46.46 65.91 37.65 8.24 56.73-9.19 56.73-9.19a1.32 1.32 0 0 0 .57-.74 1.41 1.41 0 0 0 0-1zM48.68 47.88a18.65 18.65 0 0 1 3.75-5.8 12.06 12.06 0 0 1 8.44-3.55 11.8 11.8 0 0 1 9.44 3.79 13.17 13.17 0 0 1 2.35 6 .7.7 0 0 1 0 .53.71.71 0 0 1-.5.25h-23a.57.57 0 0 1-.53-.33.9.9 0 0 1 .05-.89z"></path></symbol><symbol id="some-facebook" data-name="Layer 1" viewBox="0 0 120 120"><path d="M80.45 120V65.26h18.37l2.75-21.33H80.45V30.31c0-6.18 1.71-10.38 10.57-10.38h11.3V.84A151.2 151.2 0 0 0 85.86 0C69.57 0 58.42 9.94 58.42 28.2v15.73H40v21.33h18.42V120z"></path></symbol><symbol id="some-google" data-name="Layer 1" viewBox="0 0 120 120"><path d="M38.18 53.53v13.09h21.66c-.84 5.61-6.55 16.47-21.66 16.47a24.11 24.11 0 0 1 0-48.22 21.53 21.53 0 0 1 15.22 5.89l10.36-10a36.58 36.58 0 0 0-25.58-10 38.18 38.18 0 0 0 0 76.36c22 0 36.66-15.49 36.66-37.31a35.71 35.71 0 0 0-.6-6.32zM120 53.53h-10.91V42.62H98.18v10.91H87.27v10.91h10.91v10.9h10.91v-10.9H120"></path></symbol><symbol id="some-instagram" data-name="Layer 1" viewBox="0 0 120 120"><path d="M60 10.81c16 0 17.92.06 24.25.35a33.06 33.06 0 0 1 11.14 2.07 18.6 18.6 0 0 1 6.9 4.48 18.6 18.6 0 0 1 4.48 6.9 33.06 33.06 0 0 1 2.07 11.14c.29 6.33.35 8.23.35 24.25s-.06 17.92-.35 24.25a33.06 33.06 0 0 1-2.07 11.14 19.78 19.78 0 0 1-11.38 11.38 33.06 33.06 0 0 1-11.14 2.07c-6.33.29-8.23.35-24.25.35s-17.92-.06-24.25-.35a33.06 33.06 0 0 1-11.14-2.07 18.6 18.6 0 0 1-6.9-4.48 18.6 18.6 0 0 1-4.48-6.9 33.06 33.06 0 0 1-2.07-11.14c-.29-6.33-.35-8.23-.35-24.25s.06-17.92.35-24.25a33.06 33.06 0 0 1 2.07-11.14 18.6 18.6 0 0 1 4.48-6.9 18.6 18.6 0 0 1 6.9-4.48 33.06 33.06 0 0 1 11.14-2.07c6.33-.29 8.23-.35 24.25-.35M60 0C43.7 0 41.66.07 35.26.36A44.05 44.05 0 0 0 20.7 3.15a29.32 29.32 0 0 0-10.63 6.92A29.32 29.32 0 0 0 3.15 20.7 44.05 44.05 0 0 0 .36 35.26C.07 41.66 0 43.7 0 60s.07 18.34.36 24.74A44.05 44.05 0 0 0 3.15 99.3a29.32 29.32 0 0 0 6.92 10.63 29.32 29.32 0 0 0 10.63 6.92 44.05 44.05 0 0 0 14.56 2.79c6.4.29 8.44.36 24.74.36s18.34-.07 24.74-.36a44.05 44.05 0 0 0 14.56-2.79 30.66 30.66 0 0 0 17.55-17.55 44.05 44.05 0 0 0 2.79-14.56c.29-6.4.36-8.44.36-24.74s-.07-18.34-.36-24.74a44.05 44.05 0 0 0-2.79-14.56 29.32 29.32 0 0 0-6.92-10.63A29.32 29.32 0 0 0 99.3 3.15 44.05 44.05 0 0 0 84.74.36C78.34.07 76.3 0 60 0z"></path><path d="M60 29.19A30.81 30.81 0 1 0 90.81 60 30.8 30.8 0 0 0 60 29.19zM60 80a20 20 0 1 1 20-20 20 20 0 0 1-20 20z"></path><circle cx="92.03" cy="27.97" r="7.2"></circle></symbol><symbol id="some-linkedin" data-name="Layer 1" viewBox="0 0 120 120"><path d="M1.78 39.84h24.91V120H1.78zM14.24 0A14.45 14.45 0 1 1-.21 14.44 14.45 14.45 0 0 1 14.24 0M42.32 39.84h23.89v11h.33C69.87 44.49 78 37.85 90.12 37.85 115.34 37.85 120 54.45 120 76v44H95.1V81c0-9.3-.17-21.25-12.94-21.25-13 0-15 10.12-15 20.58V120H42.32z"></path></symbol><symbol id="some-twitter" data-name="Layer 1" viewBox="0 0 120 120"><path d="M37.74 113.08c45.28 0 70-37.51 70-70 0-1.07 0-2.13-.07-3.18A50.25 50.25 0 0 0 120 27.12 49.24 49.24 0 0 1 105.85 31a24.68 24.68 0 0 0 10.82-13.62 49.35 49.35 0 0 1-15.63 6A24.64 24.64 0 0 0 59.09 45.8 69.87 69.87 0 0 1 8.36 20.08 24.63 24.63 0 0 0 16 52.94a24.43 24.43 0 0 1-11.19-3.08v.31A24.62 24.62 0 0 0 24.56 74.3a24.58 24.58 0 0 1-11.12.42 24.66 24.66 0 0 0 23 17.1 49.4 49.4 0 0 1-30.57 10.56A52.22 52.22 0 0 1 0 102a69.72 69.72 0 0 0 37.73 11"></path></symbol><symbol id="star" data-name="Layer 1" viewBox="0 0 30 30"><path d="M30 11.34H18.76L14.95.21l-3.71 11.13H0l9.38 7.32-3.71 11.13 9.28-7.42 9.38 7.42-3.71-11.13L30 11.34z"></path></symbol><symbol id="success" viewBox="0 0 52 52"><path d="M26 0C11.664 0 0 11.663 0 26s11.664 26 26 26 26-11.663 26-26S40.336 0 26 0zm0 50C12.767 50 2 39.233 2 26S12.767 2 26 2s24 10.767 24 24-10.767 24-24 24z"></path><path d="M38.252 15.336l-15.369 17.29-9.259-7.407a1 1 0 0 0-1.249 1.562l10 8a.999.999 0 0 0 1.373-.117l16-18a1 1 0 1 0-1.496-1.328z"></path></symbol><symbol id="swipe-right" data-name="Layer 1" viewBox="0 0 30 30"><path d="M5.74 16.68v-9.1A1.89 1.89 0 0 1 6.41 6a1.89 1.89 0 0 1 2.23 0l.23.15a.92.92 0 0 0 0-.16 1.83 1.83 0 0 1 2-1.87A1.84 1.84 0 0 1 12.67 6v4.24a2.08 2.08 0 0 1 2.19-.24A1.87 1.87 0 0 1 16 11.8l.22-.14a2 2 0 0 1 3 1.12 2.32 2.32 0 0 1 .06.59V17a4.29 4.29 0 0 1 .53.06 1.94 1.94 0 0 1 1.58 1.7 7.65 7.65 0 0 1-.11 2.94 17.72 17.72 0 0 1-1.18 3.7 9 9 0 0 0-.81 4.08c0 .18 0 .36.06.55H9.49c-.09-.41-.14-.81-.25-1.21a3.84 3.84 0 0 0-1-1.81 2.17 2.17 0 0 0-.42-.31 7.94 7.94 0 0 1-2.33-1.86 2.2 2.2 0 0 1-.33-.69c-.21-.64-.4-1.29-.6-1.94A.42.42 0 0 0 4.5 22c-.9-1.1-1.8-2.2-2.71-3.29a.92.92 0 0 0-.26-.22A3.66 3.66 0 0 1 .25 17a1.36 1.36 0 0 1 .94-2 3.11 3.11 0 0 1 2.26.2 8.08 8.08 0 0 1 2.07 1.3z"></path><path d="M22.81 11.32v-.24-2.9c0-.21-.07-.27-.28-.27h-7c-.32 0-.33 0-.33-.33V3.75c0-.22.06-.28.28-.28h7c.23 0 .3-.07.29-.3V.25v-.27l7.12 5.68-7.06 5.66z"></path></symbol><symbol id="target" data-name="Layer 1" viewBox="0 0 30 30"><path d="M30 12.83h-2.82A12.33 12.33 0 0 0 17 2.73V-.1h-4v2.83A12.33 12.33 0 0 0 2.87 12.86L0 12.88V17h2.85A12.33 12.33 0 0 0 13 27v2.9h4v-2.85a12.33 12.33 0 0 0 10.1-10.11h2.86zm-15 10.3a8.25 8.25 0 1 1 8.23-8.25A8.25 8.25 0 0 1 15 23.13z"></path><ellipse cx="15" cy="14.9" rx="5.65" ry="5.66"></ellipse></symbol><symbol id="upload" data-name="Layer 1" viewBox="0 0 30 30"><path d="M3.75 18.7h7.5v11.08h7.5V18.7h7.5L15 7.61 3.75 18.7zM0 .22h30v3.69H0z"></path></symbol><symbol id="user" viewBox="0 0 448 512"><path d="M224 256c70.7 0 128-57.3 128-128S294.7 0 224 0 96 57.3 96 128s57.3 128 128 128zm89.6 32h-16.7c-22.2 10.2-46.9 16-72.9 16s-50.6-5.8-72.9-16h-16.7C60.2 288 0 348.2 0 422.4V464c0 26.5 21.5 48 48 48h352c26.5 0 48-21.5 48-48v-41.6c0-74.2-60.2-134.4-134.4-134.4z"></path></symbol></svg>