<svg id="baa5d4eb-6cf1-40bc-a5e3-9d718a067c89" data-name="Export here" xmlns="http://www.w3.org/2000/svg" viewBox="0 0 200 200">
  <title>Adresser</title>
  <g>
    <path d="M174,77a2,2,0,0,0,2-2V58.41a2,2,0,0,0-2-2h-9V20H38.5A8.51,8.51,0,0,0,30,28.5v162a8.51,8.51,0,0,0,8.5,8.5H165V163h9a2,2,0,0,0,2-2V144.41a2,2,0,0,0-2-2h-9V120h9a2,2,0,0,0,2-2V101.41a2,2,0,0,0-2-2h-9V77ZM152,186H43V33H152Z"/>
    <path d="M97,108.71A21.14,21.14,0,1,0,75.86,87.57,21.13,21.13,0,0,0,97,108.71ZM111.8,114H109A28.77,28.77,0,0,1,85,114H82.2A22.2,22.2,0,0,0,60,136.2v6.87A7.93,7.93,0,0,0,67.93,151h58.14a7.93,7.93,0,0,0,7.93-7.93V136.2A22.2,22.2,0,0,0,111.8,114Z"/>
  </g>
</svg>
