<?xml version="1.0" encoding="utf-8"?>
<!-- Generator: Adobe Illustrator 22.1.0, SVG Export Plug-In . SVG Version: 6.00 Build 0)  -->
<svg version="1.1" id="_x39_30a0111-69b0-46a4-92b8-2b725389bb78"
	 xmlns="http://www.w3.org/2000/svg" xmlns:xlink="http://www.w3.org/1999/xlink" x="0px" y="0px" viewBox="0 0 200 200"
	 style="enable-background:new 0 0 200 200;" xml:space="preserve">
<title>Adresseendringogoppbevaring</title>
<g>
	<path d="M76.2,26.3C61.7,26.3,50,38,50,52.5s11.7,26.2,26.2,26.2s26.2-11.7,26.2-26.2l0,0C102.4,38,90.6,26.3,76.2,26.3z
		 M76.2,65.8c-7.4,0-13.3-6-13.3-13.3c0-7.4,6-13.3,13.3-13.3c7.4,0,13.3,6,13.3,13.3c0,0,0,0,0,0C89.5,59.8,83.6,65.8,76.2,65.8z"
		/>
	<path d="M132.5,59c-0.4,0-0.7,0-1,0c0-0.4,0-0.8,0-1.1c0-31.9-25-57.8-55.8-57.8S19.9,26.1,19.9,57.9c0,3.1,0.6,8.4,0.7,9l0.2,1.1
		l0.1,0.1c1.1,6.4,3.2,12.5,6.3,18.2c12,21.9,34.2,64.2,40.7,76.6c1.4,2.8,4.3,4.5,7.4,4.5l0,0c3.1,0,5.9-1.7,7.4-4.4
		c2.5-4.7,7.2-13.4,12.6-23.4c10.3,19.1,25,47.1,29.8,56.1c1.4,2.6,4.1,4.3,7.1,4.3l0,0c3,0,5.7-1.6,7.1-4.3c5.9-11,25.8-48,34.3-63
		c2.7-4.7,4.6-9.8,5.6-15.1l0.1-0.4c0.1-1.1,0.9-6.6,0.9-9.2C179.9,81,158.6,59,132.5,59z M85.7,115.6l0.1,1.1l0.1,0.2
		c0.5,2.9,1.3,5.8,2.3,8.6c-4.9,9-9.5,17.6-12.9,24c-9.1-17.2-26.7-50.7-36.9-69.4c-2.5-4.7-4.2-9.7-5.1-15l0,0
		c-0.2-2-0.6-5.5-0.6-7.2C32.8,33.1,52,13,75.7,13s43,20.2,43,44.9c0,0.7-0.1,1.9-0.2,3.3C99.1,67.4,85.1,86,85.1,108
		C85.1,110.7,85.6,115.1,85.7,115.6z M166.3,115.4c-0.8,3.9-2.1,7.6-4.1,11c-7,12.4-21.8,39.9-30.1,55.3
		c-7.8-14.7-21.5-40.8-29.7-55.7c-2.1-3.8-3.4-7.8-4.1-12.1l0,0c-0.2-1.7-0.4-4.5-0.4-5.8c0-20,15.5-36.2,34.6-36.2
		s34.6,16.2,34.6,36.2C167.1,109.3,166.6,113,166.3,115.4z"/>
	<path d="M132.9,83c-14.5,0-26.2,11.7-26.2,26.2s11.7,26.2,26.2,26.2s26.2-11.7,26.2-26.2l0,0C159,94.7,147.3,83,132.9,83z
		 M132.9,122.5c-7.4,0-13.3-6-13.3-13.3s6-13.3,13.3-13.3s13.3,6,13.3,13.3c0,0,0,0,0,0C146.2,116.5,140.2,122.5,132.9,122.5
		L132.9,122.5z"/>
</g>
</svg>
