<svg id="ada2d0f2-93ad-4068-bdaf-05d228eff9d5" data-name="Export here" xmlns="http://www.w3.org/2000/svg" viewBox="0 0 200 200">
  <title>Adressevask</title>
  <path d="M195.9,187.35l-47.68-37.28-24.53-19.16L35.92,62.27l-.68-.52L11.36,43.08a4.94,4.94,0,0,0-6.94.77L1.33,47.71a4.94,4.94,0,0,0,.77,6.94L15.77,65.33l12,9.41L186.64,198.92a4.94,4.94,0,0,0,6.94-.77l3.09-3.86A4.94,4.94,0,0,0,195.9,187.35ZM99,56.81a34.37,34.37,0,0,1,26.38,56.63l7.44,5.8,4.2,3.3A49.18,49.18,0,1,0,59.56,62l11.64,9.1A34.36,34.36,0,0,1,99,56.81ZM34.81,185.19A24.65,24.65,0,0,1,59.5,160.5H70.86A19.72,19.72,0,0,1,77,161.8a65.37,65.37,0,0,0,39.53,1.11l-15.89-12.44c-.56,0-1.08.12-1.64.12a53.87,53.87,0,0,1-17.22-2.83,34,34,0,0,0-10.92-2.1H59.5A39.49,39.49,0,0,0,20,185.16v4.93A9.86,9.86,0,0,0,29.87,200H164l-19-14.81H34.81Z"/>
</svg>
