<svg id="bce1db26-61c4-492c-a851-2b983081095f" data-name="Export here" xmlns="http://www.w3.org/2000/svg" viewBox="0 0 200 200">
  <title>Alfakrøll</title>
  <path d="M178.39,114c0-42.52-34.31-69.9-77.39-69.9a77.39,77.39,0,1,0,45.9,139.69,3.73,3.73,0,0,0,.65-5.37l-4.75-5.8a3.75,3.75,0,0,0-5.12-.64A62.41,62.41,0,1,1,101,59c34.16,0,62.41,20.29,62.41,54.92,0,19.69-13.26,30.67-25.91,30.67-6.08,0-6.28-3.94-5.1-9.82l8.93-46.36A3.75,3.75,0,0,0,137.65,84H125.43a3.74,3.74,0,0,0-3.68,3A42.07,42.07,0,0,0,121,91.4c-3.72-6.1-11.2-9.69-20.35-9.69-22.34,0-42.13,19.5-42.13,47.7,0,19.09,10.26,31.86,29.08,31.86,9.3,0,19.14-5.25,24.88-13.18,1.3,9.63,8.9,11.87,18.53,11.87C162,160,178.39,140.1,178.39,114ZM92.92,144.33c-8.89,0-14.19-6.07-14.19-16.24,0-18,12.34-29.15,23.28-29.15,9.4,0,14.19,6.72,14.19,16.1C116.2,129.66,105.85,144.33,92.92,144.33Z"/>
</svg>
