<svg id="b190a59a-1af2-4b56-9259-7a4a40960166" data-name="Export here" xmlns="http://www.w3.org/2000/svg" viewBox="0 0 200 200">
  <title>API-EDI</title>
  <g>
    <path d="M189.62,165H11.14a8.52,8.52,0,0,1-8.5-8.5V40.5a8.51,8.51,0,0,1,8.5-8.5H189.62a8.51,8.51,0,0,1,8.5,8.5v116A8.51,8.51,0,0,1,189.62,165Zm-174-13H185.12V45H15.64Z"/>
    <path d="M151.71,186H120l-2.21-13.95a2,2,0,0,0-2-2H84.93a2,2,0,0,0-2,2L80.74,186H49.05a6.48,6.48,0,0,0,0,13H151.71a6.48,6.48,0,0,0,0-13Z"/>
    <path d="M127.32,87.13l-1.15,2a1.73,1.73,0,0,1-2.12.76,15.54,15.54,0,0,1-4.5-2.61,1.74,1.74,0,0,1-.39-2.2l1.15-2a12,12,0,0,1-2.23-3.84h-2.31a1.74,1.74,0,0,1-1.71-1.45,15.65,15.65,0,0,1,0-5.2,1.75,1.75,0,0,1,1.71-1.46h2.31a12,12,0,0,1,2.23-3.84l-1.15-2a1.72,1.72,0,0,1,.39-2.2,15.45,15.45,0,0,1,4.5-2.61,1.73,1.73,0,0,1,2.12.75l1.15,2a12.27,12.27,0,0,1,4.44,0l1.15-2a1.73,1.73,0,0,1,2.12-.75,15.32,15.32,0,0,1,4.5,2.61,1.74,1.74,0,0,1,.39,2.2l-1.15,2A12,12,0,0,1,141,71.13h2.31A1.73,1.73,0,0,1,145,72.58a15.39,15.39,0,0,1,0,5.2,1.74,1.74,0,0,1-1.71,1.46H141a12,12,0,0,1-2.23,3.84l1.15,2a1.72,1.72,0,0,1-.39,2.2,15.68,15.68,0,0,1-4.5,2.61,1.73,1.73,0,0,1-2.12-.76l-1.15-2A12.73,12.73,0,0,1,127.32,87.13Zm-1.47-8.25c5.39,4.15,11.55-2,7.4-7.4C127.85,67.32,121.7,73.49,125.85,78.88Zm-16.17,21.58,4.73,2.36a3.37,3.37,0,0,1,1.47,4.07c-1.25,3.4-3.7,6.51-6,9.23a3.34,3.34,0,0,1-4.25.74l-4.08-2.35a23.92,23.92,0,0,1-7.7,4.44v4.71A3.35,3.35,0,0,1,91.12,127a31.41,31.41,0,0,1-10.64,0,3.37,3.37,0,0,1-2.8-3.31V119a24.3,24.3,0,0,1-7.7-4.44l-4.08,2.34a3.37,3.37,0,0,1-4.25-.74c-2.27-2.72-4.66-5.84-5.91-9.22a3.37,3.37,0,0,1,1.47-4.07l4.67-2.36a24.16,24.16,0,0,1,0-8.89L57.21,89.2a3.32,3.32,0,0,1-1.47-4.06c1.25-3.4,3.64-6.51,5.91-9.23a3.37,3.37,0,0,1,4.25-.74L70,77.53a24,24,0,0,1,7.7-4.45V68.36a3.34,3.34,0,0,1,2.75-3.3,32,32,0,0,1,10.65,0,3.37,3.37,0,0,1,2.8,3.31v4.71a24.3,24.3,0,0,1,7.7,4.44l4.08-2.35a3.35,3.35,0,0,1,4.25.74,33,33,0,0,1,5.9,9.22,3.35,3.35,0,0,1-1.4,4.08l-4.73,2.36A24.21,24.21,0,0,1,109.68,100.46Zm-16.48,3c8.3-10.8-4-23.12-14.82-14.82C70.08,99.39,82.4,111.72,93.2,103.42ZM127.32,129l-1.15,2a1.73,1.73,0,0,1-2.12.75,15.52,15.52,0,0,1-4.5-2.6,1.76,1.76,0,0,1-.39-2.21l1.15-2a12,12,0,0,1-2.23-3.84h-2.31a1.73,1.73,0,0,1-1.71-1.45,15.65,15.65,0,0,1,0-5.2,1.74,1.74,0,0,1,1.71-1.45h2.31a12.06,12.06,0,0,1,2.23-3.85l-1.15-2a1.72,1.72,0,0,1,.39-2.2,15.68,15.68,0,0,1,4.5-2.61,1.73,1.73,0,0,1,2.12.76l1.15,2a12.73,12.73,0,0,1,4.44,0l1.15-2a1.73,1.73,0,0,1,2.12-.76,15.54,15.54,0,0,1,4.5,2.61,1.74,1.74,0,0,1,.39,2.2l-1.15,2A12.06,12.06,0,0,1,141,113h2.31a1.72,1.72,0,0,1,1.71,1.44,15.39,15.39,0,0,1,0,5.2,1.74,1.74,0,0,1-1.71,1.46H141a12,12,0,0,1-2.23,3.84l1.15,2a1.74,1.74,0,0,1-.39,2.21,15.65,15.65,0,0,1-4.5,2.6,1.73,1.73,0,0,1-2.12-.75l-1.15-2A12.27,12.27,0,0,1,127.32,129Zm-1.47-8.26c5.39,4.15,11.55-2,7.4-7.4-5.4-4.15-11.55,2-7.4,7.4Z"/>
  </g>
</svg>
