<svg id="Layer_1" data-name="Layer 1" xmlns="http://www.w3.org/2000/svg" viewBox="0 0 288.02 110.06"><defs><style>.cls-1{fill:none;}.cls-2{fill:#7bc144;}.cls-3{fill:#c1c1c1;}</style></defs><title>Artboard 71</title><path class="cls-1" d="M267.6,58.16c-7.3,0-8.8,3-8.8,12.9s1.5,12.6,8.8,12.6c8.4,0,10.7-2,10.7-12.6S276,58.16,267.6,58.16Z"/><path class="cls-1" d="M128.4,58.46c-8.4,0-10.8,2.3-10.8,12.9s2.4,12.9,10.8,12.9c7.3,0,8.8-3,8.8-12.9S135.7,58.46,128.4,58.46Z"/><path class="cls-2" d="M227.5,49.46c-6,0-9.8,1.9-12.2,4.1v-3.3h-8.5v42.2h9.8V72.76c0-7.4-.8-14.6,9.8-14.6,8.5,0,7.7,3.9,7.7,12v22.3h9.8V69.36C243.9,60.16,244.6,49.46,227.5,49.46Z"/><path class="cls-2" d="M130.6,49.46c-4.6,0-9.6.5-12.8,3.8V36.56H108v55.9h8.8v-3.4c2.6,2.3,6.6,4.1,12.2,4.1,16.9,0,18-11.4,18-21.8C147.1,58.56,145.1,49.46,130.6,49.46Zm-2.2,34.8c-8.4,0-10.8-2.3-10.8-12.9s2.4-12.9,10.8-12.9c7.3,0,8.8,3,8.8,12.9S135.7,84.26,128.4,84.26Z"/><path class="cls-2" d="M172.2,49.46c-4.9,0-8.8,1.6-11.6,4.5v-3.8h-8.5v42.2h9.8V74.06c0-3.3-.2-8,1-11,1-2.9,3.6-5,7.6-5s5.7.9,5.7,4.8h9.7C185.9,53.56,181.3,49.46,172.2,49.46Z"/><path class="cls-2" d="M279.2,50.16v3.3c-3.3-2.9-8.7-4.1-13.2-4.1-14.6,0-16.9,8.8-16.9,21.6,0,10.1,1,21.4,17,21.4,4.1,0,9.1-1,12.1-3.7a61,61,0,0,1-.2,7.4c-.5,4-4.6,5.7-10.2,5.7s-7.2-1.5-7.2-4.6H250c0,10.7,9.6,12.9,18.1,12.9,7.8,0,18-2.1,19.6-12.1a96.69,96.69,0,0,0,.3-10.1V50.16Zm-11.6,33.4c-7.3,0-8.8-2.7-8.8-12.6s1.5-12.9,8.8-12.9c8.4,0,10.7,2.3,10.7,12.9S276,83.56,267.6,83.56Z"/><rect class="cls-2" x="190.6" y="50.16" width="9.8" height="42.2"/><rect class="cls-2" x="190.6" y="36.56" width="9.8" height="9.8"/><path class="cls-3" d="M27.8,72.26A24,24,0,0,1,3.9,50.16H0a48,48,0,0,0,96,0H51.7A24,24,0,0,1,27.8,72.26Z"/><path class="cls-2" d="M48,.26A48,48,0,0,0,0,46.36H3.9a24,24,0,0,1,47.8,0H95.9A48,48,0,0,0,48,.26Z"/></svg>