<svg id="Layer_1" data-name="Layer 1" xmlns="http://www.w3.org/2000/svg" viewBox="0 0 30 30"><title>at</title><path d="M26.13,23.83a.26.26,0,0,0-.39-.1s-3.18,3.53-11.17,2.15c-5.84-1-9.48-6-8.92-12.61a10.33,10.33,0,0,1,9.8-9.63c6.72,0,9.19,5.2,9.09,8.31s-.76,4.7-2.17,6.1a6.3,6.3,0,0,1-5.46,1.68,5.11,5.11,0,0,1-4.6-4.08.16.16,0,0,1,0-.12.14.14,0,0,1,.11-.05l8.77.05a.58.58,0,0,0,.57-.5l0-.21a10.27,10.27,0,0,0-1.59-6.13A5.49,5.49,0,0,0,16,6.52a6.7,6.7,0,0,0-4.49,1.67,8.45,8.45,0,0,0-2.68,5.74c-.22,5.81,3.77,8.51,7.78,9.07a9.6,9.6,0,0,0,8.33-2.67,11.31,11.31,0,0,0,2.91-8.53A11.64,11.64,0,0,0,16.46.51C9.8.28,3,4.37,2.24,12.92c-.79,8.72,4,14.38,11.28,16,9.14,2,13.77-2.23,13.77-2.23a.32.32,0,0,0,.14-.18.34.34,0,0,0,0-.24ZM12.75,11.95a4.56,4.56,0,0,1,.91-1.41,2.93,2.93,0,0,1,2.05-.86A2.86,2.86,0,0,1,18,10.6a3.19,3.19,0,0,1,.57,1.46.17.17,0,0,1,0,.13.16.16,0,0,1-.12.06l-5.59,0a.14.14,0,0,1-.13-.08A.22.22,0,0,1,12.75,11.95Z"/></svg>