<svg id="Layer_1" data-name="Layer 1" xmlns="http://www.w3.org/2000/svg" xmlns:xlink="http://www.w3.org/1999/xlink" viewBox="0 0 30 30">
  <g>
    <path id="Fill-1" d="M19.51,20.15a.85.85,0,0,1-.72-.46,2.2,2.2,0,0,1,0-1.83.85.85,0,0,1,.74-.48H23.1a4.2,4.2,0,0,0,4.2-4.21s0-.05,0-.08a4.24,4.24,0,0,0-2.7-4,1.37,1.37,0,0,1-.87-1.15,3.91,3.91,0,0,0-3.89-3.45,4.51,4.51,0,0,0-1.51.24,1.31,1.31,0,0,1-1.42-.32,4.82,4.82,0,0,0-3.6-1.59A5.08,5.08,0,0,0,11,3.32,5.33,5.33,0,0,0,8.13,7.56,1.38,1.38,0,0,1,6.8,8.8a4.19,4.19,0,0,0-4.08,4.29,4.19,4.19,0,0,0,4.06,4.3h4.94a.83.83,0,0,1,.74.48,2.2,2.2,0,0,1,0,1.83.72.72,0,0,1-.75.46H6.78A7,7,0,0,1-.07,13.09a7,7,0,0,1,5.76-7A7.89,7.89,0,0,1,13.3,0a7.31,7.31,0,0,1,4.9,1.88l.41-.08a6.67,6.67,0,0,1,1.21-.11,6.6,6.6,0,0,1,6.38,5.14,7.07,7.07,0,0,1,3.74,6.27,7,7,0,0,1-6.86,7.06H19.51Z"/>
    <polygon id="Fill-4" points="14.53 11.85 14.53 23.19 10.18 23.19 15.69 30 21.09 23.19 16.72 23.19 16.72 11.85 14.53 11.85"/>
  </g>
  </svg>
