<svg id="Layer_1" data-name="Layer 1" xmlns="http://www.w3.org/2000/svg" viewBox="0 0 30 30"><title>avatar</title><g id="Icons"><g id="Ikoner"><path id="Page-1" d="M23.62,23.73a11.49,11.49,0,0,0-6.18-2.34,1.81,1.81,0,0,1-.34-1.07,1.84,1.84,0,0,1,.08-.53,7.57,7.57,0,0,0,2.35-4.37h.06a.29.29,0,0,0,.29-.28.47.47,0,0,1,.14-.34,2.44,2.44,0,0,0,.11-1.64c-.07-.29-.15-.34-.24-.27a7.3,7.3,0,0,0-.21-2.82c.12-.4.65-1,.46-1.62a3.54,3.54,0,0,0-2.23-1.7c-3.67-.83-5.15.24-5.33.43,0,0-2.09,1.15-2.12,5.78-.1-.14-.21-.17-.3.2a2.44,2.44,0,0,0,.11,1.64.46.46,0,0,1,.14.34.29.29,0,0,0,.29.28h.09a7.59,7.59,0,0,0,2.33,4.35,1.9,1.9,0,0,1,.08.54,1.81,1.81,0,0,1-.35,1.08,11.12,11.12,0,0,0-6.31,2.49,12.28,12.28,0,1,1,17.07-.15M15,0A15,15,0,1,0,30,15,15,15,0,0,0,15,0"/></g></g></svg>