<svg id="a2b7a7b6-8311-4c06-b581-cc57d3e78d4a" data-name="Export here" xmlns="http://www.w3.org/2000/svg" viewBox="0 0 200 200">
  <g>
    <g>
      <path d="M92.31,118.1l-11.85,3.12A23.11,23.11,0,0,1,94.4,110.79c10.65-2.82,23.42,2.15,25.77,10l10.54-3.15c-4-13.5-22.68-21.85-39.12-17.51a34.08,34.08,0,0,0-20.43,15.2l-3.34-12.2-9.64,2.64,5.43,19.88h0l2.55,9.67,28.73-7.57Z"/>
      <path d="M134.44,128.39l-9.59,2.84,0,.06-19.55,5.15,2.55,9.67,14.63-3.85A23.18,23.18,0,0,1,107,155.73c-10.79,2.85-22.57-2.4-25.74-11.46L70.9,147.9c4.16,11.9,16.66,19.62,30.06,19.62a34.54,34.54,0,0,0,8.86-1.15,34.1,34.1,0,0,0,20.77-15.76l3.49,11.8,9.59-2.84Z"/>
    </g>
    <path d="M122.61,26.51,115,37.07,152.52,64H49.14l35.4-26.53-7.79-10.4L28.07,63.54H28v127.8a8.89,8.89,0,0,0,8.88,8.88H164.57a8.89,8.89,0,0,0,8.88-8.88V63ZM160.13,186.9H41.34v-110H160.13Z"/>
  </g>
</svg>
