<svg id="a44a8717-c452-43aa-a750-54f696fbe70a" data-name="Export here" xmlns="http://www.w3.org/2000/svg" viewBox="0 0 200 200">
  <title>Avis</title>
  <path d="M189.62,58H32.11C27.62,58,24,62,24,66.81v2.94H10.38c-4.5,0-8.14,4-8.14,8.81V181.38c0,9.73,7.29,17.62,16.29,17.62H189.62c4.49,0,8.14-3.95,8.14-8.81V66.81C197.76,62,194.11,58,189.62,58ZM13.1,181.38V81.5H24v99.88a5.68,5.68,0,0,1-5.43,5.87A5.68,5.68,0,0,1,13.1,181.38Zm173.8,5.87h-153a18.82,18.82,0,0,0,.93-5.87V69.75H186.9ZM49.76,152h57a4.25,4.25,0,0,0,4.07-4.41V85.91a4.25,4.25,0,0,0-4.07-4.41h-57a4.25,4.25,0,0,0-4.07,4.41v61.68A4.25,4.25,0,0,0,49.76,152Zm6.79-58.75H100v47H56.55ZM45.69,171.09v-2.93a4.25,4.25,0,0,1,4.07-4.41h57a4.25,4.25,0,0,1,4.07,4.41v2.93a4.25,4.25,0,0,1-4.07,4.41h-57A4.25,4.25,0,0,1,45.69,171.09Zm76,0v-2.93a4.25,4.25,0,0,1,4.07-4.41H172a4.25,4.25,0,0,1,4.07,4.41v2.93A4.25,4.25,0,0,1,172,175.5H125.8A4.25,4.25,0,0,1,121.73,171.09Zm0-23.5v-2.93a4.25,4.25,0,0,1,4.07-4.41H172a4.25,4.25,0,0,1,4.07,4.41v2.93A4.25,4.25,0,0,1,172,152H125.8A4.25,4.25,0,0,1,121.73,147.59Zm0-47V97.66a4.25,4.25,0,0,1,4.07-4.41H172A4.25,4.25,0,0,1,176,97.66v2.93A4.25,4.25,0,0,1,172,105H125.8A4.25,4.25,0,0,1,121.73,100.59Zm0,23.5v-2.93a4.25,4.25,0,0,1,4.07-4.41H172a4.25,4.25,0,0,1,4.07,4.41v2.93A4.25,4.25,0,0,1,172,128.5H125.8A4.25,4.25,0,0,1,121.73,124.09Z"/>
</svg>
