<svg id="94f2f360-24d5-4bd9-993e-65ae74c4c07a" data-name="Layer 1" xmlns="http://www.w3.org/2000/svg" viewBox="0 0 200 200">
  <defs>
    <style>
      .abbceab8-b3e0-4def-828b-ca5be21c0ee0 {
        fill: none;
      }

      .\31 1ed5bc1-6830-4618-a8a0-3e99e65ce8eb {
        fill: #76777a;
      }
    </style>
  </defs>
  <title>Bankogfinans</title>
  <g>
    <path class="abbceab8-b3e0-4def-828b-ca5be21c0ee0" d="M138,116h0l-.37-.88a5.5,5.5,0,0,1-.43-1c-.28-.64-.57-1.28-.87-1.91v0a40,40,0,0,0-2.85-5.21l-.05-.06c-.27-.43-.56-.87-.87-1.33-.13-.21-.27-.41-.41-.61l-.65-.92-.11-.15c-.86-1.18-1.77-2.33-2.74-3.43l-1.73-2L129.14,80,112.2,87.8l-2.4-1A51.7,51.7,0,0,0,38,134.36c0,9,4.41,18.79,12.08,27,1.61,1.71,1.62,2.22,1.66,8.42,0,2.63,0,6.14.06,9.65,0,2.86,0,5.72,0,8.1H64.86l6.57-11.82,4.47,1.21a52.62,52.62,0,0,0,26.26.37l4.3-1,.2.76L113,187.89h12.73v-.4h.07V176.7h0l0-11.74,1.77-1.72A47.22,47.22,0,0,0,139,146.34l.61-1.63h0l22.1-8.07V123.72c-2.26-.55-23.25-6.51-23.25-6.51Z"/>
    <path class="11ed5bc1-6830-4618-a8a0-3e99e65ce8eb" d="M88.33,65.94a23.41,23.41,0,1,0-23.4-23.4A23.43,23.43,0,0,0,88.33,65.94Zm0-35A11.59,11.59,0,1,1,76.75,42.54,11.6,11.6,0,0,1,88.33,31Z"/>
    <path class="11ed5bc1-6830-4618-a8a0-3e99e65ce8eb" d="M169,113.3c-8.2-1.93-17.81-4.36-21.72-5.58a63.76,63.76,0,0,0-8-13l2.59-21.23a7.37,7.37,0,0,0-10.39-7.59l-19.51,9a63.52,63.52,0,0,0-85.79,59.46c0,11.28,5,23.31,13.72,33.33.05,4.91.1,17.48.13,25.73l0,5.89h31.8l5.53-9.95a64,64,0,0,0,23.12.29l5.37,9.66h31.82V169.9a59.38,59.38,0,0,0,11.27-16.65l19.53-6.38a7.35,7.35,0,0,0,5.08-7V114.38Zm-7.27,23.34-22.1,8.07h0l-.61,1.63a47.22,47.22,0,0,1-11.39,16.91L125.84,165l0,11.74h0v10.79h-.07v.4H113L106.66,177l-.2-.76-4.3,1a52.62,52.62,0,0,1-26.26-.37l-4.47-1.21-6.57,11.82H51.8c0-2.38,0-5.24,0-8.1,0-3.51,0-7-.06-9.65,0-6.2-.05-6.71-1.66-8.42-7.67-8.17-12.08-18-12.08-27A51.7,51.7,0,0,1,109.8,86.78l2.4,1L129.14,80l-2.26,18.46,1.73,2c1,1.1,1.88,2.25,2.74,3.43l.11.15.65.92c.14.2.28.4.41.61.31.46.6.9.87,1.33l.05.06a40,40,0,0,1,2.85,5.21v0c.3.63.59,1.27.87,1.91a5.5,5.5,0,0,0,.43,1l.37.88h0l.49,1.17s21,6,23.25,6.51Z"/>
  </g>
</svg>
