<svg id="a79ad60b-9903-4562-8a6e-356479e5cce8" data-name="Layer 1" xmlns="http://www.w3.org/2000/svg" viewBox="0 0 200 200">
  <title>Billetter</title>
  <g>
    <rect class="9ff49d01-c9e4-47b4-823c-f219b056dc5e" x="56.04" y="85.17" width="13.27" height="9"/>
    <rect class="9ff49d01-c9e4-47b4-823c-f219b056dc5e" x="74.95" y="85.17" width="13.27" height="9"/>
    <rect class="9ff49d01-c9e4-47b4-823c-f219b056dc5e" x="93.86" y="85.17" width="13.27" height="9"/>
    <rect class="9ff49d01-c9e4-47b4-823c-f219b056dc5e" x="112.77" y="85.17" width="13.27" height="9"/>
    <rect class="9ff49d01-c9e4-47b4-823c-f219b056dc5e" x="131.68" y="85.17" width="13.27" height="9"/>
    <path class="9ff49d01-c9e4-47b4-823c-f219b056dc5e" d="M161.87,199.91H131.28l-1.12-5.12a30.83,30.83,0,0,0-60.23,0l-1.12,5.12H38.22V24.71H68.83L70,29.79a30.83,30.83,0,0,0,60.15,0l1.14-5.08h30.61Zm-20.46-13h7.46V37.71h-7.52a43.85,43.85,0,0,1-82.6,0H51.22v149.2h7.46a43.83,43.83,0,0,1,82.73,0Z"/>
  </g>
</svg>
