<svg id="Layer_1" data-name="Layer 1" xmlns="http://www.w3.org/2000/svg" viewBox="0 0 30 30"><title>bin</title><path d="M26.94,4.91H21.51C21.19,2.17,18.38,0,15,0S8.81,2.17,8.49,4.91H3.06a.79.79,0,0,0-.83.7v4.72a.78.78,0,0,0,.83.7h.83a.29.29,0,0,1,.26.19L5.3,29.3a.78.78,0,0,0,.83.7H23.81a.78.78,0,0,0,.83-.7l1.21-18.06c0-.13.13-.19.26-.19h.83a.78.78,0,0,0,.83-.7V5.62A.79.79,0,0,0,26.94,4.91ZM15,2.55a3.27,3.27,0,0,1,3.38,2.36H11.62A3.27,3.27,0,0,1,15,2.55ZM12.57,26.94H9.51V11.81h3.06Zm7.92,0H17.43V11.81h3.06Z"/></svg>