<svg id="Layer_1" data-name="Layer 1" xmlns="http://www.w3.org/2000/svg" viewBox="0 0 30 30"><title>Icons</title><path d="M12.72,17.72l3.47-3.53L13.56,11.6l-3.7,3.64a4.61,4.61,0,0,0,0,6.57,4.77,4.77,0,0,0,6.68,0l9.55-9.16a7.34,7.34,0,0,0,0-10.55A7.61,7.61,0,0,0,20.7-.11l0,0a7.84,7.84,0,0,0-5.38,2.21L4.74,12.27a10.18,10.18,0,0,0,0,14.56,10.61,10.61,0,0,0,14.82,0l4.77-4.69L21.7,19.56,17.27,23.8l-.34.49a6.84,6.84,0,0,1-9.55,0,6.56,6.56,0,0,1,0-9.27L18,4.69a4,4,0,0,1,5.5,0,3.76,3.76,0,0,1,0,5.29l-9.55,9.27a1.08,1.08,0,0,1-1.45,0,1,1,0,0,1,0-1.43Z"/></svg>