<svg id="ad517500-c947-4ba4-9745-1092b1d1a536" data-name="Export here" xmlns="http://www.w3.org/2000/svg" viewBox="0 0 200 200">
  <title>Blandede formater</title>
  <g>
    <path d="M187.5,186.5H138.44v-13H183v-83H67V96H54V86a8.51,8.51,0,0,1,8.5-8.5h125A8.51,8.51,0,0,1,196,86v92A8.51,8.51,0,0,1,187.5,186.5Z"/>
    <path d="M39,96H26V44a8.51,8.51,0,0,1,8.5-8.5h125A8.51,8.51,0,0,1,168,44V71H155V48.5H39Z"/>
    <rect x="145" y="103" width="26" height="26"/>
    <path d="M130,103H5a2,2,0,0,0-2,2v92a2,2,0,0,0,2,2H130a2,2,0,0,0,2-2V105A2,2,0,0,0,130,103Zm-11,13v7.94L67.51,159.57,16,123.28V116ZM16,186V139.18l46.48,32.75a8.74,8.74,0,0,0,10,0L119,139.75V186Z"/>
  </g>
</svg>
