<svg data-name="Bring" xmlns="http://www.w3.org/2000/svg" viewBox="0 0 200 200">
  <title>Bud</title>
  <g>
    <g>
      <path class="2f15ca86-624a-4b4b-9ecc-8ffb611b23b6" d="M101.29,102.32a41.59,41.59,0,0,0,41.54-41.53V51.05H129.6v9.74a28.31,28.31,0,0,1-56.62,0v-9H59.75v9A41.59,41.59,0,0,0,101.29,102.32Z"/>
      <path class="2f15ca86-624a-4b4b-9ecc-8ffb611b23b6" d="M101.29,1.44A41.59,41.59,0,0,1,142.83,43v9.73H129.6V43A28.31,28.31,0,1,0,73,43v9H59.75V43A41.59,41.59,0,0,1,101.29,1.44Z"/>
      <rect class="2f15ca86-624a-4b4b-9ecc-8ffb611b23b6" x="59.95" y="40.66" width="82.68" height="13.23"/>
    </g>
    <path class="2f15ca86-624a-4b4b-9ecc-8ffb611b23b6" d="M32.58,147.52A36.42,36.42,0,0,1,69,111.14H132.9a36.42,36.42,0,0,1,36.38,36.38v52.92H32.58Zm123.48,0a23.18,23.18,0,0,0-23.16-23.15H69a23.18,23.18,0,0,0-23.15,23.15v39.69H156.06Z"/>
    <path class="2f15ca86-624a-4b4b-9ecc-8ffb611b23b6" d="M136.14,53.82c.71-.1,1.44-.21,2.18-.35l29.6-4.19-2.7-12.75S144.4,39.26,135,40.32c-2.28.26-3.87.42-4.33.41"/>
  </g>
</svg>
