<svg id="ad4aed93-65c6-49f3-93b5-1094a6598f6c" data-name="Bring" xmlns="http://www.w3.org/2000/svg" viewBox="0 0 310 200">
  <title>Budirute</title>
  <g>
    <rect class="2e25684d-57dd-4bcf-a8f4-549d6ecb0f3f" x="0.79" y="77.56" width="51.28" height="13.32"/>
    <rect class="2e25684d-57dd-4bcf-a8f4-549d6ecb0f3f" x="16.38" y="99.77" width="35.69" height="13.32"/>
    <rect class="2e25684d-57dd-4bcf-a8f4-549d6ecb0f3f" x="31.98" y="121.97" width="20.09" height="13.32"/>
    <path class="2e25684d-57dd-4bcf-a8f4-549d6ecb0f3f" d="M288.07,123.42l-28-8.52L222.63,79.63,222,79.1a8.85,8.85,0,0,0-5.25-1.72H70.24a8.9,8.9,0,0,0-8.88,8.89v99.06h38.88a23.79,23.79,0,0,0,43.65-.21h86.29a23.78,23.78,0,0,0,43.64.21h25.83a8.89,8.89,0,0,0,8.88-8.88V151A28.7,28.7,0,0,0,288.07,123.42ZM122,186.23a10.48,10.48,0,1,1,10.47-10.48A10.49,10.49,0,0,1,122,186.23Zm130,0a10.48,10.48,0,1,1,10.47-10.48A10.48,10.48,0,0,1,252.05,186.23ZM295.21,172H275.55a23.79,23.79,0,0,0-47-.22H145.48a23.79,23.79,0,0,0-47,.22H74.68V90.71H215l36.88,34.76.63.53a8.85,8.85,0,0,0,2.66,1.33l29.05,8.84a15.45,15.45,0,0,1,11,14.86Z"/>
  </g>
</svg>
