<svg id="Layer_1" data-name="Layer 1" xmlns="http://www.w3.org/2000/svg" viewBox="0 0 30 30"><title>camera</title><path d="M14.73.15h0s.07,0,.1,0Z"/><path d="M29.07,7.51H26a.63.63,0,0,1-.49-.33L22,.48a.58.58,0,0,0-.49-.33H14.73a.67.67,0,0,0-.38.3l-3.53,6.7a.53.53,0,0,1-.49.33H5A5.58,5.58,0,0,0-.59,13V29.34a.33.33,0,0,0,.34.33H29.07a.33.33,0,0,0,.34-.33V7.84A.31.31,0,0,0,29.07,7.51Zm-24,7.4a1.85,1.85,0,1,1,0-3.7,1.85,1.85,0,1,1,0,3.7ZM18.25,26a7.4,7.4,0,1,1,7.51-7.4A7.48,7.48,0,0,1,18.25,26Z"/><path d="M18.25,14.91A3.7,3.7,0,1,0,22,18.61,3.74,3.74,0,0,0,18.25,14.91Z"/></svg>