<svg id="e07dd8bb-7acb-472b-b4a6-8ade1743506c" data-name="Export here" xmlns="http://www.w3.org/2000/svg" viewBox="0 0 200 200">
  <title>Chatbot</title>
  <g>
    <path d="M177.47,83.17a15.11,15.11,0,0,0-14.64-15.08,34.64,34.64,0,0,0-34.21-29.28H105.25v-8a14.86,14.86,0,1,0-11-.28v8.27H71.61a34.62,34.62,0,0,0-34.2,29.26,15.09,15.09,0,0,0-.36,30.18A34.61,34.61,0,0,0,71.61,131h57a34.62,34.62,0,0,0,34.57-32.77A15.1,15.1,0,0,0,177.47,83.17Zm-144,0a4.09,4.09,0,0,1,3.57-4v8.1A4.09,4.09,0,0,1,33.42,83.17ZM100.12,13a3.88,3.88,0,1,1-3.88,3.88A3.88,3.88,0,0,1,100.12,13Zm50.12,83.39A21.64,21.64,0,0,1,128.62,118h-57A21.64,21.64,0,0,1,50,96.39v-23A21.65,21.65,0,0,1,71.61,51.81h57a21.65,21.65,0,0,1,21.62,21.62Zm13-9.21v-8a4.1,4.1,0,0,1,0,8Z"/>
    <circle cx="80.64" cy="77.36" r="6.5"/>
    <circle cx="120" cy="78" r="6.5"/>
    <path d="M113.28,139H87a34.62,34.62,0,0,0-34.62,34.61v25.92h95.55V173.61A34.62,34.62,0,0,0,113.28,139Zm21.61,47.53H65.34V173.61A21.64,21.64,0,0,1,87,152h26.32a21.64,21.64,0,0,1,21.61,21.61Z"/>
  </g>
</svg>
