<svg id="b61b30ca-4b67-4738-82db-1014ff7d798d" data-name="Layer 1" xmlns="http://www.w3.org/2000/svg" viewBox="0 0 200 200">
  <defs>
    <style>
      .\33 ec0e259-4c8a-4a01-87a8-e6d2a6aca75f {
        fill: #76777a;
      }
    </style>
  </defs>
  <title>Digitaltfrimerke</title>
  <g>
    <polygon class="3ec0e259-4c8a-4a01-87a8-e6d2a6aca75f" points="79.54 91.19 79.54 102.01 76 102.01 76 103.74 85.02 103.74 85.02 102.01 81.45 102.01 81.45 88.76 79.7 88.76 75.68 92.33 76.92 93.64 79.54 91.19"/>
    <path class="3ec0e259-4c8a-4a01-87a8-e6d2a6aca75f" d="M103.76,102H96.08v-1.39c0-2.22.83-2.16,3.3-3s4.4-1.44,4.4-4.63c0-1.68-.38-2.78-1.25-3.45a5.94,5.94,0,0,0-3.62-.92c-2.78,0-4.71.74-4.71,3.57h1.9c0-1.42.79-1.82,2.86-1.82,2.31,0,2.89.67,2.89,2.62s-1.08,2.3-2.76,2.83c-2.51.81-4.94,1-4.94,4.38v3.55h9.61Z"/>
    <path class="3ec0e259-4c8a-4a01-87a8-e6d2a6aca75f" d="M115,99.61h6.26l1.53,4.13h2.18l-5.77-15h-2l-5.8,15h2.09Zm3.14-8.44,2.49,6.71h-5Z"/>
    <path class="3ec0e259-4c8a-4a01-87a8-e6d2a6aca75f" d="M81.58,125.89h1.88v-4h2.18v-1.73H83.46v-9.2H81.64l-6.58,9.29v1.64h6.52Zm-4.36-5.78,4.36-6.31v6.31Z"/>
    <path class="3ec0e259-4c8a-4a01-87a8-e6d2a6aca75f" d="M99.3,126.06c3.48,0,5.42-1,5.42-4.19h-1.94c0,1.81-.74,2.35-3.66,2.35-3.77,0-3.9-1.52-3.9-5.81s.13-5.84,3.9-5.84c2.92,0,3.66.58,3.66,2.38h1.94c0-3.21-1.91-4.2-5.39-4.2-6.07,0-6.11,3.14-6.11,7.63S93.24,126.06,99.3,126.06Z"/>
    <path class="3ec0e259-4c8a-4a01-87a8-e6d2a6aca75f" d="M123,114.81c0-3.1-1.5-4.06-4.83-4.06-2.85,0-4.89.74-4.89,3.57h1.93c0-1.35.85-1.82,3-1.82,2.38,0,2.92.52,2.92,2.36,0,2.09-.88,2.38-2.92,2.38h-2.18V119h2.18c2.58,0,3.06.34,3.06,2.65,0,2.16-1,2.67-3,2.67s-2.92-.49-2.92-1.84h-1.93c0,3,2.2,3.59,4.83,3.59,3.19,0,5-1,5-4.58,0-1.55-.15-2.85-1.63-3.43C122.77,117.42,123,116.21,123,114.81Z"/>
    <path class="3ec0e259-4c8a-4a01-87a8-e6d2a6aca75f" d="M80.25,132.89c-3.32,0-4.83,1.6-4.83,4.92,0,3.64,1.37,5,4.74,5a4.29,4.29,0,0,0,3.17-1.21c-.07,4.33-1,4.85-3.17,4.85-1.8,0-2.58-.52-2.58-1.82H75.69c0,2.69,2,3.57,4.49,3.57,2.7,0,4.38-.92,4.81-3.19a31.46,31.46,0,0,0,.29-5.1,14.3,14.3,0,0,0-.49-4.42C84.14,133.75,82.43,132.89,80.25,132.89Zm-.2,8.18c-2,0-2.72-.68-2.72-3.28,0-2.38.76-3.15,2.94-3.15s3,.88,3,3.26C83.26,140.06,82.25,141.07,80.05,141.07Z"/>
    <path class="3ec0e259-4c8a-4a01-87a8-e6d2a6aca75f" d="M99.38,141.9c2.47-.83,4.4-1.44,4.4-4.63,0-1.68-.38-2.78-1.25-3.46a5.94,5.94,0,0,0-3.62-.92c-2.78,0-4.71.74-4.71,3.57h1.9c0-1.41.79-1.82,2.86-1.82,2.31,0,2.89.68,2.89,2.63s-1.08,2.29-2.76,2.83c-2.51.81-4.94,1-4.94,4.38V148h9.61V146.3H96.08v-1.39C96.08,142.68,96.91,142.75,99.38,141.9Z"/>
    <path class="3ec0e259-4c8a-4a01-87a8-e6d2a6aca75f" d="M122.1,140.3c1.1-.47,1.5-1.77,1.5-3.48,0-4-2.83-3.77-5.82-3.77H112.6v15h5.32c2.83,0,5.79.13,5.79-4.31C123.71,142.19,123.44,140.91,122.1,140.3Zm-7.53-5.45h3.06c2.65,0,4-.16,4,2.29s-1.48,2.31-3.84,2.31h-3.21Zm3.17,11.38h-3.17v-5h3.17c2.72,0,4-.16,4,2.51S120.19,146.23,117.74,146.23Z"/>
    <path class="3ec0e259-4c8a-4a01-87a8-e6d2a6aca75f" d="M141.17,57.2H58.83V176.8h82.34Zm-9,110.6H67.83V66.2h64.34Z"/>
    <path class="3ec0e259-4c8a-4a01-87a8-e6d2a6aca75f" d="M163.82,50.1V34.91h-11.9a10.6,10.6,0,0,1-19.62,0h-9.09a10.59,10.59,0,0,1-19.61,0H95.46a10.6,10.6,0,0,1-19.62,0H67.7a10.6,10.6,0,0,1-19.62,0H36.18V50.34a10.58,10.58,0,0,1,0,19.07v8.74a10.58,10.58,0,0,1,0,19.07v10.63a10.58,10.58,0,0,1,0,19.08v9.68a10.58,10.58,0,0,1,0,19.07v9.68a10.58,10.58,0,0,1,0,19.08v14.65h11.9a10.6,10.6,0,0,1,19.62,0h8.14a10.6,10.6,0,0,1,19.62,0h8.14a10.59,10.59,0,0,1,19.61,0h9.09a10.6,10.6,0,0,1,19.62,0h11.9V184.68a10.6,10.6,0,0,1,0-19.55v-9.21a10.6,10.6,0,0,1,0-19.55v-9.21a10.6,10.6,0,0,1,0-19.55V97.46a10.6,10.6,0,0,1,0-19.55V69.65a10.6,10.6,0,0,1,0-19.55Zm-13,135H49.18V48.91H150.82Z"/>
  </g>
</svg>
