<svg id="08bfb29c-2311-4440-84c1-9ebc8399f1ad" data-name="Bring" xmlns="http://www.w3.org/2000/svg" viewBox="0 0 200 200">
  <defs>
    <style>
      .\32 d9999e3-78f8-4ada-98df-f41a62bb0790 {
        fill: #73787c;
      }
    </style>
  </defs>
  <title>EkspressFly</title>
  <g>
    <path class="2d9999e3-78f8-4ada-98df-f41a62bb0790" d="M152.36,195c-.25,0-.49,0-.74,0a7.71,7.71,0,0,1-5.66-3.35l-.22-.35-37.25-64.1,10.37-6,34.4,59.18,4.24-4.25-18.8-83,11.7-2.65,19.32,85.27a7.72,7.72,0,0,1-2.06,7.18l-9.85,9.85A7.7,7.7,0,0,1,152.36,195ZM158,178.37a.29.29,0,0,0,0,.09Z"/>
    <path class="2d9999e3-78f8-4ada-98df-f41a62bb0790" d="M82.79,199.5a10.74,10.74,0,0,1-8.88-4.77l-.07-.09L53.67,163.81,22.75,143.58a10.67,10.67,0,0,1-4-12.79c1.91-4.79,6.9-7.42,12.44-6.56l31.09,4L148.57,42a18.87,18.87,0,0,1,26.67,0l.47.47a18.89,18.89,0,0,1,0,26.67L89.22,155.61l4,30.69c.85,5.55-1.78,10.54-6.56,12.45A10.77,10.77,0,0,1,82.79,199.5Zm-48.6-62.78,28.15,18.43,18.42,28.14-4.21-32L79,148.9l88.27-88.27a6.86,6.86,0,0,0,0-9.69l-.47-.47a6.87,6.87,0,0,0-9.7,0L66.57,141Z"/>
    <path class="2d9999e3-78f8-4ada-98df-f41a62bb0790" d="M90.47,109.18,26.19,71.82,26,71.7a7.72,7.72,0,0,1-1.13-11.84L34.75,50A7.76,7.76,0,0,1,42,48l85.2,19.3L124.55,79l-83-18.81L37.32,64.4,96.5,98.8ZM39.27,59.64l.09,0Z"/>
  </g>
</svg>
