<?xml version="1.0" encoding="utf-8"?>
<!-- Generator: Adobe Illustrator 22.1.0, SVG Export Plug-In . SVG Version: 6.00 Build 0)  -->
<svg version="1.1" id="e5dec6ba-f19a-43ac-a524-5ad6aa7eb295"
	 xmlns="http://www.w3.org/2000/svg" xmlns:xlink="http://www.w3.org/1999/xlink" x="0px" y="0px" viewBox="0 0 200 200"
	 style="enable-background:new 0 0 200 200;" xml:space="preserve">
<title>Ekspressnestedag</title>
<g>
	<path d="M99.6,199.5c-41.4,0-74.9-33.6-74.9-74.9s33.6-74.9,74.9-74.9s74.9,33.6,74.9,74.9C174.5,165.9,141,199.5,99.6,199.5z
		 M99.6,62.9c-34,0-61.6,27.6-61.6,61.6c0,34,27.6,61.6,61.6,61.6s61.6-27.6,61.6-61.6c0,0,0,0,0,0C161.2,90.5,133.6,63,99.6,62.9z"
		/>
	<polygon points="95.3,82 95.3,129 63.3,129 63.3,140 95.3,140 106.3,140 106.3,129 106.3,82 	"/>
</g>
</svg>
