<?xml version="1.0" encoding="utf-8"?>
<!-- Generator: Adobe Illustrator 22.1.0, SVG Export Plug-In . SVG Version: 6.00 Build 0)  -->
<svg version="1.1" id="_x34_3e0412f-5887-46b5-9f5c-0e6616ea412f"
	 xmlns="http://www.w3.org/2000/svg" xmlns:xlink="http://www.w3.org/1999/xlink" x="0px" y="0px" viewBox="0 0 200 200"
	 style="enable-background:new 0 0 200 200;" xml:space="preserve">
<title>Ekspress</title>
<g>
	<g>
		<path d="M125.4,199.5c-41.4,0-74.9-33.6-74.9-74.9S84,49.6,125.4,49.6s74.9,33.6,74.9,74.9C200.3,165.9,166.8,199.5,125.4,199.5z
			 M125.4,62.9c-34,0-61.6,27.6-61.6,61.6c0,34,27.6,61.6,61.6,61.6s61.6-27.6,61.6-61.6c0,0,0,0,0,0C187,90.5,159.4,63,125.4,62.9z
			"/>
		<polygon points="125.1,82 125.1,129 93.1,129 93.1,140 121.1,140 136.1,140 136.1,129 136.1,82 		"/>
	</g>
	<g>
		<rect x="-0.1" y="103.8" width="43.9" height="12.7"/>
		<rect x="14.8" y="125" width="29" height="12.7"/>
		<rect x="29.7" y="146.2" width="14.1" height="12.7"/>
	</g>
</g>
</svg>
