<svg width="80" height="80" viewBox="0 0 80 80" fill="none" xmlns="http://www.w3.org/2000/svg">
<path d="M40 80.0005C34.0666 80.0005 28.2664 78.241 23.3329 74.9445C18.3994 71.6481 14.5542 66.9628 12.2836 61.481C10.013 55.9992 9.4189 49.9672 10.5765 44.1477C11.734 38.3283 14.5912 32.9828 18.7868 28.7873C22.9824 24.5917 28.3279 21.7344 34.1473 20.5769C39.9667 19.4193 45.9987 20.0135 51.4805 22.2841C56.9623 24.5547 61.6476 28.3999 64.9441 33.3333C68.2405 38.2668 70 44.067 70 50.0005C69.991 57.9542 66.8274 65.5796 61.2033 71.2037C55.5792 76.8278 47.9537 79.9915 40 80.0005ZM40 25.3335C35.1213 25.3335 30.3522 26.7802 26.2958 29.4906C22.2393 32.2011 19.0777 36.0535 17.2107 40.5608C15.3437 45.0681 14.8552 50.0278 15.807 54.8128C16.7587 59.5977 19.1081 63.9929 22.5578 67.4427C26.0076 70.8924 30.4028 73.2417 35.1877 74.1935C39.9727 75.1453 44.9323 74.6568 49.4397 72.7898C53.947 70.9228 57.7994 67.7612 60.5099 63.7047C63.2203 59.6483 64.667 54.8791 64.667 50.0005C64.6596 43.4606 62.0584 37.1908 57.434 32.5664C52.8097 27.9421 46.5398 25.3409 40 25.3335Z" fill="black"/>
<path d="M38.1999 33.0355V51.6505H25.5259V56.0074H42.5559V33.0355H38.1999Z" fill="black"/>
</svg>
