<?xml version="1.0" encoding="utf-8"?>
<svg id="be66a251-be69-489d-b85f-adece140f61e" data-name="Export here" xmlns="http://www.w3.org/2000/svg" viewBox="0 0 200 200">
  <title>Faktura</title>
  <g>
    <rect x="63.06" y="136" width="72.94" height="13" />
    <path d="M36,29a2,2,0,0,0-2,2V197.54a2,2,0,0,0,2,2H160a2,2,0,0,0,2-2V63h-.16l.12-.13L126,29m17.16,34H126l.12-16.1ZM149,186.54H47V42h66.15L113,62.9,112.9,76H149Z" />
    <rect x="63.06" y="161" width="72.94" height="13" />
    <path d="M102,108.69a14.74,14.74,0,0,0,4.16-3l6.12,6.53a21.44,21.44,0,0,1-7,5,19.85,19.85,0,0,1-16.5.13,18.16,18.16,0,0,1-6.38-4.82,17.18,17.18,0,0,1-3.57-7.12H74.47V102h3.82a12.73,12.73,0,0,1-.05-1.28,11.11,11.11,0,0,1,.05-1.17H74.47V96H78.8a16.94,16.94,0,0,1,3.67-7A18.39,18.39,0,0,1,89,84.28a20.94,20.94,0,0,1,8.47-1.7,20.57,20.57,0,0,1,8.08,1.7,19.4,19.4,0,0,1,6.71,4.62l-6.12,7.24a13.33,13.33,0,0,0-4-3.44,9.15,9.15,0,0,0-4.51-1.3,8.22,8.22,0,0,0-4.44,1.25A8.36,8.36,0,0,0,90.12,96h10.56v3.47H89.16a7,7,0,0,0-.06,1.07c0,.3,0,.76.11,1.38h11.47v3.46H90.28a8.32,8.32,0,0,0,3.06,3.22,8.12,8.12,0,0,0,4.28,1.17A10,10,0,0,0,102,108.69Z" />
  </g>
</svg>