<svg id="e8469477-9150-41a0-bb69-8852aac8b340" data-name="Export here" xmlns="http://www.w3.org/2000/svg" viewBox="0 0 200 200">
  <title>Farlig gods</title>
  <g>
    <path d="M99,199.91a8.46,8.46,0,0,1-6-2.49L10.7,115.13a8.52,8.52,0,0,1,0-12L93,20.82a8.5,8.5,0,0,1,12,0l82.29,82.29a8.52,8.52,0,0,1,0,12L105,197.42A8.46,8.46,0,0,1,99,199.91ZM23.07,109.12,99,185l75.93-75.92L99,33.19Z"/>
    <path d="M100,76c-18.23,0-33,12.93-33,28.88,0,9,4.76,17.09,12.18,22.39a4,4,0,0,1,1.74,3.85l-1.21,8.53a2,2,0,0,0,2,2.35h10v-7.22a1,1,0,0,1,1-1h2.06a1,1,0,0,1,1,1V142h8.24v-7.22a1,1,0,0,1,1-1h2.06a1,1,0,0,1,1,1V142h10a2,2,0,0,0,2-2.35l-1.21-8.53a4,4,0,0,1,1.74-3.85C128.24,122,133,113.91,133,104.88,133,88.93,118.23,76,100,76ZM87.62,117.25A8.25,8.25,0,1,1,95.88,109,8.25,8.25,0,0,1,87.62,117.25Zm24.76,0a8.25,8.25,0,1,1,8.24-8.25A8.26,8.26,0,0,1,112.38,117.25Z"/>
  </g>
</svg>
