<svg id="78001118-82e4-4813-b7e5-02f1b7e9ab11" data-name="Bring" xmlns="http://www.w3.org/2000/svg" viewBox="0 0 200 200">
  <title>Flytransport</title>
  <g>
    <path class="017e7a63-8851-40c8-a608-6e1b91a9f2d5" d="M152.28,195.58a6.56,6.56,0,0,1-.76,0,7.82,7.82,0,0,1-5.76-3.42l-.23-.37L110,130.4l10.79-6.25,32.49,56.09,3.42-3.4L138.87,97.71,151,95l18.36,81.58a7.88,7.88,0,0,1-2.12,7.32l-9.44,9.41A7.79,7.79,0,0,1,152.28,195.58Zm4.94-16.32,0,.1Z"/>
    <path class="017e7a63-8851-40c8-a608-6e1b91a9f2d5" d="M85.74,199.76a10.78,10.78,0,0,1-8.9-4.79L53.53,160,19.37,137.34a10.71,10.71,0,0,1-4.07-12.87c1.92-4.79,6.91-7.42,12.44-6.56l29.47,3.88L135.3,43.93a24.78,24.78,0,0,1,35,0,25.4,25.4,0,0,1,0,35.94L92.47,157.47l3.78,29.12c.84,5.53-1.8,10.51-6.59,12.42A10.78,10.78,0,0,1,85.74,199.76ZM32.5,131.1l30,19.94,20.56,30.82L79.32,153l82.13-81.89a13,13,0,0,0,0-18.31,12.29,12.29,0,0,0-17.37,0L61.67,135Z"/>
    <path class="017e7a63-8851-40c8-a608-6e1b91a9f2d5" d="M84.14,104.51,22.7,68.68l-.17-.12a7.86,7.86,0,0,1-1.14-12.08l9.44-9.41A7.81,7.81,0,0,1,38.23,45l81.45,18.57-2.77,12.15-79.07-18-3.42,3.4,56,32.66ZM35.39,57.12l.09,0Z"/>
  </g>
</svg>
