<svg data-name="Layer 1" xmlns="http://www.w3.org/2000/svg" viewBox="0 0 200 200">
  <defs>
    <style>
      .abf7c1c6-dcee-4eb5-a7e4-c5afe38b138c {
        fill: none;
      }
    </style>
  </defs>
  <title>Frimerkertilsamling</title>
  <g>
    <path class="abf7c1c6-dcee-4eb5-a7e4-c5afe38b138c" d="M118.05,132.63c0-.2,0-.39,0-.59h30.25V51.5H97.41V95.66c1.2.75,2.37,1.55,3.51,2.43a43.81,43.81,0,0,1,16.78,29.28A46.61,46.61,0,0,1,118.05,132.63Z"/>
    <path class="abf7c1c6-dcee-4eb5-a7e4-c5afe38b138c" d="M93,108.37a30.86,30.86,0,0,0-19-6.49,31.86,31.86,0,0,0-4,.25A31.1,31.1,0,1,0,98.56,152h0A31.13,31.13,0,0,0,93,108.37Z"/>
    <path class="abf7c1c6-dcee-4eb5-a7e4-c5afe38b138c" d="M82.28,89.67l-1.17-.2a44.35,44.35,0,0,1,8.73,2.39v-48h66v95.82H117.54a44.64,44.64,0,0,1-1.33,6h46.23V37.89H82.28Z"/>
    <path class="0ccecac5-a5a0-4460-8115-f00ebc4d1995" d="M177.34,34.16v-13H167.18a9,9,0,0,1-16.75,0h-7.75a9,9,0,0,1-16.75,0H119a9,9,0,0,1-16.75,0H95.29a9,9,0,0,1-16.75,0H68.38V34.36a9,9,0,0,1,0,16.29V58.1a9,9,0,0,1,0,16.29v9.07a9.06,9.06,0,0,1,4.7,5.44.19.19,0,0,1,.1,0,44.07,44.07,0,0,0-31.35,74.25L22.31,188.43a2,2,0,0,0,.36,2.81l10.72,8.28a2,2,0,0,0,2.8-.36l20-25.83a44.15,44.15,0,0,0,52.7-13.39h0a46.13,46.13,0,0,0,3.24-4.82c-.13.22-.25.46-.39.68a9.05,9.05,0,0,1,7.29,5.55h6.94a9,9,0,0,1,16.75,0h7.75a9,9,0,0,1,16.75,0h10.16V149a9,9,0,0,1,0-16.69v-7.86a9,9,0,0,1,0-16.69V100a9,9,0,0,1,0-16.69V74.59a9,9,0,0,1,0-16.69v-7a9,9,0,0,1,0-16.69ZM98.56,152h0A31.09,31.09,0,1,1,70,102.13a31.86,31.86,0,0,1,4-.25A31.09,31.09,0,0,1,98.56,152Zm2.36-53.9c-1.14-.88-2.31-1.68-3.51-2.43V51.5h50.9V132H118.06c0,.2,0,.39,0,.59a46.61,46.61,0,0,0-.35-5.26A43.81,43.81,0,0,0,100.92,98.09Zm61.52,47.55H116.21a44.64,44.64,0,0,0,1.33-6h38.34V43.86h-66v48a44.35,44.35,0,0,0-8.73-2.39l1.17.2V37.89h80.16Z"/>
  </g>
</svg>
