<svg id="04ce0099-46e3-4249-82e4-0f36547e1002" data-name="Layer 1" xmlns="http://www.w3.org/2000/svg" viewBox="0 0 200 200">
  <title>Frimerker</title>
  <g>
    <path class="8595a495-9015-4c72-bccd-f5782b1d98d6" d="M159.74,177.74H40.14V95.39h119.6Zm-110.6-9h101.6V104.39H49.14Z"/>
    <path class="8595a495-9015-4c72-bccd-f5782b1d98d6" d="M42,193.88a10.59,10.59,0,0,1,9.77,6.5H61a10.6,10.6,0,0,1,19.55,0h9.21a10.6,10.6,0,0,1,19.55,0h10.15a10.6,10.6,0,0,1,19.55,0h8.26a10.6,10.6,0,0,1,19.55,0H182v-11.9a10.6,10.6,0,0,1,0-19.62v-9.08a10.6,10.6,0,0,1,0-19.62V132a10.6,10.6,0,0,1,0-19.62v-8.14a10.59,10.59,0,0,1,0-19.61V72.74H166.6a10.58,10.58,0,0,1-19.07,0h-8.74a10.58,10.58,0,0,1-19.07,0H109.09a10.58,10.58,0,0,1-19.08,0H80.33a10.58,10.58,0,0,1-19.07,0H51.58a10.58,10.58,0,0,1-19.08,0H17.85V84.65a10.59,10.59,0,0,1,0,19.61v8.14a10.6,10.6,0,0,1,0,19.62v8.14a10.6,10.6,0,0,1,0,19.62v9.08a10.6,10.6,0,0,1,0,19.62v11.9H32.26A10.61,10.61,0,0,1,42,193.88Zm-10.19-6.5V85.74H168V187.38Z"/>
  </g>
</svg>
