<?xml version="1.0" encoding="utf-8"?>
<!-- Generator: Adobe Illustrator 22.1.0, SVG Export Plug-In . SVG Version: 6.00 Build 0)  -->
<svg version="1.1" id="f9efddf3-9564-4122-82dc-8e5756fcb9ea"
	 xmlns="http://www.w3.org/2000/svg" xmlns:xlink="http://www.w3.org/1999/xlink" x="0px" y="0px" viewBox="0 0 310 200"
	 style="enable-background:new 0 0 310 200;" xml:space="preserve">
<title>Godstransport</title>
<path d="M297.3,99.6c-1.2-3.6-4.6-6-8.4-6h-42.1v-4.4c0-4.9-4-8.9-8.9-8.9H9.3c-4.9,0-8.9,4-8.9,8.9v93.3h43.7
	c1.5,11.3,12,19.2,23.3,17.7c9.2-1.3,16.4-8.5,17.7-17.7h7.7c1.5,11.3,12,19.2,23.3,17.7c9.2-1.3,16.4-8.5,17.7-17.7h41.9
	c1.5,11.3,12,19.2,23.3,17.7c9.2-1.3,16.4-8.5,17.7-17.7h28.9c1.5,11.3,12,19.2,23.3,17.7c9.2-1.3,16.4-8.5,17.7-17.7H300
	c4.9,0,8.9-4,8.9-8.9v-40L297.3,99.6z M13.8,93.6h219.7v75.5h-19.4c-5.7-9.9-18.3-13.3-28.2-7.6c-3.2,1.8-5.8,4.4-7.6,7.6h-47
	c-5.7-9.9-18.4-13.3-28.2-7.6c-3.2,1.8-5.8,4.4-7.6,7.6H82.6c-5.7-9.9-18.4-13.3-28.2-7.6c-3.2,1.8-5.8,4.4-7.6,7.6h-33L13.8,93.6z
	 M64.6,186.9c-4.1,0-7.4-3.3-7.4-7.4c0-4.1,3.3-7.4,7.4-7.4s7.4,3.3,7.4,7.4l0,0C72,183.6,68.7,186.9,64.6,186.9z M113.3,186.9
	c-4.1,0-7.4-3.3-7.4-7.4c0-4.1,3.3-7.4,7.4-7.4c4.1,0,7.4,3.3,7.4,7.4c0,0,0,0,0,0C120.7,183.6,117.4,186.9,113.3,186.9z
	 M196.2,186.9c-4.1,0-7.4-3.3-7.4-7.4s3.3-7.4,7.4-7.4c4.1,0,7.4,3.3,7.4,7.4v0C203.6,183.6,200.3,186.9,196.2,186.9z M266,186.9
	c-4.1,0-7.4-3.3-7.4-7.4c0-4.1,3.3-7.4,7.4-7.4c4.1,0,7.4,3.3,7.4,7.4v0C273.4,183.6,270.1,186.9,266,186.9z M295.6,169.1H284
	c-5.7-9.9-18.4-13.3-28.2-7.6c-3.2,1.8-5.8,4.4-7.6,7.6h-1.4V107h38.9l9.9,28.9V169.1z"/>
</svg>
