<svg id="a6bb80e5-4a4a-48e4-86cf-c6cbad35f4d1" data-name="Export here" xmlns="http://www.w3.org/2000/svg" viewBox="0 0 200 200">
  <title>Handlekurv</title>
  <path d="M143.94,77.27a42.67,42.67,0,0,0-85.32,0H29.5V167.6a32.22,32.22,0,0,0,32.36,32h79.28a32.22,32.22,0,0,0,32.36-32V77.27ZM101.28,48.53a29.71,29.71,0,0,1,29.66,28.74H71.62A29.71,29.71,0,0,1,101.28,48.53ZM160.5,167.6a19.2,19.2,0,0,1-19.36,19H61.86a19.2,19.2,0,0,1-19.36-19V90.27H58.6V106a6.5,6.5,0,0,0,13,0V90.27H131V106a6.5,6.5,0,0,0,13,0V90.27H160.5Z"/>
</svg>
