<svg id="922e3423-d323-40ef-9325-3b24f34ed120" data-name="Bring" xmlns="http://www.w3.org/2000/svg" viewBox="0 0 200 200">
  <title>Hentested</title>
  <g>
    <rect class="4505ce7b-a29b-4597-a72e-5db1ff4ff4e1" x="62.35" y="186.34" width="76.24" height="13.26"/>
    <path class="4505ce7b-a29b-4597-a72e-5db1ff4ff4e1" d="M99.6,170.76h0a8.13,8.13,0,0,1-7-4c-11.49-19.5-49-84.66-49-110.22a56,56,0,0,1,111.91,0c0,25.56-37.48,90.72-49,110.22A8.15,8.15,0,0,1,99.6,170.76Zm0-157.53A43.38,43.38,0,0,0,56.28,56.55c0,16.73,22.52,61.09,43.33,97.11,20.8-36,43.32-80.38,43.32-97.11A43.38,43.38,0,0,0,99.6,13.23Z"/>
    <path class="4505ce7b-a29b-4597-a72e-5db1ff4ff4e1" d="M99.6,79.66a25.52,25.52,0,1,1,25.52-25.51A25.54,25.54,0,0,1,99.6,79.66Zm0-38.39a12.88,12.88,0,1,0,12.88,12.88A12.9,12.9,0,0,0,99.6,41.27Z"/>
  </g>
</svg>
