<svg id="8783227a-25af-40c6-bd53-41263caa910c" data-name="Layer 1" xmlns="http://www.w3.org/2000/svg" viewBox="0 0 200 200">
  <defs>
    <style>
      .\39 5d42845-2f81-4472-9098-7c086929b503 {
        fill: #76777a;
      }
    </style>
  </defs>
  <title>Henteipostkassen</title>
  <g>
    <rect class="95d42845-2f81-4472-9098-7c086929b503" x="64.94" y="111.57" width="46.94" height="15.65"/>
    <path class="95d42845-2f81-4472-9098-7c086929b503" d="M174.92,41,109.45.55,96.26,21.2H36.85A8.08,8.08,0,0,0,29,31.05l3.68,30.08-6.7,14V191.26a8.2,8.2,0,0,0,8.2,8.19H142.67a8.19,8.19,0,0,0,8.19-8.19V76.46Zm-14.64,2.62L145.92,64.8l0-.08-7.22,10.43H74.76l38.92-60.77ZM88,34.21,75.25,54.09H44.9L42.47,34.21ZM44.15,67.09H66.94l-5.15,8.06h-.17l.34-.36H40.38Zm93.71,119.36H39V87.79h98.9Z"/>
  </g>
</svg>
