<?xml version="1.0" encoding="utf-8"?>
<!-- Generator: Adobe Illustrator 22.1.0, SVG Export Plug-In . SVG Version: 6.00 Build 0)  -->
<svg version="1.1"
	 xmlns="http://www.w3.org/2000/svg" xmlns:xlink="http://www.w3.org/1999/xlink" x="0px" y="0px" viewBox="0 0 200 200"
	 style="enable-background:new 0 0 200 200;" xml:space="preserve">
<style type="text/css">
	.hvordan-motta-0{fill:none;}
</style>
<title>Hvordanmottapost</title>
<path class="hvordan-motta-0" d="M99.4,61.8L99.4,61.8c6.6,0,12-5.4,12-12c0-6.6-5.4-12-12-12c-6.6,0-12,5.4-12,12
	C87.4,56.5,92.8,61.8,99.4,61.8z"/>
<path class="hvordan-motta-0" d="M64.2,75.6c8.1,14.9,21.3,39.8,30.3,56.9h8c9.6-17.8,23.6-43.8,30.7-56.3c2.2-4,3.8-8.3,4.7-12.7
	c0.4-2.7,0.8-7,0.8-8.5c0-23-17.9-41.7-39.9-41.7C76.9,13.3,59,32,59,55c0,1.6,0.3,4.8,0.5,6.7C60.3,66.6,61.9,71.3,64.2,75.6z
	 M99.4,24.8c13.8,0,25,11.2,25,25c0,13.8-11.2,25-25,25c-13.8,0-25-11.2-25-25C74.4,36,85.6,24.8,99.4,24.8z"/>
<path class="hvordan-motta-0" d="M97,150.9c-0.1-0.1-0.1-0.2-0.2-0.3c-6-11.3-27-51.3-38.3-72c-0.3-0.6-0.7-1.2-1-1.9c0.3,0.6,0.6,1.3,1,1.9
	c11.3,20.7,32.3,60.7,38.3,72C96.9,150.8,96.9,150.9,97,150.9z"/>
<path class="hvordan-motta-0" d="M138.9,79.3c-9.7,17.2-32.5,59.7-38.8,71.4c-0.2,0.3-0.5,0.6-0.8,0.8c-0.8,0.4-1.7,0.1-2.2-0.5
	c0.2,0.2,0.4,0.4,0.6,0.5c0.9,0.5,2,0.1,2.4-0.8C106.4,139,129.2,96.5,138.9,79.3c2.6-4.6,4.5-9.6,5.5-14.8c0,0,0.9-6.9,0.9-9.5
	c0-6.7-1.3-13-3.7-18.8c2.3,5.8,3.6,12.1,3.6,18.8c0,2.6-0.9,9.5-0.9,9.5C143.3,69.6,141.5,74.7,138.9,79.3z"/>
<path class="hvordan-motta-0" d="M131.5,145.4h-21.3l-4.5,8.3c-1.4,2.7-4.3,4.4-7.3,4.4c-3.1,0-5.9-1.7-7.3-4.5c-1.1-2-2.5-4.9-4.4-8.3H68.2
	l30.5,24L131.5,145.4z"/>
<path class="hvordan-motta-0" d="M104.1,181.6c-1.5,1.3-3.5,2-5.5,2h-0.4c-2-0.1-4-0.9-5.5-2.3l-41.2-32.3l-18.2,38.4l132.7,0l-18-37.8
	L104.1,181.6z"/>
<path d="M181.3,189.1l-0.1-0.2l-24.5-51.5c-1.3-3-4.3-5-7.5-5h-31.9c9.3-17.2,21-38.8,27.3-49.9c3-5.2,5-10.9,6.2-16.8l0.1-0.4
	c0.2-1.2,1-7.4,1-10.3c0-30.1-23.8-54.7-52.9-54.7S46,24.8,46,54.9c0,2.9,0.6,7.9,0.6,8.5l0.1,1.2l0.1,0.1c1.1,6,3.1,11.8,6,17.1
	c7.1,13.1,18.3,34.2,27,50.6H50.2c-3.3,0-6.3,2-7.6,5l-24.4,51.2l-0.2,0.5c-0.9,2.5-0.6,5.2,0.9,7.4c1.8,2.5,4.7,3.9,7.8,3.8h147.8
	c2.3,0,4.4-1.2,5.6-3.1C181.9,194.8,182.3,191.8,181.3,189.1z M98.9,13.3c22,0,39.9,18.7,39.9,41.7c0,1.5-0.5,5.8-0.8,8.5
	c-0.9,4.5-2.5,8.8-4.7,12.7c-7.1,12.6-21.1,38.5-30.7,56.3h-8c-9-17.1-22.2-42-30.3-56.9c-2.4-4.3-3.9-9-4.7-13.9
	C59.3,59.8,59,56.5,59,55C59,32,76.9,13.3,98.9,13.3z M86.7,145.4c1.8,3.4,3.3,6.3,4.4,8.3c1.4,2.7,4.3,4.5,7.3,4.5
	c3.1,0,5.9-1.7,7.3-4.4l4.5-8.3h21.3l-32.8,24l-30.5-24H86.7z M33.3,187.3l18.2-38.4l41.2,32.3c1.5,1.4,3.4,2.2,5.5,2.3h0.4
	c2,0,3.9-0.7,5.5-2l43.9-32.1l18,37.8L33.3,187.3z"/>
<path d="M99.4,74.8c13.8,0,25-11.2,25-25c0-13.8-11.2-25-25-25c-13.8,0-25,11.2-25,25C74.4,63.6,85.6,74.8,99.4,74.8z M99.4,37.8
	c6.6,0,12,5.4,12,12c0,6.6-5.4,12-12,12l0,0c-6.6,0-12-5.4-12-12C87.4,43.2,92.8,37.8,99.4,37.8z"/>
</svg>
