<svg id="bd476409-790f-45c5-ba23-d151dd12ef55" data-name="Export here" xmlns="http://www.w3.org/2000/svg" viewBox="0 0 200 200">
  <title>Internett</title>
  <g>
    <circle cx="60.38" cy="66.35" r="6.44"/>
    <circle cx="42.38" cy="66.35" r="6.44"/>
    <circle cx="25.38" cy="66.35" r="6.44"/>
    <path d="M112.09,125.84C110.1,113.6,105.41,105,100,105s-10.15,8.6-12.14,20.84ZM86.8,139a85.31,85.31,0,0,0,.45,8.77h25.4a85.68,85.68,0,0,0,0-17.54H87.25A85.31,85.31,0,0,0,86.8,139Zm44.51-13.16a34,34,0,0,0-21.66-19.41c3.34,4.63,5.65,11.61,6.85,19.41ZM90.25,106.43A34,34,0,0,0,68.6,125.84H83.41c1.19-7.8,3.5-14.78,6.84-19.41Zm42.53,23.8H117.05a83.83,83.83,0,0,1,0,17.54h15.71a33.44,33.44,0,0,0,1.18-8.77,34.29,34.29,0,0,0-1.16-8.77ZM82.41,139a87.57,87.57,0,0,1,.45-8.77H67.14a33.18,33.18,0,0,0,0,17.54H82.85C82.57,144.9,82.41,142,82.41,139Zm5.41,13.16C89.81,164.4,94.5,173,100,173s10.14-8.6,12.13-20.84Zm21.84,19.41a34.07,34.07,0,0,0,21.66-19.41h-14.8C115.31,160,113,166.94,109.66,171.57ZM68.6,152.16a34,34,0,0,0,21.66,19.41c-3.34-4.63-5.64-11.61-6.85-19.41Z"/>
    <path d="M0,42V191.5A8.51,8.51,0,0,0,8.5,200h182a8.51,8.51,0,0,0,8.5-8.5V42ZM186,55V78.5H13V55ZM13,187V91.5H186V187Z"/>
  </g>
</svg>
