<svg id="96ea5823-f43e-4fa6-bfcb-8d351bf3c271" data-name="Bring" xmlns="http://www.w3.org/2000/svg" viewBox="0 0 200 200">
  <defs>
    <style>
      .\30 9b2a4c1-879d-4726-b744-e5edbf11995f {
        fill: #73787c;
      }
    </style>
  </defs>
  <title>Internasjonalt</title>
  <path class="09b2a4c1-879d-4726-b744-e5edbf11995f" d="M129.52,193.27h0a75.09,75.09,0,0,0,32.21-26.81c1.35-2,2.6-4.06,3.75-6.18.58-1.06,1.13-2.14,1.66-3.23,1.05-2.18,2-4.43,2.84-6.72a75,75,0,0,0-40.46-94.48h0a74.58,74.58,0,0,0-24-6h0c-1.95-.15-3.91-.25-5.9-.25s-4,.1-5.9.25h0a74.51,74.51,0,0,0-24,6h0a74.95,74.95,0,0,0,0,137.42h0a74.51,74.51,0,0,0,24,6h0c2,.15,3.91.25,5.9.25s4-.1,5.9-.25h0A74.58,74.58,0,0,0,129.52,193.27Zm-51.86-39.6h43.86a70.17,70.17,0,0,1-21.93,26.92A70.08,70.08,0,0,1,77.66,153.67Zm-6.4-29.11a69.51,69.51,0,0,1,1.9-16.11H126a69.25,69.25,0,0,1,0,32.22H73.16A69.51,69.51,0,0,1,71.26,124.56Zm28.33-56a70.17,70.17,0,0,1,21.93,26.92H77.66A70.08,70.08,0,0,1,99.59,68.53Zm15.52,116a82.77,82.77,0,0,0,20.52-30.86h18.61A62.18,62.18,0,0,1,115.11,184.53Zm44.28-43.86H139.33a82.41,82.41,0,0,0,0-32.22h20.06a61.71,61.71,0,0,1,0,32.22Zm-5.15-45.22H135.63a82.77,82.77,0,0,0-20.52-30.86A62.18,62.18,0,0,1,154.24,95.45ZM84.07,64.59A82.77,82.77,0,0,0,63.55,95.45H44.94A62.18,62.18,0,0,1,84.07,64.59ZM39.79,108.45H59.84a82.92,82.92,0,0,0,0,32.22H39.79a61.71,61.71,0,0,1,0-32.22Zm5.15,45.22H63.55a82.77,82.77,0,0,0,20.52,30.86A62.18,62.18,0,0,1,44.94,153.67Z"/>
</svg>
