<?xml version="1.0" encoding="utf-8"?>
<!-- Generator: Adobe Illustrator 22.1.0, SVG Export Plug-In . SVG Version: 6.00 Build 0)  -->
<svg version="1.1" id="_x32_c29ed91-72b3-4a92-8980-c0131d22477c"
	 xmlns="http://www.w3.org/2000/svg" xmlns:xlink="http://www.w3.org/1999/xlink" x="0px" y="0px" viewBox="0 0 200 200"
	 style="enable-background:new 0 0 200 200;" xml:space="preserve">
<title>jul</title>
<path d="M139.7,57c2.2-1.3,4.2-2.9,6.1-4.6c6-5.5,7.1-14,3-21.7s-13.9-14.5-25.5-11.6c-9.2,2.3-16.5,11.3-21.7,26.8l-0.1,0.2
	C94,17.5,83.9,10.1,70.7,8.6C64,7.8,56.4,11.1,51.3,17C46,23.1,44,31.4,46,39.2c1.5,6,7,11.7,17,17.8H12.8v36.6
	c0,4.6,3.8,8.4,8.4,8.4h5v89.4c0,4.7,3.8,8.6,8.6,8.6h131.9c4.7,0,8.6-3.8,8.6-8.6V102h4.2c4.6,0,8.4-3.8,8.4-8.4V57H139.7z
	 M174.7,89h-64.1V70h64.1L174.7,89z M126.4,31.8c0.7-0.2,1.4-0.3,2.1-0.3c3.7,0.1,7,2.2,8.8,5.4c0.9,1.7,1.6,4.1-0.4,5.9
	c-5.6,5.1-16.2,10.4-24.8,14.1h-0.2C114.9,45.4,120.2,33.3,126.4,31.8L126.4,31.8z M58.7,36c-1-3.7-0.1-7.6,2.4-10.4
	c2.4-2.7,5.6-4,7.7-4c0.2,0,0.3,0,0.5,0c5.4,0.6,14.1,1.6,21.4,34.8C72.3,48.8,59.7,40.3,58.7,36z M25.8,89V70h64.3l0.6,0.2V89H25.8
	z M39.1,102h51.5v85H39.1V102z M162.1,187h-51.5v-85h51.5V187z"/>
</svg>
