<svg id="ebcfd1c8-af88-4628-af0b-4039e6c3b5ff" data-name="Export here" xmlns="http://www.w3.org/2000/svg" viewBox="0 0 200 200">
  <title>Lager</title>
  <path d="M130,146.78V113.09a20,20,0,0,0-1.63-7.87L103.91,48.09A15,15,0,0,0,90.09,39H45A15,15,0,0,0,30,54V89H15A15,15,0,0,0,0,104v65a30,30,0,0,0,60,0H80a30,30,0,1,0,50-22.22ZM45,54H90.09l24.5,57.13a4.72,4.72,0,0,1,.41,2V114H76.91a12.56,12.56,0,0,1-7.72-2.66L45,92.31ZM30,184a15,15,0,1,1,15-15A15,15,0,0,1,30,184Zm54.16-30H55.84A29.55,29.55,0,0,0,15,143.16V104H35.59l24.35,19.13a27.68,27.68,0,0,0,17,5.87H115v10.5a29.32,29.32,0,0,0-5-.5A29.85,29.85,0,0,0,84.16,154ZM110,184a15,15,0,1,1,15-15A15,15,0,0,1,110,184Zm85-20H165V44a5,5,0,0,0-5-5h-5a5,5,0,0,0-5,5V174a5,5,0,0,0,5,5h40a5,5,0,0,0,5-5v-5A5,5,0,0,0,195,164Z"/>
</svg>
