<svg id="b81f6680-a296-49e2-8e02-14801f3d4c05" data-name="Export here" xmlns="http://www.w3.org/2000/svg" viewBox="0 0 200 200">
  <title>Legitimasjon</title>
  <path d="M170.55,69H30.38a14,14,0,0,0-14,14v102.8a14,14,0,0,0,14,14H170.55a14,14,0,0,0,14-14V83A14,14,0,0,0,170.55,69Zm0,116.82H30.38V83H170.55ZM77.1,134.42a18.69,18.69,0,1,0-18.69-18.69A18.71,18.71,0,0,0,77.1,134.42ZM50.93,171.8h52.34c3.62,0,6.54-2.51,6.54-5.61v-5.61c0-9.28-8.79-16.82-19.63-16.82-3.15,0-5.46,2.34-13.08,2.34-7.85,0-9.75-2.34-13.08-2.34-10.84,0-19.63,7.54-19.63,16.82v5.61C44.39,169.29,47.31,171.8,50.93,171.8Zm70.56-18.69H154.2a2.35,2.35,0,0,0,2.34-2.34V146.1a2.35,2.35,0,0,0-2.34-2.34H121.49a2.35,2.35,0,0,0-2.34,2.34v4.67A2.35,2.35,0,0,0,121.49,153.11Zm0-18.69H154.2a2.35,2.35,0,0,0,2.34-2.34v-4.67a2.35,2.35,0,0,0-2.34-2.34H121.49a2.35,2.35,0,0,0-2.34,2.34v4.67A2.35,2.35,0,0,0,121.49,134.42Zm0-18.69H154.2a2.36,2.36,0,0,0,2.34-2.34v-4.67a2.35,2.35,0,0,0-2.34-2.34H121.49a2.35,2.35,0,0,0-2.34,2.34v4.67A2.36,2.36,0,0,0,121.49,115.73Z"/>
</svg>
