<svg xmlns:xlink="http://www.w3.org/1999/xlink" xmlns="http://www.w3.org/2000/svg" viewBox="0 0 135 51" version="1.1"><title>Page 1</title><desc>Created with Sketch.</desc><defs></defs><g id="Page-1" stroke="none" stroke-width="1" fill="none" fill-rule="evenodd"><g id="Slider-Copy" transform="translate(-116.000000, -13.000000)"><g id="bring-logo-svg" transform="translate(116.000000, 13.000000)"><path class="logo-part-1" d="M89.1741549,21.285773 L93.7552817,21.285773 L93.7552817,16.7624172 L89.1741549,16.7624172 L89.1741549,21.285773 Z M89.1741549,42.571546 L93.7552817,42.571546 L93.7552817,23.0595092 L89.1741549,23.0595092 L89.1741549,42.571546 Z M125.193803,38.4890429 C121.789014,38.4890429 121.098803,37.2468957 121.098803,32.6844294 C121.098803,28.1203988 121.789014,26.7189939 125.193803,26.7189939 C129.126866,26.7189939 130.181514,27.8009448 130.181514,32.6844294 C130.181514,37.5672883 129.126866,38.4890429 125.193803,38.4890429 L125.193803,38.4890429 Z M130.585563,23.0591963 L130.585563,24.5979571 C129.047324,23.2378528 126.533028,22.7162761 124.424049,22.7162761 C117.61257,22.7162761 116.518627,26.7596687 116.518627,32.6844294 C116.518627,37.3682945 116.965141,42.571546 124.464613,42.571546 C126.369824,42.571546 128.721232,42.1310061 130.140634,40.8494356 C130.140634,41.8506626 130.181514,43.2595767 130.060775,44.2601779 C129.816127,46.101184 127.910915,46.9015399 125.275563,46.9015399 C122.721021,46.9015399 121.913556,46.1903558 121.913556,44.7889509 L116.924261,44.7889509 C116.924261,49.7540982 121.423944,50.7453129 125.396303,50.7453129 C129.047324,50.7453129 133.830634,49.7847607 134.560458,45.1409448 C134.722394,44.0593067 134.722394,42.2915153 134.722394,40.4899325 L134.722394,23.0591963 L130.585563,23.0591963 Z M106.417394,22.7162761 C103.620423,22.7162761 101.836901,23.5970429 100.70081,24.5979571 L100.70081,23.0591963 L96.7278169,23.0591963 L96.7278169,42.571546 L101.308627,42.571546 L101.308627,33.4844724 C101.308627,30.0824908 100.944507,26.7189939 105.89007,26.7189939 C109.864965,26.7189939 109.498944,28.5208896 109.498944,32.2836258 L109.498944,42.571546 L114.081021,42.571546 L114.081021,31.923184 C114.081021,27.6807975 114.405528,22.7162761 106.417394,22.7162761 L106.417394,22.7162761 Z M80.5718662,22.7162761 C78.2597535,22.7162761 76.4359859,23.4371595 75.1379577,24.7991411 L75.1379577,23.0591963 L71.1655986,23.0591963 L71.1655986,42.571546 L75.7467254,42.571546 L75.7467254,34.0852086 C75.7467254,32.5642822 75.6659155,30.4025706 76.1938732,29.0014785 C76.6790493,27.6807975 77.8557042,26.6798834 79.7609155,26.6798834 C81.6673944,26.6798834 82.4228873,27.0800613 82.4228873,28.8816442 L86.9773944,28.8816442 C86.9773944,24.5979571 84.8294366,22.7162761 80.5718662,22.7162761 L80.5718662,22.7162761 Z M60.0756338,38.8088098 C56.1422535,38.8088098 55.0067958,37.7281104 55.0067958,32.8446258 C55.0067958,27.9592638 56.1422535,26.8795031 60.0756338,26.8795031 C63.4810563,26.8795031 64.2102465,28.2805951 64.2102465,32.8446258 C64.2102465,37.4080307 63.4810563,38.8088098 60.0756338,38.8088098 L60.0756338,38.8088098 Z M61.0884507,22.7162761 C58.9401761,22.7162761 56.5878169,22.9571963 55.0879225,24.4787485 L55.0879225,16.7492761 L50.5067958,16.7492761 L50.5067958,42.571546 L54.6410915,42.571546 L54.6410915,41.0102577 C55.8576761,42.0900184 57.7242254,42.8906871 60.3589437,42.8906871 C68.2643662,42.8906871 68.7907394,37.6076503 68.7907394,32.8446258 C68.7907394,26.9195521 67.8593662,22.7162761 61.0884507,22.7162761 L61.0884507,22.7162761 Z" id="Fill-1" fill="#7bc144"></path><path class="logo-part-2" d="M13.0027817,33.2588834 C7.10397887,33.2588834 2.27123239,28.7671288 1.81299296,23.0595092 L0,23.0595092 C0.472183099,34.8936994 10.3328873,44.3455951 22.4347183,44.3455951 C30.3846419,44.3455951 37.3678694,40.2662716 41.3574284,34.1120908 C43.4406875,30.8985142 44.707664,27.119187 44.8697535,23.0595092 L24.1922535,23.0595092 C23.7340141,28.7671288 18.9012676,33.2588834 13.0027817,33.2588834 Z" id="Fill-3" fill="#C1C1C1"></path><path class="logo-part-3" d="M1.81299296,21.2854601 C2.27123239,15.5778405 7.10397887,11.0860859 13.0027817,11.0860859 C18.9012676,11.0860859 23.7340141,15.5778405 24.1922535,21.2854601 L44.8697535,21.2854601 C44.3969366,9.45126994 34.5359155,0 22.4347183,0 C10.3332042,0 0.4725,9.45126994 0,21.2854601 L1.81299296,21.2854601" id="Fill-4" fill="#7bc144"></path></g></g></g></svg>
