<?xml version="1.0" encoding="UTF-8"?>
<svg width="515px" height="158px" viewBox="0 0 515 158" version="1.1" xmlns="http://www.w3.org/2000/svg" xmlns:xlink="http://www.w3.org/1999/xlink">
    <!-- Generator: Sketch 47 (45396) - http://www.bohemiancoding.com/sketch -->
    <title>Posten_priRGBneg</title>
    <desc>Created with Sketch.</desc>
    <defs></defs>
    <g id="Page-1" stroke="none" stroke-width="1" fill="none" fill-rule="evenodd">
        <g id="Posten_priRGBneg">
            <path d="M311.119,99.127 C304.852,98.746 300.754,98.746 301.006,91.703 C301.135,87.605 302.189,84.663 314.609,85.046 C323.058,85.304 325.703,87.094 325.703,93.112 L339.019,93.112 C339.019,78.261 329.971,73.651 314.479,73.397 C297.84,73.142 286.798,76.598 286.543,92.089 C286.156,111.293 300.493,110.778 314.447,111.545 C321.619,111.928 325.969,112.057 325.713,119.481 C325.585,123.964 324.12,126.778 311.7,126.397 C301.464,126.14 299.585,123.577 299.585,118.204 L286.264,118.204 C286.264,133.565 296.083,137.662 311.829,137.917 C328.601,138.174 339.794,134.209 340.052,118.843 C340.438,98.873 325.456,100.025 311.119,99.127 Z M372.265,126.14 C365.222,126.009 364.373,122.448 364.373,117.691 L364.373,87.024 L392.818,87.024 L392.818,74.534 L364.373,74.534 L364.373,54.347 L349.906,54.347 L349.906,74.534 L341.485,74.534 L341.485,87.024 L349.906,87.024 L349.906,117.691 C349.906,131.645 358.225,137.917 372.693,137.917 C385.109,137.917 392.991,133.183 392.991,118.204 L379.854,118.204 C379.703,122.188 378.797,126.266 372.265,126.14 Z M490.013,73.397 C481.18,73.397 475.55,76.213 471.965,79.414 L471.965,74.534 L459.418,74.534 L459.418,136.895 L473.885,136.895 L473.885,107.833 C473.885,96.953 472.729,86.199 488.354,86.199 C500.893,86.199 499.742,91.96 499.742,103.992 L499.742,136.895 L514.213,136.895 L514.213,102.841 C514.213,89.272 515.236,73.397 490.013,73.397 Z M410.933,99.385 C410.933,91.063 412.211,85.304 424.885,85.304 C438.328,85.304 439.091,90.425 439.091,99.385 L410.933,99.385 Z M424.885,73.397 C399.791,73.397 396.208,87.734 396.208,106.423 C396.208,124.602 400.179,137.917 425.269,137.917 C437.042,137.917 452.665,134.973 452.665,118.204 L438.665,118.204 C438.542,125.247 431.025,126.011 425.779,126.011 C413.359,126.011 410.673,121.789 410.673,111.161 L453.431,111.161 C453.431,89.402 452.154,73.397 424.885,73.397 Z M252.547,125.117 C238.591,125.117 237.313,119.74 237.313,105.655 C237.313,91.574 238.591,86.199 252.547,86.199 C266.5,86.199 267.785,91.574 267.785,105.655 C267.785,119.74 266.5,125.117 252.547,125.117 Z M252.547,73.397 C242.434,73.397 234.881,75.191 229.505,80.439 C224.002,85.684 222.847,93.75 222.847,105.655 C222.847,117.564 224.002,125.628 229.505,130.874 C234.881,136.126 242.434,137.917 252.547,137.917 C262.533,137.917 270.216,136.126 275.593,130.874 C281.096,125.628 282.244,117.564 282.244,105.655 C282.244,93.75 281.096,85.684 275.593,80.439 C270.216,75.191 262.533,73.397 252.547,73.397 Z M190.093,125.117 C177.676,125.117 174.22,121.403 174.22,105.788 C174.22,90.165 177.676,86.199 190.093,86.199 C200.848,86.199 203.15,91.188 203.15,105.788 C203.15,120.378 200.848,125.117 190.093,125.117 Z M192.398,73.397 C185.74,73.27 178.189,74.804 172.938,79.414 L172.938,74.534 L159.882,74.534 L159.882,157.097 L174.346,157.097 L174.346,132.41 C178.571,136.895 183.948,137.917 190.732,137.917 C214.921,137.917 217.605,120.89 217.605,105.788 C217.605,85.942 214.664,73.651 192.398,73.397 L192.398,73.397 Z" id="Fill-1" fill="#FFFFFE"></path>
            <path d="M136.372,74.535 C134.927,92.778 119.677,107.133 101.063,107.133 C82.448,107.133 67.198,92.778 65.753,74.535 L0.505,74.535 C1.995,112.358 33.112,142.567 71.299,142.567 C109.487,142.567 140.604,112.358 142.094,74.535 L136.372,74.535" id="Fill-2" fill="#FFFFFE"></path>
            <path d="M65.753,68.866 C67.198,50.623 82.448,36.267 101.063,36.267 C119.677,36.267 134.928,50.623 136.372,68.866 L142.094,68.866 C140.604,31.043 109.487,0.834 71.299,0.834 C33.112,0.834 1.995,31.043 0.505,68.866 L65.753,68.866" id="Fill-3" fill="#B8BAB9"></path>
        </g>
    </g>
</svg>