<svg xmlns="http://www.w3.org/2000/svg" viewBox="0 0 513.71 156.26">
  <defs>
    <style>
      .logo-posten-white-1 {
        fill: #fff;
      }

      .logo-posten-white-2 {
        fill: #c1c1c1;
      }
    </style>
  </defs>
  <title>Posten_Logo-neg</title>
  <path class="logo-posten-white-1" d="M227.4,108c-6.66-.13-14.21,1.4-19.46,6v-4.88H194.88V191.7h14.47V167c4.22,4.48,9.6,5.51,16.38,5.51,24.19,0,26.88-17,26.88-32.13C252.61,120.54,249.66,108.25,227.4,108Zm-2.31,51.72c-12.41,0-15.87-3.72-15.87-19.33s3.46-19.59,15.87-19.59c10.76,0,13.06,5,13.06,19.59S235.85,159.72,225.09,159.72ZM287.55,108c-10.12,0-17.67,1.79-23,7s-6.66,13.31-6.66,25.21,1.15,20,6.66,25.22,12.92,7.05,23,7.05,17.67-1.8,23-7.05,6.65-13.31,6.65-25.22-1.14-20-6.65-25.21S297.53,108,287.55,108Zm0,51.72c-14,0-15.24-5.38-15.24-19.47s1.28-19.45,15.24-19.45,15.24,5.37,15.24,19.45S301.5,159.72,287.55,159.72ZM459.88,108c-25.09,0-28.67,14.33-28.67,33,0,18.18,4,31.5,29.06,31.5,11.77,0,27.4-3,27.4-19.72h-14c-.13,7-7.64,7.81-12.89,7.81-12.42,0-15.11-4.22-15.11-14.85h42.76C488.43,124,487.15,108,459.88,108Zm-13.95,26c0-8.32,1.28-14.08,13.95-14.08,13.45,0,14.21,5.12,14.21,14.08ZM525,108c-8.83,0-14.46,2.81-18.05,6v-4.88H494.42v62.36h14.46V142.43c0-10.88-1.15-21.63,14.47-21.63,12.54,0,11.39,5.76,11.39,17.79v32.9h14.47V137.44C549.21,123.87,550.24,108,525,108ZM407.26,160.74c-7-.13-7.89-3.69-7.89-8.45V121.62h28.45V109.13H399.37V89H384.91v20.18h-8.42v12.49h8.42v30.67c0,14,8.31,20.23,22.78,20.23,12.42,0,20.3-4.74,20.3-19.72H414.85C414.7,156.79,413.8,160.87,407.26,160.74Zm-61.14-27c-6.27-.39-10.37-.39-10.11-7.43.12-4.1,1.18-7,13.6-6.66,8.45.26,11.09,2,11.09,8.07H374c0-14.85-9-19.46-24.54-19.71-16.64-.26-27.68,3.2-27.94,18.69-.38,19.2,13.95,18.69,27.91,19.45,7.17.39,11.52.52,11.26,7.94-.13,4.48-1.59,7.3-14,6.92-10.24-.26-12.12-2.82-12.12-8.2H321.26c0,15.36,9.82,19.46,25.57,19.72,16.77.25,28-3.71,28.22-19.08C375.44,133.47,360.46,134.62,346.12,133.73Z" transform="translate(-35.5 -35.43)"/>
  <path class="logo-posten-white-1" d="M171.37,109.13a35.42,35.42,0,0,1-70.62,0H35.5a70.85,70.85,0,0,0,141.59,0Z" transform="translate(-35.5 -35.43)"/>
  <path class="logo-posten-white-2" d="M100.75,103.46a35.42,35.42,0,0,1,70.62,0h5.72a70.85,70.85,0,0,0-141.59,0Z" transform="translate(-35.5 -35.43)"/>
</svg>
