<?xml version="1.0" encoding="utf-8"?>
<!-- Generator: Adobe Illustrator 21.1.0, SVG Export Plug-In . SVG Version: 6.00 Build 0)  -->
<svg version="1.1" id="Layer_1" xmlns="http://www.w3.org/2000/svg" xmlns:xlink="http://www.w3.org/1999/xlink" x="0px" y="0px"
	 viewBox="0 0 288 109.9" style="enable-background:new 0 0 288 109.9;" xml:space="preserve">
<style type="text/css">
	.st0{fill:#FFFFFF;}
	.st1{fill:#C1C1C1;}
</style>
<title>logo-bring-white</title>
<rect x="190.6" y="50" class="st0" width="9.8" height="42.2"/>
<path class="st0" d="M227.5,49.3c-6,0-9.8,1.9-12.2,4.1v-3.3h-8.5v42.2h9.8V72.6c0-7.4-0.8-14.6,9.8-14.6c8.5,0,7.7,3.9,7.7,12v22.3
	h9.8V69.2C243.9,60,244.6,49.3,227.5,49.3z"/>
<path class="st0" d="M279.2,50v3.3c-3.3-2.9-8.7-4.1-13.2-4.1c-14.6,0-16.9,8.8-16.9,21.6c0,10.1,1,21.4,17,21.4
	c4.1,0,9.1-1,12.1-3.7c0.1,2.5,0,4.9-0.2,7.4c-0.5,4-4.6,5.7-10.2,5.7s-7.2-1.5-7.2-4.6H250c0,10.7,9.6,12.9,18.1,12.9
	c7.8,0,18-2.1,19.6-12.1c0.3-3.4,0.4-6.7,0.3-10.1V50H279.2z M267.6,83.4c-7.3,0-8.8-2.7-8.8-12.6s1.5-12.9,8.8-12.9
	c8.4,0,10.7,2.3,10.7,12.9S276,83.4,267.6,83.4z"/>
<path class="st0" d="M130.6,49.3c-4.6,0-9.6,0.5-12.8,3.8V36.4H108v55.9h8.8v-3.4c2.6,2.3,6.6,4.1,12.2,4.1c16.9,0,18-11.4,18-21.8
	C147.1,58.4,145.1,49.3,130.6,49.3z M128.4,84.1c-8.4,0-10.8-2.3-10.8-12.9s2.4-12.9,10.8-12.9c7.3,0,8.8,3,8.8,12.9
	S135.7,84.1,128.4,84.1L128.4,84.1z"/>
<path class="st0" d="M172.2,49.3c-4.9,0-8.8,1.6-11.6,4.5V50h-8.5v42.2h9.8V73.9c0-3.3-0.2-8,1-11c1-2.9,3.6-5,7.6-5
	s5.7,0.9,5.7,4.8h9.7C185.9,53.4,181.3,49.3,172.2,49.3z"/>
<rect x="190.6" y="36.4" class="st0" width="9.8" height="9.8"/>
<path class="st1" d="M27.8,72.1C15.3,72.1,4.9,62.5,3.9,50H0c0,26.5,21.5,48,48,48s48-21.5,48-48H51.7
	C50.7,62.5,40.3,72.1,27.8,72.1z"/>
<path class="st0" d="M48,0.1C22.2,0.1,1,20.4,0,46.2h3.9C5.1,33,16.8,23.3,30,24.5c11.5,1.1,20.7,10.2,21.7,21.7h44.2
	C94.9,20.5,73.7,0.1,48,0.1z"/>
</svg>
