<?xml version="1.0" encoding="utf-8"?>
<!-- Generator: Adobe Illustrator 18.1.1, SVG Export Plug-In . SVG Version: 6.00 Build 0)  -->
<svg version="1.1" id="Layer_1" xmlns="http://www.w3.org/2000/svg" xmlns:xlink="http://www.w3.org/1999/xlink" x="0px" y="0px"
	 viewBox="18 20 135 60" enable-background="new 18 20 135 60" xml:space="preserve">
<title>Page 1</title>
<desc>Created with Sketch.</desc>
<g id="Page-1">
	<g id="Slider-Copy" transform="translate(-116.000000, -13.000000)">
		<g id="bring-logo-svg" transform="translate(116.000000, 13.000000)">
			<path id="Fill-1" fill="#FFFFFF" d="M107.2,45.8h4.6v-4.5h-4.6V45.8z M107.2,67.1h4.6V47.6h-4.6V67.1z M143.2,63
				c-3.4,0-4.1-1.2-4.1-5.8c0-4.6,0.7-6,4.1-6c3.9,0,5,1.1,5,6C148.2,62.1,147.1,63,143.2,63L143.2,63z M148.6,47.6v1.5
				c-1.5-1.4-4.1-1.9-6.2-1.9c-6.8,0-7.9,4-7.9,10c0,4.7,0.4,9.9,7.9,9.9c1.9,0,4.3-0.4,5.7-1.7c0,1,0,2.4-0.1,3.4
				c-0.2,1.8-2.1,2.6-4.8,2.6c-2.6,0-3.4-0.7-3.4-2.1h-5c0,5,4.5,6,8.5,6c3.7,0,8.4-1,9.2-5.6c0.2-1.1,0.2-2.8,0.2-4.7V47.6H148.6z
				 M124.4,47.2c-2.8,0-4.6,0.9-5.7,1.9v-1.5h-4v19.5h4.6V58c0-3.4-0.4-6.8,4.6-6.8c4,0,3.6,1.8,3.6,5.6v10.3h4.6V56.4
				C132.1,52.2,132.4,47.2,124.4,47.2L124.4,47.2z M98.6,47.2c-2.3,0-4.1,0.7-5.4,2.1v-1.7h-4v19.5h4.6v-8.5c0-1.5-0.1-3.7,0.4-5.1
				c0.5-1.3,1.7-2.3,3.6-2.3c1.9,0,2.7,0.4,2.7,2.2h4.6C105,49.1,102.8,47.2,98.6,47.2L98.6,47.2z M78.1,63.3c-3.9,0-5.1-1.1-5.1-6
				c0-4.9,1.1-6,5.1-6c3.4,0,4.1,1.4,4.1,6C82.2,61.9,81.5,63.3,78.1,63.3L78.1,63.3z M79.1,47.2c-2.1,0-4.5,0.2-6,1.8v-7.7h-4.6
				v25.8h4.1v-1.6c1.2,1.1,3.1,1.9,5.7,1.9c7.9,0,8.4-5.3,8.4-10C86.8,51.4,85.9,47.2,79.1,47.2L79.1,47.2z"/>
			<path id="Fill-3" fill="#FFFFFF" d="M31,57.8c-5.9,0-10.7-4.5-11.2-10.2H18c0.5,11.8,10.3,21.3,22.4,21.3
				c7.9,0,14.9-4.1,18.9-10.2c2.1-3.2,3.4-7,3.5-11.1H42.2C41.7,53.3,36.9,57.8,31,57.8z"/>
			<path id="Fill-4" fill="#FFFFFF" d="M19.8,45.8c0.5-5.7,5.3-10.2,11.2-10.2c5.9,0,10.7,4.5,11.2,10.2h20.7
				C62.4,34,52.5,24.5,40.4,24.5c-12.1,0-22,9.5-22.4,21.3H19.8"/>
		</g>
	</g>
</g>
</svg>
