<?xml version="1.0" encoding="utf-8"?>
<!-- Generator: Adobe Illustrator 22.1.0, SVG Export Plug-In . SVG Version: 6.00 Build 0)  -->
<svg version="1.1" xmlns="http://www.w3.org/2000/svg" xmlns:xlink="http://www.w3.org/1999/xlink" x="0px" y="0px"
	 viewBox="0 0 288 110.7" style="enable-background:new 0 0 288 110.7;" xml:space="preserve">
<style type="text/css">
	.st0-logo-bring-gray{fill:none;}
	.st1-logo-bring-gray{fill:#222222;}
	.st2-logo-bring-gray{fill:#C1C1C1;}
</style>
<title>Bring_Logo</title>
<g>
	<rect x="190.6" y="49.9" class="st1-logo-bring-gray" width="9.8" height="42.2"/>
	<path class="st1-logo-bring-gray" d="M227.5,49.2c-6,0-9.8,1.9-12.2,4.1V50h-8.5v42.2h9.8V72.5c0-7.4-0.8-14.6,9.8-14.6c8.5,0,7.7,3.9,7.7,12v22.3
		h9.8V69.1C243.9,59.9,244.6,49.2,227.5,49.2z"/>
	<path class="st1-logo-bring-gray" d="M279.2,49.9v3.3c-3.3-2.9-8.7-4.1-13.2-4.1c-14.6,0-16.9,8.8-16.9,21.6c0,10.1,1,21.4,17,21.4
		c4.1,0,9.1-1,12.1-3.7c0,2.2,0.1,5.2-0.2,7.4c-0.5,4-4.6,5.7-10.2,5.7c-5.5,0-7.2-1.5-7.2-4.6H250c0,10.7,9.6,12.9,18.1,12.9
		c7.8,0,18-2.1,19.6-12.1c0.3-2.3,0.3-6.2,0.3-10.1V49.9H279.2z M267.6,83.3c-7.3,0-8.8-2.7-8.8-12.6s1.5-12.9,8.8-12.9
		c8.4,0,10.7,2.3,10.7,12.9C278.3,81.3,276,83.3,267.6,83.3z"/>
	<path class="st1-logo-bring-gray" d="M130.6,49.2c-4.6,0-9.6,0.5-12.8,3.8V36.3H108v55.9h8.8v-3.4c2.6,2.3,6.6,4.1,12.2,4.1c16.9,0,18-11.4,18-21.8
		C147.1,58.3,145.1,49.2,130.6,49.2z M128.4,84c-8.4,0-10.8-2.3-10.8-12.9s2.4-12.9,10.8-12.9c7.3,0,8.8,3,8.8,12.9
		C137.3,81,135.7,84,128.4,84z"/>
	<path class="st1-logo-bring-gray" d="M172.2,49.2c-4.9,0-8.8,1.6-11.6,4.5v-3.8h-8.5v42.2h9.8V73.8c0-3.3-0.2-8,1-11c1-2.9,3.6-5,7.6-5
		c4.1,0,5.7,0.9,5.7,4.8h9.7C185.9,53.3,181.3,49.2,172.2,49.2z"/>
	<rect x="190.6" y="36.3" class="st1-logo-bring-gray" width="9.8" height="9.8"/>
	<path class="st2-logo-bring-gray" d="M27.8,72C15.2,72,4.9,62.3,3.9,49.9H0C1,75.6,22.1,96,48,96s47-20.5,48-46.1H51.7C50.7,62.3,40.4,72,27.8,72z"
		/>
	<path class="st1-logo-bring-gray" d="M48,0C22.1,0,1,20.5,0,46.1h3.9C4.9,33.7,15.2,24,27.8,24s22.9,9.7,23.9,22.1h44.2C94.9,20.5,73.8,0,48,0z"/>
</g>
</svg>
