<svg id="f48ecbf0-5a22-419a-918f-6a71fadae381" data-name="Export here" xmlns="http://www.w3.org/2000/svg" viewBox="0 0 200 200">
  <title>Merker</title>
  <g>
    <path d="M172,138.5V186H124.5V138.5H172m11-13H113.5a2,2,0,0,0-2,2V197a2,2,0,0,0,2,2H183a2,2,0,0,0,2-2V127.5a2,2,0,0,0-2-2Z"/>
    <path d="M60,129a28,28,0,1,1-28,28,28,28,0,0,1,28-28m0-13a41,41,0,1,0,41,41,41,41,0,0,0-41-41Z"/>
    <path d="M138,59.27,163,101H113l25-41.73m0-23.37a2,2,0,0,0-1.73,1L91.83,111a2,2,0,0,0,1.73,3h88.88a2,2,0,0,0,1.73-3L139.73,36.88a2,2,0,0,0-1.73-1Z"/>
  </g>
</svg>
