<svg id="f39d17ba-0dd0-47b5-a254-3757d62fa6be" data-name="Export here" xmlns="http://www.w3.org/2000/svg" viewBox="0 0 200 200">
  <g>
    <path d="M190.24,181,177,149.16V44.48H21.86V149.16L8.65,180.91,8.6,181A13.55,13.55,0,0,0,10,193.61a13.71,13.71,0,0,0,11.33,6H177.49a13.7,13.7,0,0,0,11.33-6A13.55,13.55,0,0,0,190.24,181ZM34.86,57.48H164V144H34.86ZM178.08,186.29a.66.66,0,0,1-.59.3H21.34a.66.66,0,0,1-.58-.3.49.49,0,0,1-.08-.47L32.7,157H166.13l12,28.87A.5.5,0,0,1,178.08,186.29Z"/>
    <rect x="80.23" y="73.73" width="70.88" height="11"/>
    <rect x="80.23" y="94.21" width="70.88" height="11"/>
    <rect x="80.23" y="115.7" width="70.88" height="11"/>
    <circle cx="58.19" cy="79.23" r="7.72"/>
    <circle cx="58.19" cy="99.71" r="7.72"/>
    <circle cx="57.82" cy="121.58" r="7.72"/>
  </g>
</svg>
