<svg id="b22fb0cb-9b23-4317-a014-6d00c57cebf4" data-name="Layer 1" xmlns="http://www.w3.org/2000/svg" viewBox="0 0 496 512">
  <title>Numbers</title>
  <path d="M277.36,133.31A193.82,193.82,0,0,1,289.12,113l9.49-14a59.09,59.09,0,0,1,9.11-11.2v-1.4a34.39,34.39,0,0,1-7.59.7,61.76,61.76,0,0,1-10.63.7H74q-31.12,0-31.11-28.7V39.51q0-29.4,31.11-29.4H381.33q31.86,0,31.87,28.7v15.4a82.79,82.79,0,0,1-1.9,18.2,62.58,62.58,0,0,1-7.21,17.5L188.58,486.11q-12.15,21-38,21H116.49q-18.22,0-24.67-9.45t1.9-24.85Z"/>
</svg>
