<svg id="b3dede19-4539-4d07-bbd5-9a2259bcc951" data-name="Layer 1" xmlns="http://www.w3.org/2000/svg" viewBox="0 0 496 512">
  <title>Numbers</title>
  <path d="M61,379q-31.12,0-31.11-28.7v-7q0-20.3,11.38-35.7L249.18,29q12.88-18.9,37.94-18.9h59.19q31.88,0,31.87,29.4v264.6h37.95q31.86,0,31.87,28.7v17.5Q448,379,422.2,379h-44v98.7q0,29.4-31.87,29.4H312.92q-31.12,0-31.11-29.4V379Zm220.83-74.9v-154c0-6.06.11-12.13.38-18.2s.62-11.66,1.13-16.8q.75-8.4,2.28-16.8h-1.52l-7.59,15.4q-3.8,7-8.72,15t-10.25,15.05L133.07,302.71v1.4Z"/>
</svg>
