<svg id="acb72e66-5031-40a8-8e9e-956e95d75cd0" data-name="Layer 1" xmlns="http://www.w3.org/2000/svg" viewBox="0 0 496 512">
  <title>Numbers</title>
  <path d="M76.52,467.21q-12.15-8.4-13.28-18.9t7.21-21.7l15.18-21.7Q94,393,105,392t23.9,6.65q15.18,9.81,39.84,20.65T226,430.11q42.48,0,69.81-21t27.32-53.31q0-19.63-9.11-34.37a72.22,72.22,0,0,0-25-24.2,122.92,122.92,0,0,0-36.8-14,207.09,207.09,0,0,0-44.4-4.57H196.42q-24.3,0-34.91-20.34l-3-5.61q-10.64-19.64,6.83-37.88L248,124.29q7.57-8.42,14.8-15.44t12.52-11.92l11.38-10.52V85c-3,.47-7.09.94-12.14,1.4a135.42,135.42,0,0,1-15.17.7H109.15Q78,87.11,78,58.67V39.25q0-29.14,31.11-29.14h265.6q31.88,0,31.87,28.7v7.7a57.94,57.94,0,0,1-3,19.6q-3,8.4-11.38,16.1L274.58,207.51a206,206,0,0,1,54.64,14.7,169.51,169.51,0,0,1,47,29.4,141.94,141.94,0,0,1,33,43.4q12.53,25.2,12.52,57.4a156.38,156.38,0,0,1-12.52,61.25,148.87,148.87,0,0,1-36.8,52.15q-24.3,22.41-59.57,36.05t-80.82,13.65a265,265,0,0,1-52.36-4.9,278.15,278.15,0,0,1-43.64-12.25,273,273,0,0,1-59.57-31.15Z"/>
</svg>
