<svg id="eb85d858-c7bd-4d1a-8567-db862ed4a588" data-name="Layer 1" xmlns="http://www.w3.org/2000/svg" viewBox="0 0 496 512">
  <title>Numbers</title>
  <path d="M83.33,465.81q-11.39-7.69-12.14-18.55t7.59-21.35l15.17-21q15.94-23.1,43.26-5.6,12.89,9.81,35.28,20.3t54.26,10.5a121.4,121.4,0,0,0,37.95-5.95A106,106,0,0,0,297,407.36a81.54,81.54,0,0,0,22.38-26.6q8.34-15.75,8.35-35.35,0-39.2-30.73-62.65t-77-23.45q-20.49,0-36.42,4.55t-25.8,8.05a95.34,95.34,0,0,1-21.63,4.2,54.2,54.2,0,0,1-20.87-2.8l-6.83-2.1q-25.8-9.09-23.52-35l19.73-198.1q2.27-28,32.63-28H358.79q31.88,0,31.88,29.14V58.67q0,28.46-31.88,28.44H191.85l-8.35,83.13q-1.53,10.66-2.28,17-.76,3.51-1.52,6.3h1.52c5.05-1.86,10.63-3.73,16.7-5.6q8.34-2.1,18.21-3.85a132.12,132.12,0,0,1,22.77-1.75q44.76,0,80,12.93t59.58,34.92a149.83,149.83,0,0,1,37.18,51.69,157.09,157.09,0,0,1,12.9,63.22q0,37-14.8,68.11A165.82,165.82,0,0,1,373.21,467q-25.8,22.71-61.47,35.62t-77.4,12.92a253.69,253.69,0,0,1-51.6-4.9,246.36,246.36,0,0,1-42.5-12.6,240.72,240.72,0,0,1-33-16.1A234.3,234.3,0,0,1,83.33,465.81Z"/>
</svg>
