<svg id="fc04933d-fa13-4072-81b5-28dc6c8bbfea" data-name="Layer 1" xmlns="http://www.w3.org/2000/svg" viewBox="0 0 496 512">
  <title>Numbers</title>
  <path d="M57.91,282.41a340.21,340.21,0,0,1,15.55-100.8q15.56-50.4,46.29-90.3t77.41-64.75Q243.83,1.72,306.05,1.71a295.06,295.06,0,0,1,46.29,3.5q22,3.51,34.91,7.7,29.6,8.4,19,37.1l-9.1,23.1q-5.33,14.7-14.42,18.2t-22.77.7q-9.87-2.79-21.25-4.9A152.85,152.85,0,0,0,311.37,85q-32.64,0-57.68,11.55A132.69,132.69,0,0,0,211.2,127a158.13,158.13,0,0,0-28.46,43.75,245.19,245.19,0,0,0-16.32,51.45h1.52q12.9-15.39,41-27.3T276.46,183q38.7,0,69.43,12.6t52.36,34.65a155.66,155.66,0,0,1,33.39,51.1,161.72,161.72,0,0,1,11.77,61.25,178.49,178.49,0,0,1-12.52,66.5,164.17,164.17,0,0,1-36.05,55.3,170.51,170.51,0,0,1-56.16,37.45q-32.62,13.65-72.85,13.65a204.93,204.93,0,0,1-80.06-15.75,192.42,192.42,0,0,1-66-45.85Q91.3,423.82,74.6,380.41T57.91,282.41Zm101.68,32.9q0,18.9,8,39.55a142.31,142.31,0,0,0,22,38.15,116.42,116.42,0,0,0,33.77,28.7,84.62,84.62,0,0,0,42.49,11.2q37.19,0,59.19-23.8t22-60.9a96.19,96.19,0,0,0-6.45-35.35,81.16,81.16,0,0,0-19-28.7q-12.53-12.24-32.25-19.6t-45.53-7.35q-36.44,0-60.33,15.75T159.59,315.31Z"/>
</svg>
