<svg id="be529f21-b016-4df9-8358-bc7c1ad63a0f" data-name="Layer 1" xmlns="http://www.w3.org/2000/svg" viewBox="0 0 496 512">
  <title>Numbers</title>
  <path d="M55.48,463.09q0-44.73,18.59-77.92a237.54,237.54,0,0,1,46.67-59A404,404,0,0,1,181.45,280q32.61-20.25,60.7-39.56t46.67-39.3q18.6-20,18.6-44.55,0-33-23.91-51.24t-58-18.24a100.21,100.21,0,0,0-49.33,12.6A105.12,105.12,0,0,0,158.68,112q-7.59,6.66-12.9,12.25-10.64,9.81-22,12.6T101,130.51l-20.49-14.7q-25-17.49-8.35-39.2,9.1-10.5,22.77-23.8t33.77-24.5a228.58,228.58,0,0,1,45.91-18.9q25.78-7.69,59.19-7.7a226.12,226.12,0,0,1,66.78,9.8q31.88,9.81,56.15,28.7a137.63,137.63,0,0,1,38.32,46.2q14,27.3,14,62.3,0,39.9-17.83,69.65a220.7,220.7,0,0,1-44.77,53.2A417.51,417.51,0,0,1,288.07,314q-31.5,19-58.82,36.95T183,387.89q-19,19-19.73,42.22H385.58q31.88,0,31.87,28.44V478q0,29.14-31.87,29.14h-296q-15.18,0-24.66-7.34t-9.48-22Z"/>
</svg>
