<svg id="a111c5a4-aeb7-47b0-b74d-e108eca2bfe0" data-name="Layer 1" xmlns="http://www.w3.org/2000/svg" viewBox="0 0 496 512">
  <title>Numbers</title>
  <path d="M54.87,366.41q0-27.3,10.63-49.7a183.6,183.6,0,0,1,24.28-38.85,174.14,174.14,0,0,1,27.32-27q13.66-10.5,20.49-14.7-27.32-18.19-44.4-42t-17.07-57.4A121.16,121.16,0,0,1,86.75,87.46q10.6-24.15,31.87-43.4t53.5-30.8Q204.36,1.71,248.38,1.71q37.94,0,70.58,9.45t56.15,27a127.16,127.16,0,0,1,36.81,42.35q13.26,24.86,13.28,55.65a125.25,125.25,0,0,1-8,44.8A203.14,203.14,0,0,1,399,218a220.24,220.24,0,0,1-20.11,27.3q-9.87,11.2-14.41,15.4,32.61,18.21,53.5,44.1t20.86,63.7a123.79,123.79,0,0,1-12.9,54.6q-12.9,26.61-37.56,46.9t-59.95,32.9q-35.28,12.6-80.82,12.6-44,0-79.68-11.9t-60.71-32.2q-25-20.3-38.7-47.25A126,126,0,0,1,54.87,366.41Zm97.89-9.8a70.62,70.62,0,0,0,7.59,32.9,78.63,78.63,0,0,0,20.49,25.2,97,97,0,0,0,30.36,16.45,114.3,114.3,0,0,0,37.18,5.95,112.12,112.12,0,0,0,34.53-5.25,101.61,101.61,0,0,0,28.84-14.35,68,68,0,0,0,19.73-22.05,57.35,57.35,0,0,0,7.2-28.35q0-17.49-10.24-30.1t-28.08-22.75a344,344,0,0,0-42.49-19.95q-24.68-9.8-54.26-21.7-5.33,4.2-14,11.55A110.37,110.37,0,0,0,172.88,302a120.6,120.6,0,0,0-14,24.15A73.92,73.92,0,0,0,152.76,356.61Zm141.91-127.4q3-4.2,9.11-11.9a127.7,127.7,0,0,0,11.76-18.2,155.7,155.7,0,0,0,10.24-23.8,87.88,87.88,0,0,0,4.56-28.7q0-32.19-22-49.35T249.14,80.11q-38.7,0-58,16.8t-19.35,41.3q0,18.21,10.24,31.15t27.32,23.1a275,275,0,0,0,39.08,18.9Q270.39,220.12,294.67,229.21Z"/>
</svg>
