<svg id="eba04c2d-fc08-4b02-bf4d-9f5ca098d016" data-name="Layer 1" xmlns="http://www.w3.org/2000/svg" viewBox="0 0 496 512">
  <title>Numbers</title>
  <path d="M98.88,444.11q5.31-14.7,14.42-17.85t22.77-1.05q10.62,2.81,21.63,5.25t26.94,2.45q32.61,0,57.67-11.55a130.14,130.14,0,0,0,42.49-30.8,163.82,163.82,0,0,0,28.46-44.1A246,246,0,0,0,329.58,295h-1.52q-14.43,16.8-44,28.35t-66,11.55q-37.2,0-67.54-13a156.59,156.59,0,0,1-52-35.35,165.39,165.39,0,0,1-45.92-114.8A173,173,0,0,1,65.12,106a158.06,158.06,0,0,1,36-53.9,177.18,177.18,0,0,1,55.78-36.75Q189.18,1.71,229.41,1.71a207.74,207.74,0,0,1,80.44,15.75,191.57,191.57,0,0,1,66.4,45.85q28.46,30.1,45.15,73.5t16.69,98a344.75,344.75,0,0,1-15.17,100.45,278.55,278.55,0,0,1-46.29,90.3q-31.12,40.26-77.79,65.1T190,515.51a294.78,294.78,0,0,1-46.29-3.5q-22-3.51-34.91-7.7-29.59-8.4-19-36.4Zm153.29-183.4q36.43,0,60.33-16.1t23.91-42.7q0-18.9-8-39.2a144.6,144.6,0,0,0-22-37.8,117,117,0,0,0-33.77-28.7A84.75,84.75,0,0,0,230.17,85q-37.2,0-58.81,23.45t-21.63,61.25a98.93,98.93,0,0,0,6.07,34.65,77.68,77.68,0,0,0,19,29q12.9,12.6,31.87,20T252.17,260.71Z"/>
</svg>
