<svg id="b7f8866b-8e2f-4222-8954-a6eda92f9339" data-name="Export here" xmlns="http://www.w3.org/2000/svg" viewBox="0 0 200 198">
  <title>Olje</title>
  <path d="M102,174a39.24,39.24,0,0,1-36.12-23.88,38.65,38.65,0,0,1-2.55-8.62,39.1,39.1,0,0,1-.58-6.75,5.5,5.5,0,0,1,11,0,28.34,28.34,0,0,0,.42,4.87A27.87,27.87,0,0,0,76,145.81a28.32,28.32,0,0,0,19.46,16.43A28.66,28.66,0,0,0,102,163a5.5,5.5,0,0,1,0,11Z"/>
  <path d="M101,197.79A62.71,62.71,0,0,1,38.4,137h0c-.59-20,9.21-32.65,20.56-47.34,11.5-14.9,25.82-33.43,35.38-66.9h0A6.5,6.5,0,0,1,100.57,18h.85a6.48,6.48,0,0,1,6.25,4.71h0c9.57,33.47,23.88,52,35.38,66.89,10.3,13.34,19.32,25,20.47,42h0c.07,1.28.11,2.45.11,3.58v.16c0,.54,0,1.08,0,1.63A62.7,62.7,0,0,1,101,197.79ZM51.39,136.25a49.63,49.63,0,0,0,99.25-1.09v0c0-14.47-7.21-23.75-17.88-37.57-10-13-22.1-28.61-31.76-53.77C91.33,68.94,79.27,84.56,69.23,97.55c-9.91,12.83-16.79,21.74-17.76,34.53h0Z"/>
</svg>
