<svg data-name="Export here" xmlns="http://www.w3.org/2000/svg" viewBox="0 0 200 200">
  <defs>
  </defs>
  <title>Påske</title>
  <g>
    <circle class="b3758487-5257-46a3-a2a6-8dc370dd1cc6" cx="99.5" cy="124.5" r="6.5"/>
    <circle class="b3758487-5257-46a3-a2a6-8dc370dd1cc6" cx="72.5" cy="120.5" r="6.5"/>
    <circle class="b3758487-5257-46a3-a2a6-8dc370dd1cc6" cx="126.5" cy="120.5" r="6.5"/>
    <path d="M99,27.33c-35.89,0-65,72.45-65,108.34a65,65,0,0,0,130,0C164,99.78,134.89,27.33,99,27.33Zm0,13c10.57,0,23.44,12.61,34.43,33.72,1.6,3.08,3.12,6.3,4.56,9.6C131.5,85.35,115.64,89,98.75,89c-16.51,0-32-3.49-38.79-5.23,1.45-3.34,3-6.6,4.61-9.72C75.56,52.94,88.43,40.33,99,40.33ZM55.17,96a175,175,0,0,0,43.58,6,175.26,175.26,0,0,0,44-6.17c5.07,14.41,8.21,29.05,8.21,39.84,0,.9,0,1.81-.07,2.7-9.77,2.82-29.51,7.63-50.43,7.63-23.39,0-45.3-6-53.45-8.53,0-.6,0-1.2,0-1.8C47,124.91,50.12,110.33,55.17,96ZM99,187.67a52.09,52.09,0,0,1-49.44-35.92C60.77,154.81,79.89,159,100.5,159c18.71,0,36.19-3.45,47.65-6.38A52.09,52.09,0,0,1,99,187.67Z"/>
  </g>
</svg>
