<svg id="1dd42171-38cf-41cf-8567-98032534549c" data-name="Layer 1" xmlns="http://www.w3.org/2000/svg" viewBox="0 0 200 200">
  <title>Pakkerstykkgodsogdellast</title>
  <path class="0c186723-6869-455a-9de0-fc52911b3ab6" d="M172.58,162.82V60.89H106.31V31.14a8.51,8.51,0,0,0-8.5-8.5H35.71a8.51,8.51,0,0,0-8.5,8.5v79.45h-.08V173h.29v27.56H172.6V162.82ZM40.13,160v-36.3H93.3V160Zm66.29-36.36h39.73l-39.73,30Zm53.16,6.15V160H119.51ZM120,110.26l39.63-29.89v29.89Zm26.64-36.37-40.17,30.29V73.89ZM40.21,35.64h53.1v75H40.21ZM40.42,173H92.14v14.56H40.42Zm64.72,14.56V173H159.6v14.55Z"/>
</svg>
