<svg width="80" height="81" viewBox="0 0 80 81" fill="none" xmlns="http://www.w3.org/2000/svg">
<path d="M70.2303 51.651L70.2783 51.604L57.0983 38H25.1492L12.4072 51.64L12.4202 51.652H12.3633V76.963C12.3654 77.9008 12.7395 78.7995 13.4036 79.4617C14.0677 80.1239 14.9674 80.4955 15.9053 80.495H66.8212C67.759 80.4953 68.6585 80.1235 69.3226 79.4614C69.9866 78.7992 70.3609 77.9007 70.3633 76.963V51.651H70.2303ZM62.9382 51.651H44.0162V43.291H54.8423L62.9382 51.651ZM27.4633 43.292H38.7032V51.652H19.6562L27.4633 43.292ZM65.0463 75.2H17.6722V56.949H65.0472L65.0463 75.2Z" fill="black"/>
<path d="M37.4482 62.286H21.6182V70.201H37.4482V62.286Z" fill="black"/>
</svg>
