<svg id="bfcfd73d-bd20-4592-bf16-2b3b8b2602c5" data-name="Bring" xmlns="http://www.w3.org/2000/svg" viewBox="0 0 200 200">
  <defs>
    <style>
      .\33 09a9d94-b552-4b45-8c8b-6c45ce32d6c0 {
        fill: #73787c;
      }
    </style>
  </defs>
  <title>Palltilbedrif</title>
  <path class="309a9d94-b552-4b45-8c8b-6c45ce32d6c0" d="M172.34,165.78,172.28,38l-33.8-26.55-79.06,0L26.84,38.06l.06,127.8a8.9,8.9,0,0,0,6.51,8.54v25.82H46.75l118.79-.06V174.41A8.88,8.88,0,0,0,172.34,165.78ZM48.06,161.4l51.38-47.1,51.42,47.05ZM148.41,51.32l-49,44.91-49-44.86ZM159,150.75,109.3,105.26,159,59.71ZM89.57,105.27,40.22,150.52l0-90.46ZM150.76,38l-44.54,0V24.77l27.67,0ZM64.17,24.79l28.72,0V38l-45,0ZM46.73,174.73l46.63,0v12.17l-46.63,0Zm60,12.13V174.7l45.52,0v12.17Z"/>
</svg>
