<svg id="2da3012e-1b08-4330-9294-46ef126f02b6" data-name="Bring" xmlns="http://www.w3.org/2000/svg" viewBox="0 0 200 200">
  <defs>
    <style>
      .\36 93c2ed9-a7c2-4449-a433-6cdeef8c4ba7 {
        fill: #73787c;
      }
    </style>
  </defs>
  <title>Partigods</title>
  <g>
    <path class="693c2ed9-a7c2-4449-a433-6cdeef8c4ba7" d="M155.29,100l-.45,0c-8.43-.44-15.14-7.14-15.28-15.25A15.65,15.65,0,0,1,144,73.35a14.85,14.85,0,0,1,10.57-4.45A7.61,7.61,0,0,0,159.73,67a7.11,7.11,0,0,0,2.32-5.12c.07-4-.25-21.64-.28-22.86a8.89,8.89,0,0,0-8.88-8.8H48.43a8.89,8.89,0,0,0-8.88,8.88s0,20.9,0,21.53v1.17a6.69,6.69,0,0,0,6.67,7,15.56,15.56,0,0,1,15.54,15.9c-.18,8.21-7,14.88-15.56,15.18H30.59v91.64a8.89,8.89,0,0,0,8.88,8.88H161.85a8.89,8.89,0,0,0,8.88-8.88V100Zm2.12,87.2H43.91V113.3h2.76c15.6-.55,28.08-12.94,28.42-28.2A28.9,28.9,0,0,0,52.88,56.33c0-3.7,0-9,0-12.75h95.66c.06,3.55.14,8.64.18,12.62a28.09,28.09,0,0,0-14.2,7.8,28.93,28.93,0,0,0-8.27,20.92c.25,15.08,12.51,27.53,27.9,28.34l3.27.17Z"/>
    <polygon class="693c2ed9-a7c2-4449-a433-6cdeef8c4ba7" points="102.7 116.39 95.05 116.39 81.46 129.4 81.46 116.39 75.78 116.39 75.78 148.51 81.46 148.51 81.46 135.61 94.56 148.51 102.85 148.51 85.61 132.33 102.7 116.39"/>
    <path class="693c2ed9-a7c2-4449-a433-6cdeef8c4ba7" d="M121.25,126.89c-1.83-1.64-4.81-2.26-7.32-2.26-8.09,0-9.39,4.86-9.39,12,0,5.63.53,11.89,9.44,11.89,2.26,0,5.06-.53,6.74-2.07a31.26,31.26,0,0,1-.09,3.62c-.29,2.21-2.56,3.17-5.69,3.17s-4.53-1.1-4.53-2.79H105c0,6,5.35,7.42,10.07,7.42,4.33,0,10-1.16,10.88-6.74a38.72,38.72,0,0,0,.19-5.11V125h-4.91Zm-6.4,16.71c-4,0-4.87-1.49-4.87-7s.82-7.18,4.87-7.18c4.67,0,5.92,1.3,5.92,7.18S119.52,143.6,114.85,143.6Z"/>
  </g>
</svg>
