<svg id="ec7b86a1-2e07-47e6-bf8b-fabe253fd3f3" data-name="Export here" xmlns="http://www.w3.org/2000/svg" viewBox="0 0 200 200">
  <title>Person</title>
  <path d="M128.18,131.59c-9,0-13.37,5-28.18,5s-19.12-5-28.18-5a42.27,42.27,0,0,0-42.26,42.27v8A15.1,15.1,0,0,0,44.66,197H155.34a15.1,15.1,0,0,0,15.1-15.09v-8A42.27,42.27,0,0,0,128.18,131.59Zm27.16,50.32H44.66v-8a27.21,27.21,0,0,1,27.16-27.17c4.6,0,12.05,5,28.18,5s23.55-5,28.18-5a27.21,27.21,0,0,1,27.16,27.17ZM100,126.56A45.28,45.28,0,1,0,54.72,81.28,45.29,45.29,0,0,0,100,126.56Zm0-75.47A30.19,30.19,0,1,1,69.81,81.28,30.25,30.25,0,0,1,100,51.09Z"/>
</svg>
