<svg id="b5fb1726-24a6-47a9-b7a6-c55aa847a1f1" data-name="Export here" xmlns="http://www.w3.org/2000/svg" viewBox="0 0 200 200">
  <title>Personer</title>
  <path d="M169.51,119.29a24.6,24.6,0,1,0-24.59-24.6A24.6,24.6,0,0,0,169.51,119.29Zm0-34.44a9.84,9.84,0,1,1-9.84,9.84A9.87,9.87,0,0,1,169.51,84.85ZM31.77,119.29a24.6,24.6,0,1,0-24.6-24.6A24.6,24.6,0,0,0,31.77,119.29Zm0-34.44a9.84,9.84,0,1,1-9.84,9.84A9.87,9.87,0,0,1,31.77,84.85ZM153.65,149.7c-8.46-12.55-24.81-17.22-39.3-12.82a46.85,46.85,0,0,1-27.48,0c-14.49-4.4-30.84.24-39.3,12.82a35.22,35.22,0,0,0-6,19.77v13.77A14.76,14.76,0,0,0,56.3,198h88.55a14.76,14.76,0,0,0,14.76-14.76V169.47a34.72,34.72,0,0,0-6-19.77Zm-8.73,33.54H56.37V169.47a20.71,20.71,0,0,1,20.1-20.66,61.94,61.94,0,0,0,48.34,0,20.69,20.69,0,0,1,20.11,20.66Zm28.28-54.11h-7.38a25.81,25.81,0,0,0-14.39,4.39A45.12,45.12,0,0,1,162,144.65a11.21,11.21,0,0,1,3.78-.76h7.38A11.1,11.1,0,0,1,184.24,155,7.38,7.38,0,0,0,199,155,25.82,25.82,0,0,0,173.2,129.13Zm-72.56,0A34.44,34.44,0,1,0,66.2,94.69,34.43,34.43,0,0,0,100.64,129.13Zm0-54.12A19.68,19.68,0,1,1,81,94.69,19.7,19.7,0,0,1,100.64,75ZM49.85,133.52a25.79,25.79,0,0,0-14.39-4.39H28.08A25.86,25.86,0,0,0,2.25,155,7.38,7.38,0,0,0,17,155a11.1,11.1,0,0,1,11.07-11.06h7.38a10.92,10.92,0,0,1,3.78.76A45.8,45.8,0,0,1,49.85,133.52Z"/>
</svg>
