<svg id="a9f0941c-8104-458f-8f81-3295fc373f04" data-name="Export here" xmlns="http://www.w3.org/2000/svg" viewBox="0 0 200 200">
  <title>Master (Dont Touch!)</title>
  <g>
    <path d="M164.44,12H115.9L90.85,35.12V60.63A48.46,48.46,0,0,0,12.58,98.88a48.94,48.94,0,0,0,1.36,11.46c1.56,6.94,9,33.37,39.77,84.66a8.5,8.5,0,0,0,14.58,0c14.79-24.63,26-46.48,33.39-64.95.5-1.25.95-2.42,1.38-3.55h79.26a7.18,7.18,0,0,0,7.17-7.17V35.12Zm7.91,22.27H145.67V23h14.47ZM120.2,23h14.47V34.27H108ZM95.86,106l0,.23c0,.24-4.3,23.47-34.81,75.54-26.57-45.36-33.07-68.71-34.32-74.08h0c0-.09-.05-.19-.07-.28-.14-.6-.19-.92-.2-.94h0a36,36,0,0,1-.82-7.63A35.5,35.5,0,1,1,95.86,106Zm11,9.46c.18-.58.34-1.14.49-1.66h.2l.81-4c.15-.65.23-1.09.27-1.32a48.87,48.87,0,0,0,1-9.67,48.25,48.25,0,0,0-7.73-26.22V45.27h76.64V115.5Z"/>
    <path d="M60.5,75A22.5,22.5,0,1,0,83,97.5,22.52,22.52,0,0,0,60.5,75Zm0,32A9.5,9.5,0,1,1,70,97.5,9.51,9.51,0,0,1,60.5,107Z"/>
  </g>
</svg>
