<svg id="a71b466f-2e0a-4012-b52d-6911090d8564" data-name="Export here" xmlns="http://www.w3.org/2000/svg" viewBox="0 0 200 200">
  <title>Master (Dont Touch!)</title>
  <g>
    <path d="M60.5,75A22.5,22.5,0,1,0,83,97.5,22.52,22.52,0,0,0,60.5,75Zm0,32A9.5,9.5,0,1,1,70,97.5,9.51,9.51,0,0,1,60.5,107Z"/>
    <path d="M193.5,48,141.09,14.09a7.52,7.52,0,0,0-8.21,0L81.5,48V54.9a48.48,48.48,0,0,0-68.92,44,48.94,48.94,0,0,0,1.36,11.46c1.56,6.94,9,33.37,39.77,84.66a8.5,8.5,0,0,0,14.58,0c14.79-24.63,26-46.48,33.39-64.95.08-.19.15-.36.22-.55h91.6ZM95.86,106l0,.23c0,.24-4.3,23.47-34.81,75.54-26.57-45.36-33.07-68.71-34.32-74.08h0c0-.09-.05-.19-.07-.28-.14-.6-.19-.92-.2-.94h0a36,36,0,0,1-.82-7.63A35.5,35.5,0,1,1,95.86,106ZM182.5,118.5h-32V118h.5V89H125v1h-.5v28.5H105.9c.59-1.79,1.06-3.35,1.43-4.66h.2l.81-4c.15-.65.23-1.09.27-1.32A48.45,48.45,0,0,0,92.5,62V54L137,24.57,182.5,54Z"/>
  </g>
</svg>
