<svg id="aefcebf3-eb13-478b-ba21-596dd271207b" data-name="Export here" xmlns="http://www.w3.org/2000/svg" viewBox="0 0 200 200">
  <title>Master (Dont Touch!)</title>
  <g>
    <path d="M54.5,75A22.5,22.5,0,1,0,77,97.5,22.52,22.52,0,0,0,54.5,75Zm0,32A9.5,9.5,0,1,1,64,97.5,9.51,9.51,0,0,1,54.5,107Z"/>
    <path d="M141.25,40.78V20.5a7.5,7.5,0,0,0-7.5-7.5H89.5A7.5,7.5,0,0,0,82,20.5V58.56A48.47,48.47,0,0,0,6.58,98.88a48.94,48.94,0,0,0,1.36,11.46c1.56,6.94,9,33.37,39.77,84.66a8.5,8.5,0,0,0,14.58,0,533.77,533.77,0,0,0,27.1-50.38H189.5V40.78Zm-39.92,73.06h.2l.81-4c.15-.65.23-1.09.27-1.32a48.87,48.87,0,0,0,1-9.67,48.32,48.32,0,0,0-1.17-10.55h27.84v25.56H101.31Zm39.92-25.51h26.58l-26.58,20.45ZM178.5,94v19.89H152.65Zm0-16.67H152.65L178.5,57.45ZM167.83,51.78,141.25,72.23V51.78ZM130.25,24V77.33H98.51A47.89,47.89,0,0,0,93,68.7V24ZM55,181.81c-26.57-45.36-33.07-68.71-34.32-74.08h0c0-.09-.05-.19-.07-.28-.14-.6-.19-.92-.2-.94h0a36,36,0,0,1-.82-7.63A35.48,35.48,0,0,1,82,75.78v2h1.63A35.46,35.46,0,0,1,89,88.28v0h0A35.73,35.73,0,0,1,89.86,106l0,.23C89.77,106.51,85.51,129.74,55,181.81Zm39.23-48.19c.5-1.2,1-2.39,1.45-3.57q1.11-2.76,2-5.16h32.58v8.73Zm47,0v-8.73H178.5v8.73Z"/>
  </g>
</svg>
