<svg id="Layer_1" data-name="Layer 1" xmlns="http://www.w3.org/2000/svg" viewBox="0 0 30 30"><title>questionmark-circle</title><path d="M15,0A15,15,0,1,0,30,15,15,15,0,0,0,15,0Zm0,25.06A1.79,1.79,0,0,1,13,23a1.77,1.77,0,0,1,2-2,1.77,1.77,0,0,1,2,2A1.79,1.79,0,0,1,15,25.06ZM19.19,15,17,16.2a2.86,2.86,0,0,0-.43,1.91v1.22h-3.3V17.64a4.89,4.89,0,0,1,1.39-3.91l2.61-1.42a2.26,2.26,0,0,0,1.07-2.11A3.15,3.15,0,0,0,17.77,8a3.32,3.32,0,0,0-2.29-.61A3.17,3.17,0,0,0,13,8.14a3.33,3.33,0,0,0-.49,2H9.31q0-3.36,1.91-4.69a7.21,7.21,0,0,1,4.2-1q3.33,0,4.78,1.39a5.85,5.85,0,0,1,1.42,4.34A5.15,5.15,0,0,1,19.19,15Z"/></svg>