<svg id="b4cf88c0-8732-4021-abfc-a548f0d945cb" data-name="Export here" xmlns="http://www.w3.org/2000/svg" viewBox="0 0 200 200">
  <g>
    <path d="M151.5,200H42.5a9.51,9.51,0,0,1-9.5-9.5V28h98V41H46V187H148V96h13v94.5A9.51,9.51,0,0,1,151.5,200Z"/>
    <rect x="59" y="161" width="75" height="13"/>
    <path d="M88.43,141h0l-12.75,0a9.57,9.57,0,0,1-9.5-9.41L66,118a9.45,9.45,0,0,1,2.77-6.78l80.69-80.69a9.48,9.48,0,0,1,13.4,0l13.26,13.26a9.46,9.46,0,0,1,2.79,6.66,9.35,9.35,0,0,1-2.76,6.74L95.1,138.28A9.55,9.55,0,0,1,88.43,141Zm0-13h0Zm-9.31,0L87,128l77.5-77.5-8.3-8.31L79,119.36ZM78,120.41h0Z"/>
  </g>
</svg>
