<svg id="b08c42c4-af94-4465-ba97-f5cffd70f242" data-name="Export here" xmlns="http://www.w3.org/2000/svg" viewBox="0 0 200 200">
  <title>Master (Dont Touch!)</title>
  <path d="M197.29,55.68,137.13,16.76a7.8,7.8,0,0,0-8.55,0l-59,38.94L70,109.41H25.47L42.87,92l-9.42-9.42-33,33,33,33,9.42-9.42L26.49,122.73H99.25a30,30,0,0,1,30,30V156a30,30,0,0,1-30,30H83.17v13.33H99.25a43.35,43.35,0,0,0,43.3-43.3v-3.33a41.79,41.79,0,0,0-.21-4.21h54.95Zm-11,81.82H173V104H146v33.5h-6.21a43.36,43.36,0,0,0-40.54-28.09H81l-.39-47.79,52.26-34.5,53.39,34.54Z"/>
</svg>
