<svg id="b68bfc42-800f-41ea-8574-30ebf54a821b" data-name="Export here" xmlns="http://www.w3.org/2000/svg" viewBox="0 0 200 200">
  <title>Master (Dont Touch!)</title>
  <path d="M184.5,44.72h-54V21.36a7.75,7.75,0,0,0-7.74-7.74H73.24a7.75,7.75,0,0,0-7.74,7.74v85.21H25.08l17.39-17.4-9.42-9.41-33,36,33,30,9.42-9.42L26.09,119.89H98.85a30,30,0,0,1,30,30v3.33a30,30,0,0,1-30,30H82.77V199.5H98.85c21.72,0,39.75-18.55,42.83-39.88H184.5Zm-54,51.9h32.33L131.11,121c-.2-.23-.41-.45-.61-.67Zm43,5.67v22.24H144.59Zm0-16.67H142L173.5,61.39Zm-10.67-29.9L130.5,80.58V55.72ZM119.5,24.62v61h-43v-61Zm-43,81.95V96.62h43v15.2a43,43,0,0,0-20.65-5.25Zm65.62,42.05a43.06,43.06,0,0,0-2.42-13.09h33.8v13.09Z"/>
</svg>
