<svg id="b0b71707-fdbc-4390-aca1-2977f02b13e3" data-name="Export here" xmlns="http://www.w3.org/2000/svg" viewBox="0 0 200 200">
  <title>Master (Dont Touch!)</title>
  <g>
    <path d="M183.19,74.6c-11.16,0-14.92-8.81-14.92-12.83,0-12.66,9.57-14.33,12.49-14.54A7.26,7.26,0,0,0,187.47,40V20.75a7.25,7.25,0,0,0-7.24-7.25H89.44a7.26,7.26,0,0,0-7.25,7.25V40a7.26,7.26,0,0,0,6.71,7.23c2.93.21,12.5,1.88,12.5,14.54,0,4-3.76,12.83-14.93,12.83h-13v36H26.08l17.39-17.4-9.42-9.41-33,33,33,33,9.42-9.42L27.09,123.89H99.85a30,30,0,0,1,30,30v3.33a30,30,0,0,1-30,30H83.77V200.5H99.85a43.36,43.36,0,0,0,43.08-38.95h46a7.25,7.25,0,0,0,7.24-7.25V74.61Zm2,76H143a43.34,43.34,0,0,0-43.16-40H84.47v-25h2c17.69,0,25.93-14.22,25.93-23.83,0-16.42-10.83-23.13-19.21-25V24.5h83.28V36.77a25.65,25.65,0,0,0-9.95,4.5c-4.22,3.2-9.25,9.35-9.25,20.5,0,9.61,8.24,23.83,25.92,23.83h2Z"/>
    <polygon points="136.06 85.61 130.63 85.61 121.01 94.83 121.01 85.61 116.98 85.61 116.98 108.38 121.01 108.38 121.01 99.23 130.29 108.38 136.16 108.38 123.94 96.91 136.06 85.61"/>
    <path d="M149.2,93.05a8.07,8.07,0,0,0-5.18-1.6c-5.74,0-6.66,3.45-6.66,8.5,0,4,.38,8.43,6.69,8.43a7.41,7.41,0,0,0,4.78-1.47,21.89,21.89,0,0,1-.07,2.56c-.2,1.57-1.81,2.25-4,2.25s-3.21-.78-3.21-2H137.7c0,4.24,3.79,5.26,7.14,5.26,3.07,0,7.1-.82,7.71-4.78a26.3,26.3,0,0,0,.14-3.62V91.72H149.2Zm-4.53,11.85c-2.87,0-3.45-1.06-3.45-5s.58-5.09,3.45-5.09c3.31,0,4.19.92,4.19,5.09S148,104.9,144.67,104.9Z"/>
  </g>
</svg>
