<svg id="b95488b6-2c39-495d-86a5-3f70f039ac12" data-name="Export here" xmlns="http://www.w3.org/2000/svg" viewBox="0 0 200 200">
  <title>Master (Dont Touch!)</title>
  <g>
    <path d="M194,81A68,68,0,1,0,64.79,110.57H25.08l17.39-17.4-9.42-9.41-33,33,33,33,9.42-9.42L26.09,123.89H73.25l.3.4.48-.4H98.85a30,30,0,0,1,30,30v3.33a30,30,0,0,1-30,30H82.77V200.5H98.85a43.34,43.34,0,0,0,43.3-43.3v-3.33a43.45,43.45,0,0,0-.52-6.69A67.88,67.88,0,0,0,194,81Zm-55.45,55.61a43.36,43.36,0,0,0-39.7-26H77.28a57,57,0,1,1,61.27,26Z"/>
    <polygon points="125.5 81.5 102 81.5 102 90.5 134.5 90.5 134.5 43 125.5 43 125.5 81.5"/>
  </g>
</svg>
