<svg id="e3558444-e293-4d63-b92b-34479bc74467" data-name="Export here" xmlns="http://www.w3.org/2000/svg" viewBox="0 0 200 200">
  <title>Master (Dont Touch!)</title>
  <g>
    <path d="M155.13,56.61a19.53,19.53,0,1,0-19.52,19.52A19.54,19.54,0,0,0,155.13,56.61Zm-28,0a8.53,8.53,0,1,1,8.53,8.52A8.54,8.54,0,0,1,127.08,56.61Z"/>
    <path d="M144.28,137.75c28.06-47.55,32.43-69.4,32.8-71.5a42.33,42.33,0,1,0-82.81.56c.58,3,3.85,17,18,44.57a43.18,43.18,0,0,0-12.37-1.81H26.08l17.39-17.4-9.42-9.41-33,33,33,33,9.42-9.42L27.09,122.89H99.85a30,30,0,0,1,30,30v3.33a30,30,0,0,1-30,30H83.77V199.5H99.85a43.35,43.35,0,0,0,43-37.9H171v-11H143.09a43.13,43.13,0,0,0-1.33-8.63Q143.05,139.82,144.28,137.75Zm-17.11-18.44,1.33-.74c-17.61-31.9-22.26-48.72-23.24-52.95h0c-.08-.3-.14-.62-.21-.93l0-.15h0a31.31,31.31,0,1,1,61.26-.4l0,.22c0,.2-3.45,19.81-29.93,65.21A43.72,43.72,0,0,0,127.17,119.31Z"/>
  </g>
</svg>
