<svg id="b459e6f2-21e1-4be6-bd0b-ce8fe05b4b8b" data-name="Export here" xmlns="http://www.w3.org/2000/svg" viewBox="0 0 200 200">
  <title>Master (Dont Touch!)</title>
  <g>
    <path d="M67.5,17.05V45.81a7.51,7.51,0,0,0,7.5,7.5h4.78v56.63H25.51l17.4-17.4-9.42-9.42-33,33,33,33,9.42-9.42L26.52,123.26H99.29a30,30,0,0,1,30,30v3.33a30,30,0,0,1-30,30H83.21v13.32H99.29a43.35,43.35,0,0,0,43.25-41.37h34a6.91,6.91,0,0,0,6.9-6.9V53.31h4.78a7.51,7.51,0,0,0,7.5-7.5V17.05ZM172.39,147.5H142.2a43.36,43.36,0,0,0-42.91-37.56H90.78V53.31h81.61ZM184.67,42.31H78.5V28.05H184.67Z"/>
    <rect x="110.54" y="73.42" width="42.1" height="14.03"/>
  </g>
</svg>
