<svg id="f217d542-7834-4877-871b-3286e9455bf8" data-name="Export here" xmlns="http://www.w3.org/2000/svg" viewBox="0 0 200 200">
  <title>Master (Dont Touch!)</title>
  <path d="M197.19,36.77l-24-20.72H111.08L88.24,36.86v72.21h-62l16.9-16.9L33.05,82.05-.63,115.73l33.68,33.68,10.13-10.13L27.29,123.39H98.85a29.51,29.51,0,0,1,29.48,29.48v3.33a29.51,29.51,0,0,1-29.48,29.48H82.27V200H98.85a43.84,43.84,0,0,0,43.77-42.47h50.09V138.68h4.48ZM177.3,47.3,142.87,79.65l-35-32.35ZM134.83,87.21,110,110.52a43.59,43.59,0,0,0-10.78-1.44V54.32Zm-13.7,28,21.8-20.49,35.72,33h-44A44.13,44.13,0,0,0,121.13,115.18Zm29.84-28L186.19,54v65.63ZM179.8,36.3H148.73V27.05h20.34Zm-64.46-9.25h22.39V36.3H105.18Zm66.37,119.48H142.19a43.67,43.67,0,0,0-1.91-7.85h41.43Z"/>
</svg>
