<svg id="afe1e6ab-0d9b-4b59-b57d-26a7c6ab15e6" data-name="Export here" xmlns="http://www.w3.org/2000/svg" viewBox="0 0 200 200">
  <title>Master (Dont Touch!)</title>
  <path d="M162.5,16H105.2L75.85,43.09v67.48H25.08l17.39-17.4-9.42-9.41-33,33,33,33,9.42-9.42L26.09,123.89H98.85a30,30,0,0,1,30,30v3.33a30,30,0,0,1-30,30H82.77V200.5H98.85a43.34,43.34,0,0,0,43.3-43.3v-3.33c0-1,0-1.92-.1-2.87h42.3a7.5,7.5,0,0,0,7.5-7.5V43.09ZM142.7,97.31l38.15-36.64V134.3Zm29.55-43.63-37.45,36-37.09-36Zm2.94-11H139.35V27H158.2ZM109.5,27h18.85V42.68H92.51ZM86.85,110.57V58.47l40,38.8-15.71,15.09a43.09,43.09,0,0,0-12.3-1.79Zm35.08,6.69,12.83-12.33L170.93,140H139.86A43.52,43.52,0,0,0,121.93,117.26Z"/>
</svg>
