<svg id="b99c6381-558f-4fb8-acd2-620aa786ed67" data-name="Export here" xmlns="http://www.w3.org/2000/svg" viewBox="0 0 200 200">
  <title>Master (Dont Touch!)</title>
  <g>
    <path d="M157.5,14H100.2L70.85,41.09v69.48H26.08l17.39-17.4-9.42-9.41-33,33,33,33,9.42-9.42L27.09,123.89H99.85a30,30,0,0,1,30,30v3.33a30,30,0,0,1-30,30H83.77V200.5H99.85a43.34,43.34,0,0,0,43.3-43.3v-3.33a43.48,43.48,0,0,0-.28-4.87h36.48a7.5,7.5,0,0,0,7.5-7.5V41.09Zm12.69,26.68H134.35V25H153.2ZM104.5,25h18.85V40.68H87.51Zm35.63,113a43.37,43.37,0,0,0-40.28-27.43h-18V51.68h94V138Z"/>
    <rect x="91" y="63" width="33" height="17"/>
  </g>
</svg>
