<svg id="bcefbdfb-2108-447c-bd1d-578681862d23" data-name="Export here" xmlns="http://www.w3.org/2000/svg" viewBox="0 0 200 200">
  <title>Signatur</title>
  <path d="M180.55,52.33,164.78,36.11a19.53,19.53,0,0,0-27.57-.38L22.3,147.48,15.06,183l-.08.46A13,13,0,0,0,27.85,198.1,12.21,12.21,0,0,0,29.2,198l36.08-6.39L180.18,79.9a19.48,19.48,0,0,0,.37-27.57ZM59.08,179.54l-31.19,5.54L34.24,154,120,70.57l25,25.32Zm112-109-16.7,16.25-25-25.33,16.91-16.45a6.5,6.5,0,0,1,9.19.13l15.78,16.21a6.49,6.49,0,0,1-.13,9.19Z"/>
</svg>
