<svg id="fb8653de-5f7a-4eb3-a14e-0292bf82e478" data-name="Bring" xmlns="http://www.w3.org/2000/svg" viewBox="0 0 310 200">
  <title>Sjøtransport</title>
  <path class="7749ab87-61e3-40a8-bec9-c6ea9c6309ea" d="M270.48,144.43V106.34h-153v38.09H103.17V115.22a8.89,8.89,0,0,0-8.88-8.88H67.53v-20a8.89,8.89,0,0,0-8.88-8.88H36.05a8.9,8.9,0,0,0-8.88,8.88v58.84H9.73a8.68,8.68,0,0,0-8.67,8.28c-.79,16.09,2.85,27,14.41,43.32l2,2.81H286.13a8.92,8.92,0,0,0,8.71-7.11l13.53-48.06Zm-14.74,0H201.2V119.66h54.54ZM132.23,119.66h54.23v24.77H132.23Zm150.52,66.61H24.39c-7.84-11.66-10-19.08-10.12-27.75H40.49V90.79H54.21v28.87H89.85v38.1H290.78Z"/>
</svg>
