<?xml version="1.0" encoding="utf-8"?>
<!-- Generator: Adobe Illustrator 22.1.0, SVG Export Plug-In . SVG Version: 6.00 Build 0)  -->
<svg version="1.1" id="_x30_8c4b58c-81c3-4f85-93ab-116899138a76"
	 xmlns="http://www.w3.org/2000/svg" xmlns:xlink="http://www.w3.org/1999/xlink" x="0px" y="0px" viewBox="0 0 200 200"
	 style="enable-background:new 0 0 200 200;" xml:space="preserve">
<title>Skreddersøm</title>
<g>
	<path d="M173.1,63.8l0.1-0.1l-33-34.2H60L28.1,63.8l0,0h-0.1v127.8c0,4.9,4,8.9,8.9,8.9h127.7c4.9,0,8.9-4,8.9-8.9V63.8H173.1z
		 M107.3,42.8h27.2l20.3,21h-47.5V42.8z M65.8,42.8H94v21H46.2L65.8,42.8z M160.1,187.2H41.3v-110h118.8V187.2z"/>
	<polygon points="91.4,170 70.3,170 100.6,139.6 131,170 109.8,170 109.8,180.4 148.8,180.4 148.8,141.5 138.4,141.5 138.4,162.6 
		108,132.2 138.4,101.9 138.4,123 148.8,123 148.8,84.1 109.8,84.1 109.8,94.5 131,94.5 100.6,124.9 70.3,94.5 91.4,94.5 91.4,84.1 
		52.4,84.1 52.4,123 62.9,123 62.9,101.9 93.2,132.2 62.9,162.6 62.9,141.5 52.4,141.5 52.4,180.4 91.4,180.4 	"/>
</g>
</svg>
