<svg id="b964237b-8a3c-4e1a-a379-9067a4eee8a1" data-name="Export here" xmlns="http://www.w3.org/2000/svg" viewBox="0 0 200 200">
  <g>
    <path d="M139.86,199H59.2a16.64,16.64,0,0,1-16.62-16.62V37.6A18.62,18.62,0,0,1,61.18,19h78.68a16.63,16.63,0,0,1,16.61,16.62V182.38A16.63,16.63,0,0,1,139.86,199ZM61.18,32a5.6,5.6,0,0,0-5.6,5.6V182.38A3.62,3.62,0,0,0,59.2,186h80.66a3.62,3.62,0,0,0,3.61-3.62V35.62A3.62,3.62,0,0,0,139.86,32Z"/>
    <path d="M113.34,176H85.71a5.5,5.5,0,1,1,0-11h27.63a5.5,5.5,0,1,1,0,11Z"/>
  </g>
</svg>
