<svg id="Layer_1" data-name="Layer 1" xmlns="http://www.w3.org/2000/svg" viewBox="0 0 120 120">
  <title>SoMe</title>
  <g>
    <path d="M60,10.81c16,0,17.92.06,24.25.35a33.06,33.06,0,0,1,11.14,2.07,18.6,18.6,0,0,1,6.9,4.48,18.6,18.6,0,0,1,4.48,6.9,33.06,33.06,0,0,1,2.07,11.14c.29,6.33.35,8.23.35,24.25s-.06,17.92-.35,24.25a33.06,33.06,0,0,1-2.07,11.14,19.78,19.78,0,0,1-11.38,11.38,33.06,33.06,0,0,1-11.14,2.07c-6.33.29-8.23.35-24.25.35s-17.92-.06-24.25-.35a33.06,33.06,0,0,1-11.14-2.07,18.6,18.6,0,0,1-6.9-4.48,18.6,18.6,0,0,1-4.48-6.9,33.06,33.06,0,0,1-2.07-11.14c-.29-6.33-.35-8.23-.35-24.25s.06-17.92.35-24.25a33.06,33.06,0,0,1,2.07-11.14,18.6,18.6,0,0,1,4.48-6.9,18.6,18.6,0,0,1,6.9-4.48,33.06,33.06,0,0,1,11.14-2.07c6.33-.29,8.23-.35,24.25-.35M60,0C43.7,0,41.66.07,35.26.36A44.05,44.05,0,0,0,20.7,3.15a29.32,29.32,0,0,0-10.63,6.92A29.32,29.32,0,0,0,3.15,20.7,44.05,44.05,0,0,0,.36,35.26C.07,41.66,0,43.7,0,60S.07,78.34.36,84.74A44.05,44.05,0,0,0,3.15,99.3a29.32,29.32,0,0,0,6.92,10.63,29.32,29.32,0,0,0,10.63,6.92,44.05,44.05,0,0,0,14.56,2.79c6.4.29,8.44.36,24.74.36s18.34-.07,24.74-.36a44.05,44.05,0,0,0,14.56-2.79A30.66,30.66,0,0,0,116.85,99.3a44.05,44.05,0,0,0,2.79-14.56c.29-6.4.36-8.44.36-24.74s-.07-18.34-.36-24.74a44.05,44.05,0,0,0-2.79-14.56,29.32,29.32,0,0,0-6.92-10.63A29.32,29.32,0,0,0,99.3,3.15,44.05,44.05,0,0,0,84.74.36C78.34.07,76.3,0,60,0Z"/>
    <path d="M60,29.19A30.81,30.81,0,1,0,90.81,60,30.8,30.8,0,0,0,60,29.19ZM60,80A20,20,0,1,1,80,60,20,20,0,0,1,60,80Z"/>
    <circle cx="92.03" cy="27.97" r="7.2"/>
  </g>
</svg>
