<svg data-name="Layer 1" xmlns="http://www.w3.org/2000/svg" viewBox="0 0 200 200">
  <defs>
    <style>
      .eea1390e-3c1b-4c8f-ae1a-32ae814699ac {
        fill: none;
      }
    </style>
  </defs>
  <title>Sporing</title>
  <polygon class="eea1390e-3c1b-4c8f-ae1a-32ae814699ac" points="100.32 32.89 70.08 32.89 57.4 55.35 100.32 55.35 100.32 32.89"/>
  <polygon class="eea1390e-3c1b-4c8f-ae1a-32ae814699ac" points="144.09 32.89 113.32 32.89 113.32 55.35 156.77 55.35 144.09 32.89"/>
  <path class="eea1390e-3c1b-4c8f-ae1a-32ae814699ac" d="M55.07,94.6a44.11,44.11,0,0,1,65,50.41h39V68.35h-104Z"/>
  <path class="61a5dd37-478c-4d86-8430-9914cb77cefc" d="M152.21,19.89H63L42.61,55.35v51.22a44.06,44.06,0,0,0,3.63,56L26.72,187.8a2,2,0,0,0,.36,2.81l10.72,8.28a2,2,0,0,0,2.8-.36l20-25.83a43.62,43.62,0,0,0,17.72,3.75,45.4,45.4,0,0,0,5.69-.36,43.81,43.81,0,0,0,29.29-16.78h0c.33-.43.64-.86,1-1.3h49.91a8.51,8.51,0,0,0,8.5-8.5V55.35Zm-38.36,13h30.77L157.3,55.35H113.85Zm-43.24,0h30.24V55.35H57.94ZM103,151.37h0a31.09,31.09,0,1,1-28.55-49.86,31.88,31.88,0,0,1,4-.26A31.11,31.11,0,0,1,103,151.37ZM159.63,145h-39a44.09,44.09,0,0,0-65-50.41V68.35h104Z"/>
</svg>
