<svg id="bfc0b8be-715e-4724-acd7-31512c289829" data-name="Export here" xmlns="http://www.w3.org/2000/svg" viewBox="0 0 200 200">
  <g>
    <g>
      <path d="M97.67,131.43c-4,0-6.24,2.08-6.24,6.25,0,4,2.08,6.43,6.24,6.43s6.25-2.45,6.25-6.43C103.92,133.51,101.75,131.43,97.67,131.43Z"/>
      <path d="M99.21,88.78c7.7,0,9.06,3,9.06,8.87,0,8-6.34,6.61-11.5,11-2.54,2.17-4.35,5.8-4.35,12.23v5.25h10.33v-3.81c0-7.33,1.54-5.88,8.06-9.69,5.07-3,7.6-7.69,7.6-15,0-13.76-7.06-17.93-19.38-17.93-11.41,0-19.11,3.8-19.11,17.84h10C89.89,91.67,91.7,88.78,99.21,88.78Z"/>
    </g>
    <path d="M61.67,199.43a9.51,9.51,0,0,1-9.5-9.5v-16H24.67a9.58,9.58,0,0,1-9.5-9.64V49.91h168V163.45a9.54,9.54,0,0,1-9.38,9.5l-71,.94-36,24A9.5,9.5,0,0,1,61.67,199.43Zm-33.5-38.52h37v22.47l33.6-22.44,71.4-.94V62.91h-142Z"/>
  </g>
</svg>
