<?xml version="1.0" encoding="utf-8"?>
<!-- Generator: Adobe Illustrator 22.1.0, SVG Export Plug-In . SVG Version: 6.00 Build 0)  -->
<svg version="1.1" id="dfc0fd12-d1e4-4d4e-beb7-2f3c33a2226c"
	 xmlns="http://www.w3.org/2000/svg" xmlns:xlink="http://www.w3.org/1999/xlink" x="0px" y="0px" viewBox="0 0 200 200"
	 style="enable-background:new 0 0 200 200;" xml:space="preserve">
<title>Stykkgods</title>
<path d="M172.2,62.6l0.3-0.3l-33.3-32.1H58.8L26.7,62.4l0.2,0.2h-0.5v128.7c0,4.9,4.1,8.9,9,8.9h128.5c4.9,0,8.9-4,8.9-8.9V62.6
	H172.2z M148.8,76l-49.3,45.2L50.1,76H148.8z M39.8,84.8l49.7,45.6l-49.7,45.5L39.8,84.8z M99.4,139.4l51.8,47.4H47.7L99.4,139.4z
	 M109.4,130.3l50-45.8v91.7L109.4,130.3z M153.4,62.6h-47.1V43.6h27.5L153.4,62.6z M64.4,43.6h28.5v18.9H45.4L64.4,43.6z"/>
</svg>
