<svg id="Layer_1" data-name="Layer 1" xmlns="http://www.w3.org/2000/svg" xmlns:xlink="http://www.w3.org/1999/xlink" viewBox="0 0 30 30">
  <path d="M5.74,16.68V7.58A1.89,1.89,0,0,1,6.41,6,1.89,1.89,0,0,1,8.64,6l.23.15a.92.92,0,0,0,0-.16,1.83,1.83,0,0,1,2-1.87A1.84,1.84,0,0,1,12.67,6c0,1.35,0,2.69,0,4v.24A2.08,2.08,0,0,1,14.86,10,1.87,1.87,0,0,1,16,11.8l.22-.14a2,2,0,0,1,3,1.12,2.32,2.32,0,0,1,.06.59c0,1.11,0,2.22,0,3.33V17a4.29,4.29,0,0,1,.53.06,1.94,1.94,0,0,1,1.58,1.7,7.65,7.65,0,0,1-.11,2.94,17.72,17.72,0,0,1-1.18,3.7,9,9,0,0,0-.81,4.08c0,.18,0,.36.06.55H9.49c-.09-.41-.14-.81-.25-1.21a3.84,3.84,0,0,0-1-1.81,2.17,2.17,0,0,0-.42-.31,7.94,7.94,0,0,1-2.33-1.86,2.2,2.2,0,0,1-.33-.69c-.21-.64-.4-1.29-.6-1.94A.42.42,0,0,0,4.5,22c-.9-1.1-1.8-2.2-2.71-3.29a.92.92,0,0,0-.26-.22A3.66,3.66,0,0,1,.25,17,1.36,1.36,0,0,1,1.19,15a3.11,3.11,0,0,1,2.26.2A8.08,8.08,0,0,1,5.52,16.5Z"/>
  <path d="M22.81,11.32v-.24c0-1,0-1.93,0-2.9,0-.21-.07-.27-.28-.27h-7c-.32,0-.33,0-.33-.33,0-1.28,0-2.56,0-3.83,0-.22.06-.28.28-.28h7c.23,0,.3-.07.29-.3,0-1,0-1.95,0-2.92,0-.07,0-.14,0-.27l7.12,5.68-7.06,5.66Z"/>
</svg>
