<svg id="b352adde-61af-4292-b6da-63f7ef38e596" data-name="Export here" xmlns="http://www.w3.org/2000/svg" viewBox="0 0 200 198">
  <title>Sykkelbud</title>
  <g>
    <path d="M44.75,196.5A44.25,44.25,0,1,1,89,152.25,44.3,44.3,0,0,1,44.75,196.5Zm0-75.5A31.25,31.25,0,1,0,76,152.25,31.29,31.29,0,0,0,44.75,121Z"/>
    <path d="M153.5,76a6.43,6.43,0,0,1-2.72-.6l-63-29a6.5,6.5,0,0,1,5.44-11.8l63,29A6.5,6.5,0,0,1,153.5,76Z"/>
    <circle cx="46.5" cy="41.25" r="18.75"/>
    <path d="M156.5,197.5A44.5,44.5,0,1,1,201,153,44.55,44.55,0,0,1,156.5,197.5Zm0-76A31.5,31.5,0,1,0,188,153,31.53,31.53,0,0,0,156.5,121.5Z"/>
    <path d="M147.68,76.36,73.61,43.55a2,2,0,0,0-2.71,1.2L66.21,58.82,58.78,81H19.5A6.5,6.5,0,0,0,13,87.67,6.7,6.7,0,0,0,19.8,94H66.74a2,2,0,0,0,1.9-1.37l7.8-23.4a4.53,4.53,0,0,0,.59.28L124.9,89.17,94.84,110.55a2,2,0,0,0-.84,1.63v60a6.7,6.7,0,0,0,6.33,6.8,6.5,6.5,0,0,0,6.67-6.5V117.85l41.87-29.77A6.78,6.78,0,0,0,147.68,76.36Z"/>
  </g>
</svg>
