<?xml version="1.0" encoding="utf-8"?>
<!-- Generator: Adobe Illustrator 22.1.0, SVG Export Plug-In . SVG Version: 6.00 Build 0)  -->
<svg version="1.1" id="_x38_aacf741-60a3-412c-90ad-bf35b6e3de06"
	 xmlns="http://www.w3.org/2000/svg" xmlns:xlink="http://www.w3.org/1999/xlink" x="0px" y="0px" viewBox="0 0 200 200"
	 style="enable-background:new 0 0 200 200;" xml:space="preserve">
<title>Temperaturregulert</title>
<g>
	<g>
		<path d="M117.4,130.2v-103c-0.3-14.7-12.4-26.3-27.1-26c-14.3,0.3-25.7,11.8-26,26v103C48,144.8,46.6,170,61.2,186.4
			s39.8,17.8,56.2,3.1s17.8-39.8,3.1-56.2C119.6,132.2,118.5,131.1,117.4,130.2z M90.9,184.7c-13.7,0-24.9-11.1-24.9-24.8
			c0-8.6,4.4-16.5,11.6-21.1V27.1c-0.2-7.3,5.6-13.4,12.9-13.6c7.3-0.2,13.4,5.6,13.6,12.9c0,0.2,0,0.5,0,0.7v111.6
			c3.3,2.1,6,4.9,8,8.2c7.1,11.8,3.3,27-8.4,34.1C99.9,183.4,95.4,184.7,90.9,184.7z"/>
		<path d="M96.4,147.7v-62H85.4v62c-7,3.1-10.2,11.2-7.1,18.2c3.1,7,11.2,10.2,18.2,7.1s10.2-11.2,7.1-18.2
			C102.2,151.6,99.6,149.1,96.4,147.7z"/>
	</g>
	<rect x="125.6" y="28.5" width="22.5" height="13.3"/>
	<rect x="125.6" y="50.6" width="22.5" height="13.3"/>
	<rect x="125.6" y="72.6" width="22.5" height="13.3"/>
</g>
</svg>
