<?xml version="1.0" encoding="utf-8"?>
<!-- Generator: Adobe Illustrator 22.1.0, SVG Export Plug-In . SVG Version: 6.00 Build 0)  -->
<svg version="1.1"
	 xmlns="http://www.w3.org/2000/svg" xmlns:xlink="http://www.w3.org/1999/xlink" x="0px" y="0px" viewBox="0 0 200 200"
	 style="enable-background:new 0 0 200 200;" xml:space="preserve">
<style type="text/css">
	.toll-0{fill:none;}
</style>
<title>Toll</title>
<g>
	<path class="toll-0" d="M128.5,30.4l-0.3-5.7c-33-15.5-54.7-11-63.2-7.9l2.2,13.7H128.5z"/>
	<path class="toll-0" d="M100.9,78.1c15.2-0.3,27.4-12.5,27.7-27.7v-6.9H72.2v6.9C72.4,66,85.3,78.4,100.9,78.1z"/>
	<path class="toll-0" d="M122.5,113.9H68.8c-12.7,0-23,10.3-23.1,23.1l0,49.4h4.4l-0.1,0L122.5,113.9z"/>
	<path class="toll-0" d="M146.9,119l-68.2,67.4h76.8V137C155.5,129.7,152.2,123.3,146.9,119z"/>
	<path d="M59,50.5c0,22.8,18.5,41.3,41.4,41.4c22.8,0,41.4-18.5,41.4-41.4v-7.2l0.6,0l-1.3-26.9l-3.5-1.7
		C86.2-11.1,55.7,6.3,54.4,7.1l-3.8,2.3l3.3,21h-7.1v13.2H59V50.5z M128.3,24.7l0.3,5.7H67.2l-2.2-13.7
		C73.6,13.7,95.3,9.2,128.3,24.7z M128.6,43.6v6.9c-0.3,15.2-12.5,27.4-27.7,27.7C85.3,78.4,72.4,66,72.2,50.5v-6.9H128.6z"/>
	<path d="M132.5,100.8H68.8c-20,0-36.2,16.2-36.2,36.2v62.6h136.2V137C168.7,117,152.5,100.8,132.5,100.8z M45.7,186.4l0-49.4
		c0-12.7,10.3-23.1,23.1-23.1h53.8l-72.5,72.5l0.1,0H45.7z M155.5,186.4H78.8l68.2-67.4c5.3,4.2,8.6,10.7,8.6,18V186.4z"/>
</g>
</svg>
