<svg id="47a1d709-ccbb-453c-91e3-a42b4f26b838" data-name="Bring" xmlns="http://www.w3.org/2000/svg" viewBox="0 0 200 200">
  <title>Utenforhuset</title>
  <path class="1b8e3d64-cb32-4407-99ac-d9e6cbc2baec" d="M198.64,66.46A66.51,66.51,0,1,0,68.16,84.72a44,44,0,1,0-28,81.9l0,19.84-16.21,0,0,13,136.65-.2,0-13-21.83,0-.08-53.58A66.6,66.6,0,0,0,198.64,66.46Zm-66.59-53.4a53.49,53.49,0,0,1,6.66,106.57l-.06-44.16a6.51,6.51,0,0,0-13,0l.07,44.16a53.49,53.49,0,0,1,6.35-106.59ZM15.61,123.12a31,31,0,1,1,37.55,30.26l0-28.83a6.51,6.51,0,1,0-13,0l0,28.84A31.06,31.06,0,0,1,15.61,123.12Zm37.6,63.32,0-19.84a44,44,0,0,0,37.18-48.34,66.12,66.12,0,0,0,35.36,14.49l.08,53.58Z"/>
</svg>
