<svg id="b1e4285f-5028-4683-946c-94ca25d83559" data-name="Export here" xmlns="http://www.w3.org/2000/svg" viewBox="0 0 200 200">
  <title>Verksted</title>
  <g>
    <path d="M42.51,165.61A6.38,6.38,0,1,0,48.89,172,6.38,6.38,0,0,0,42.51,165.61Z"/>
    <path d="M187.92,64.44a10.18,10.18,0,0,0-17.08-4.72L149.6,81l-13.77-2.29-2.3-13.77,21.23-21.24A10.18,10.18,0,0,0,150,26.56a51.75,51.75,0,0,0-62.76,63L22.29,154.5A26.66,26.66,0,0,0,41.14,200,26.43,26.43,0,0,0,60,192.19l64.89-64.87a51.84,51.84,0,0,0,63-62.88Zm-22.71,40.34a39.07,39.07,0,0,1-40.16,9.31l-3.74-1.25L51,183.17a14.27,14.27,0,0,1-19.65,0,13.92,13.92,0,0,1,0-19.65L101.7,93.14l-1.23-3.73a39,39,0,0,1,41.82-51.33L119.87,60.51l4.87,29.24L154,94.62l22.42-22.44A38.7,38.7,0,0,1,165.21,104.78Z"/>
  </g>
</svg>
